LifeSavers-Bold-OTF.ufo
<glyph name="exclam" format="1">
  <advance width="247"/>
  <unicode hex="0021"/>
  <outline>
    <contour>
      <point x="96" y="127" type="curve"/>
      <point x="100" y="105"/>
      <point x="110" y="101"/>
      <point x="125" y="101" type="curve" smooth="yes"/>
      <point x="152" y="101"/>
      <point x="156" y="125"/>
      <point x="156" y="172" type="curve" smooth="yes"/>
      <point x="156" y="795" type="line" smooth="yes"/>
      <point x="156" y="836"/>
      <point x="130" y="836"/>
      <point x="120" y="836" type="curve" smooth="yes"/>
      <point x="103" y="836"/>
      <point x="86" y="829"/>
      <point x="86" y="795" type="curve" smooth="yes"/>
      <point x="86" y="656"/>
      <point x="86" y="156"/>
    </contour>
    <contour>
      <point x="69" y="7" type="curve" smooth="yes" name="hr01"/>
      <point x="69" y="-17"/>
      <point x="85" y="-46"/>
      <point x="126" y="-46" type="curve" smooth="yes"/>
      <point x="165" y="-46"/>
      <point x="186" y="-19"/>
      <point x="186" y="9" type="curve" smooth="yes"/>
      <point x="186" y="34"/>
      <point x="168" y="62"/>
      <point x="128" y="62" type="curve" smooth="yes"/>
      <point x="85" y="62"/>
      <point x="69" y="30"/>
    </contour>
  </outline>
</glyph>
<glyph name="numbersign" format="1">
  <advance width="725"/>
  <unicode hex="0023"/>
  <outline>
    <contour>
      <point x="52" y="227" type="curve" smooth="yes"/>
      <point x="64" y="227"/>
      <point x="108" y="227"/>
      <point x="160" y="228" type="curve"/>
      <point x="118" y="128"/>
      <point x="84" y="45"/>
      <point x="85" y="37" type="curve" smooth="yes"/>
      <point x="88" y="19"/>
      <point x="100" y="12"/>
      <point x="113" y="12" type="curve" smooth="yes"/>
      <point x="145" y="12"/>
      <point x="150" y="27"/>
      <point x="156" y="42" type="curve"/>
      <point x="162" y="64"/>
      <point x="193" y="139"/>
      <point x="231" y="229" type="curve"/>
      <point x="288" y="229"/>
      <point x="343" y="230"/>
      <point x="367" y="230" type="curve" smooth="yes"/>
      <point x="387" y="230" type="line"/>
      <point x="344" y="129"/>
      <point x="310" y="45"/>
      <point x="311" y="37" type="curve" smooth="yes"/>
      <point x="314" y="19"/>
      <point x="326" y="12"/>
      <point x="339" y="12" type="curve" smooth="yes"/>
      <point x="371" y="12"/>
      <point x="376" y="27"/>
      <point x="382" y="42" type="curve"/>
      <point x="388" y="64"/>
      <point x="419" y="139"/>
      <point x="457" y="229" type="curve"/>
      <point x="525" y="229"/>
      <point x="607" y="228"/>
      <point x="619" y="228" type="curve" smooth="yes"/>
      <point x="630" y="228"/>
      <point x="644" y="245"/>
      <point x="644" y="259" type="curve"/>
      <point x="643" y="272"/>
      <point x="625" y="291"/>
      <point x="616" y="291" type="curve" smooth="yes"/>
      <point x="483" y="291" type="line"/>
      <point x="537" y="417" type="line"/>
      <point x="670" y="417" type="line" smooth="yes"/>
      <point x="685" y="417"/>
      <point x="697" y="440"/>
      <point x="697" y="451" type="curve" smooth="yes"/>
      <point x="697" y="465"/>
      <point x="679" y="480"/>
      <point x="674" y="480" type="curve" smooth="yes" name="hr01"/>
      <point x="660" y="480"/>
      <point x="615" y="479"/>
      <point x="563" y="479" type="curve" name="hr02"/>
      <point x="602" y="572"/>
      <point x="631" y="644"/>
      <point x="631" y="650" type="curve" smooth="yes"/>
      <point x="631" y="660"/>
      <point x="623" y="670"/>
      <point x="612" y="670" type="curve" smooth="yes"/>
      <point x="572" y="670"/>
      <point x="570" y="649"/>
      <point x="546" y="602" type="curve"/>
      <point x="492" y="478" type="line"/>
      <point x="444" y="477"/>
      <point x="400" y="477"/>
      <point x="379" y="477" type="curve" smooth="yes" name="hr03"/>
      <point x="336" y="477" type="line"/>
      <point x="376" y="570"/>
      <point x="405" y="644"/>
      <point x="405" y="650" type="curve" smooth="yes"/>
      <point x="405" y="660"/>
      <point x="397" y="670"/>
      <point x="386" y="670" type="curve" smooth="yes"/>
      <point x="346" y="670"/>
      <point x="344" y="649"/>
      <point x="320" y="602" type="curve"/>
      <point x="266" y="477" type="line"/>
      <point x="195" y="478"/>
      <point x="117" y="479"/>
      <point x="106" y="479" type="curve" smooth="yes" name="hr04"/>
      <point x="95" y="479"/>
      <point x="82" y="462"/>
      <point x="82" y="448" type="curve" smooth="yes"/>
      <point x="82" y="431"/>
      <point x="101" y="416"/>
      <point x="110" y="416" type="curve" smooth="yes"/>
      <point x="240" y="416" type="line"/>
      <point x="186" y="290" type="line"/>
      <point x="57" y="290" type="line" smooth="yes"/>
      <point x="42" y="290"/>
      <point x="30" y="267"/>
      <point x="30" y="256" type="curve" smooth="yes"/>
      <point x="30" y="237"/>
      <point x="47" y="227"/>
    </contour>
    <contour>
      <point x="310" y="416" type="curve"/>
      <point x="466" y="416" type="line"/>
      <point x="412" y="291" type="line"/>
      <point x="361" y="291"/>
      <point x="308" y="290"/>
      <point x="257" y="290" type="curve"/>
      <point x="274" y="332"/>
      <point x="293" y="374"/>
    </contour>
  </outline>
</glyph>
<glyph name="dollar" format="1">
  <advance width="619"/>
  <unicode hex="0024"/>
  <outline>
    <contour>
      <point x="342" y="803" type="line" smooth="yes"/>
      <point x="342" y="823"/>
      <point x="333" y="851"/>
      <point x="308" y="851" type="curve" smooth="yes"/>
      <point x="298" y="851"/>
      <point x="272" y="845"/>
      <point x="272" y="819" type="curve" smooth="yes"/>
      <point x="272" y="786" type="line"/>
      <point x="162" y="773"/>
      <point x="53" y="705"/>
      <point x="53" y="571" type="curve" smooth="yes"/>
      <point x="53" y="398"/>
      <point x="157" y="352"/>
      <point x="242" y="311" type="curve" smooth="yes"/>
      <point x="273" y="296" type="line"/>
      <point x="273" y="208"/>
      <point x="272" y="127"/>
      <point x="272" y="42" type="curve"/>
      <point x="171" y="53"/>
      <point x="116" y="115"/>
      <point x="116" y="177" type="curve" smooth="yes"/>
      <point x="116" y="206"/>
      <point x="113" y="246"/>
      <point x="79" y="246" type="curve" smooth="yes"/>
      <point x="50" y="246"/>
      <point x="45" y="221"/>
      <point x="45" y="202" type="curve" smooth="yes"/>
      <point x="45" y="160"/>
      <point x="47" y="147"/>
      <point x="47" y="105" type="curve" smooth="yes"/>
      <point x="47" y="76"/>
      <point x="43" y="19"/>
      <point x="43" y="4" type="curve" smooth="yes"/>
      <point x="43" y="-5"/>
      <point x="56" y="-29"/>
      <point x="78" y="-29" type="curve" smooth="yes"/>
      <point x="102" y="-29"/>
      <point x="112" y="-10"/>
      <point x="112" y="6" type="curve"/>
      <point x="112" y="7"/>
      <point x="109" y="82"/>
      <point x="109" y="82" type="curve"/>
      <point x="139" y="17"/>
      <point x="207" y="-10"/>
      <point x="272" y="-17" type="curve"/>
      <point x="272" y="-52" type="line" smooth="yes"/>
      <point x="272" y="-66"/>
      <point x="288" y="-76"/>
      <point x="307" y="-76" type="curve" smooth="yes"/>
      <point x="330" y="-76"/>
      <point x="342" y="-70"/>
      <point x="342" y="-49" type="curve" smooth="yes"/>
      <point x="342" y="-38"/>
      <point x="341" y="-28"/>
      <point x="341" y="-17" type="curve"/>
      <point x="438" y="-9"/>
      <point x="555" y="35"/>
      <point x="555" y="142" type="curve" smooth="yes"/>
      <point x="555" y="241"/>
      <point x="437" y="301"/>
      <point x="340" y="342" type="curve"/>
      <point x="340" y="461"/>
      <point x="341" y="600"/>
      <point x="342" y="726" type="curve"/>
      <point x="417" y="711"/>
      <point x="496" y="623"/>
      <point x="505" y="508" type="curve" name="hr01"/>
      <point x="505" y="479"/>
      <point x="513" y="449"/>
      <point x="539" y="449" type="curve" smooth="yes"/>
      <point x="563" y="449"/>
      <point x="575" y="464"/>
      <point x="575" y="483" type="curve" smooth="yes"/>
      <point x="575" y="525"/>
      <point x="573" y="561"/>
      <point x="573" y="603" type="curve" smooth="yes"/>
      <point x="573" y="651"/>
      <point x="577" y="702"/>
      <point x="577" y="749" type="curve" smooth="yes"/>
      <point x="577" y="758"/>
      <point x="574" y="782"/>
      <point x="542" y="782" type="curve" smooth="yes"/>
      <point x="514" y="782"/>
      <point x="508" y="763"/>
      <point x="508" y="747" type="curve"/>
      <point x="508" y="746"/>
      <point x="511" y="705"/>
      <point x="516" y="622" type="curve"/>
      <point x="480" y="724"/>
      <point x="422" y="776"/>
      <point x="342" y="786" type="curve"/>
    </contour>
    <contour>
      <point x="124" y="562" type="curve" smooth="yes"/>
      <point x="124" y="653"/>
      <point x="187" y="709"/>
      <point x="272" y="724" type="curve"/>
      <point x="273" y="606"/>
      <point x="273" y="481"/>
      <point x="273" y="370" type="curve"/>
      <point x="266" y="373"/>
      <point x="259" y="375"/>
      <point x="254" y="378" type="curve" smooth="yes"/>
      <point x="189" y="407"/>
      <point x="124" y="442"/>
    </contour>
    <contour>
      <point x="484" y="142" type="curve" smooth="yes" name="hr02"/>
      <point x="484" y="90"/>
      <point x="419" y="52"/>
      <point x="340" y="43" type="curve"/>
      <point x="340" y="268" type="line"/>
      <point x="414" y="235"/>
      <point x="484" y="197"/>
    </contour>
  </outline>
</glyph>
<glyph name="percent" format="1">
  <advance width="633"/>
  <unicode hex="0025"/>
  <outline>
    <contour>
      <point x="29" y="513" type="curve" smooth="yes"/>
      <point x="29" y="419"/>
      <point x="92" y="372"/>
      <point x="149" y="372" type="curve" smooth="yes"/>
      <point x="217" y="372"/>
      <point x="276" y="435"/>
      <point x="276" y="526" type="curve" smooth="yes"/>
      <point x="276" y="529"/>
      <point x="275" y="535"/>
      <point x="275" y="537" type="curve"/>
      <point x="309" y="524"/>
      <point x="340" y="520"/>
      <point x="384" y="520" type="curve" smooth="yes"/>
      <point x="398" y="520"/>
      <point x="405" y="520"/>
      <point x="420" y="523" type="curve"/>
      <point x="419" y="518"/>
      <point x="165" y="57"/>
      <point x="165" y="37" type="curve" smooth="yes" name="hr01"/>
      <point x="165" y="26"/>
      <point x="175" y="17"/>
      <point x="193" y="17" type="curve" smooth="yes"/>
      <point x="216" y="17"/>
      <point x="226" y="32"/>
      <point x="232" y="42" type="curve"/>
      <point x="258" y="107"/>
      <point x="547" y="634"/>
      <point x="547" y="650" type="curve" smooth="yes"/>
      <point x="547" y="655"/>
      <point x="544" y="666"/>
      <point x="521" y="666" type="curve" smooth="yes"/>
      <point x="491" y="666"/>
      <point x="475" y="607"/>
      <point x="442" y="584" type="curve" smooth="yes"/>
      <point x="426" y="573"/>
      <point x="405" y="571"/>
      <point x="386" y="571" type="curve" smooth="yes"/>
      <point x="238" y="571"/>
      <point x="262" y="662"/>
      <point x="151" y="662" type="curve" smooth="yes" name="hr02"/>
      <point x="92" y="662"/>
      <point x="29" y="606"/>
    </contour>
    <contour>
      <point x="347" y="122" type="curve" smooth="yes"/>
      <point x="347" y="51"/>
      <point x="389" y="-19"/>
      <point x="467" y="-19" type="curve" smooth="yes"/>
      <point x="542" y="-19"/>
      <point x="589" y="38"/>
      <point x="589" y="125" type="curve" smooth="yes"/>
      <point x="589" y="202"/>
      <point x="554" y="266"/>
      <point x="472" y="266" type="curve" smooth="yes"/>
      <point x="401" y="266"/>
      <point x="347" y="207"/>
    </contour>
    <contour>
      <point x="403" y="124" type="curve" smooth="yes"/>
      <point x="403" y="182"/>
      <point x="433" y="210"/>
      <point x="470" y="210" type="curve" smooth="yes"/>
      <point x="498" y="210"/>
      <point x="530" y="189"/>
      <point x="530" y="128" type="curve" smooth="yes"/>
      <point x="530" y="86"/>
      <point x="512" y="37"/>
      <point x="465" y="37" type="curve" smooth="yes"/>
      <point x="412" y="37"/>
      <point x="403" y="94"/>
    </contour>
    <contour>
      <point x="85" y="513" type="curve" smooth="yes"/>
      <point x="85" y="583"/>
      <point x="126" y="606"/>
      <point x="152" y="606" type="curve" smooth="yes"/>
      <point x="184" y="606"/>
      <point x="220" y="583"/>
      <point x="220" y="521" type="curve" smooth="yes"/>
      <point x="220" y="463"/>
      <point x="189" y="428"/>
      <point x="146" y="428" type="curve" smooth="yes"/>
      <point x="108" y="428"/>
      <point x="85" y="467"/>
    </contour>
  </outline>
</glyph>
<glyph name="ampersand" format="1">
  <advance width="738"/>
  <unicode hex="0026"/>
  <outline>
    <contour>
      <point x="446" y="349" type="curve" smooth="yes"/>
      <point x="495" y="349"/>
      <point x="466" y="402"/>
      <point x="489" y="402" type="curve" smooth="yes" name="hr01"/>
      <point x="500" y="402"/>
      <point x="513" y="390"/>
      <point x="513" y="336" type="curve" smooth="yes"/>
      <point x="513" y="281"/>
      <point x="495" y="230"/>
      <point x="471" y="186" type="curve"/>
      <point x="415" y="267"/>
      <point x="335" y="367"/>
      <point x="292" y="460" type="curve"/>
      <point x="352" y="518"/>
      <point x="440" y="604"/>
      <point x="440" y="714" type="curve" smooth="yes"/>
      <point x="440" y="811"/>
      <point x="371" y="838"/>
      <point x="310" y="838" type="curve" smooth="yes"/>
      <point x="218" y="838"/>
      <point x="138" y="778"/>
      <point x="138" y="676" type="curve" smooth="yes"/>
      <point x="138" y="612"/>
      <point x="169" y="541"/>
      <point x="206" y="469" type="curve"/>
      <point x="148" y="425"/>
      <point x="31" y="327"/>
      <point x="31" y="186" type="curve" smooth="yes"/>
      <point x="31" y="35"/>
      <point x="164" y="-9"/>
      <point x="259" y="-9" type="curve" smooth="yes"/>
      <point x="342" y="-9"/>
      <point x="408" y="25"/>
      <point x="469" y="90" type="curve"/>
      <point x="515" y="35"/>
      <point x="554" y="-19"/>
      <point x="588" y="-19" type="curve" smooth="yes" name="hr02"/>
      <point x="737" y="-19"/>
      <point x="763" y="-15"/>
      <point x="763" y="8" type="curve" smooth="yes"/>
      <point x="763" y="31"/>
      <point x="737" y="32"/>
      <point x="687" y="33" type="curve" smooth="yes" name="hr03"/>
      <point x="624" y="34"/>
      <point x="612" y="32"/>
      <point x="599" y="37" type="curve" smooth="yes"/>
      <point x="581" y="44"/>
      <point x="554" y="77"/>
      <point x="508" y="140" type="curve"/>
      <point x="538" y="195"/>
      <point x="570" y="262"/>
      <point x="570" y="342" type="curve" smooth="yes"/>
      <point x="570" y="437"/>
      <point x="524" y="459"/>
      <point x="481" y="459" type="curve" smooth="yes"/>
      <point x="429" y="459"/>
      <point x="405" y="427"/>
      <point x="405" y="392" type="curve" smooth="yes"/>
      <point x="405" y="375"/>
      <point x="411" y="349"/>
    </contour>
    <contour>
      <point x="237" y="414" type="curve"/>
      <point x="311" y="284"/>
      <point x="361" y="209"/>
      <point x="425" y="131" type="curve"/>
      <point x="399" y="98"/>
      <point x="348" y="52"/>
      <point x="260" y="52" type="curve" smooth="yes" name="hr04"/>
      <point x="205" y="52"/>
      <point x="106" y="69"/>
      <point x="106" y="193" type="curve" smooth="yes"/>
      <point x="106" y="284"/>
      <point x="159" y="341"/>
    </contour>
    <contour>
      <point x="366" y="704" type="curve" smooth="yes"/>
      <point x="366" y="622"/>
      <point x="293" y="565"/>
      <point x="256" y="521" type="curve"/>
      <point x="231" y="576"/>
      <point x="213" y="627"/>
      <point x="213" y="674" type="curve" smooth="yes"/>
      <point x="213" y="737"/>
      <point x="245" y="777"/>
      <point x="300" y="777" type="curve" smooth="yes"/>
      <point x="352" y="777"/>
      <point x="366" y="740"/>
    </contour>
  </outline>
</glyph>
<glyph name="quotesingle" format="1">
  <advance width="152"/>
  <unicode hex="0027"/>
  <outline>
    <contour>
      <point x="76" y="855" type="curve" smooth="yes"/>
      <point x="39" y="855"/>
      <point x="39" y="797"/>
      <point x="39" y="783" type="curve" smooth="yes"/>
      <point x="39" y="765"/>
      <point x="42" y="647"/>
      <point x="77" y="647" type="curve" smooth="yes"/>
      <point x="107" y="647"/>
      <point x="114" y="789"/>
      <point x="114" y="798" type="curve" smooth="yes"/>
      <point x="114" y="818"/>
      <point x="114" y="855"/>
    </contour>
  </outline>
</glyph>
<glyph name="parenleft" format="1">
  <advance width="267"/>
  <unicode hex="0028"/>
  <outline>
    <contour>
      <point x="147" y="6" type="curve" smooth="yes"/>
      <point x="156" y="-9"/>
      <point x="169" y="-29"/>
      <point x="191" y="-29" type="curve" smooth="yes"/>
      <point x="212" y="-29"/>
      <point x="220" y="-13"/>
      <point x="220" y="0" type="curve" smooth="yes"/>
      <point x="220" y="50"/>
      <point x="117" y="165"/>
      <point x="117" y="411" type="curve" smooth="yes" name="hr01"/>
      <point x="117" y="650"/>
      <point x="244" y="766"/>
      <point x="244" y="819" type="curve" smooth="yes" name="hr02"/>
      <point x="244" y="831"/>
      <point x="238" y="848"/>
      <point x="214" y="848" type="curve" smooth="yes"/>
      <point x="190" y="848"/>
      <point x="178" y="824"/>
      <point x="178" y="825" type="curve"/>
      <point x="178" y="825"/>
      <point x="42" y="628"/>
      <point x="42" y="409" type="curve" smooth="yes"/>
      <point x="42" y="190"/>
      <point x="131" y="33"/>
    </contour>
  </outline>
</glyph>
<glyph name="asterisk" format="1">
  <advance width="364"/>
  <unicode hex="002A"/>
  <outline>
    <contour>
      <point x="248" y="828" type="curve" smooth="yes"/>
      <point x="226" y="828"/>
      <point x="207" y="776"/>
      <point x="182" y="734" type="curve"/>
      <point x="144" y="791"/>
      <point x="132" y="828"/>
      <point x="110" y="828" type="curve" smooth="yes"/>
      <point x="94" y="828"/>
      <point x="84" y="822"/>
      <point x="84" y="800" type="curve" smooth="yes"/>
      <point x="84" y="783"/>
      <point x="108" y="765"/>
      <point x="150" y="718" type="curve"/>
      <point x="116" y="722"/>
      <point x="95" y="722"/>
      <point x="67" y="722" type="curve" smooth="yes" name="hr01"/>
      <point x="43" y="722"/>
      <point x="31" y="708"/>
      <point x="31" y="695" type="curve" smooth="yes"/>
      <point x="31" y="675"/>
      <point x="53" y="671"/>
      <point x="67" y="671" type="curve" smooth="yes"/>
      <point x="92" y="671"/>
      <point x="120" y="672"/>
      <point x="150" y="675" type="curve"/>
      <point x="128" y="657"/>
      <point x="84" y="618"/>
      <point x="84" y="595" type="curve" smooth="yes"/>
      <point x="84" y="579"/>
      <point x="92" y="570"/>
      <point x="112" y="570" type="curve" smooth="yes" name="hr02"/>
      <point x="136" y="570"/>
      <point x="177" y="649"/>
      <point x="181" y="658" type="curve"/>
      <point x="188" y="650"/>
      <point x="239" y="570"/>
      <point x="261" y="570" type="curve" smooth="yes"/>
      <point x="274" y="570"/>
      <point x="287" y="576"/>
      <point x="287" y="593" type="curve" smooth="yes"/>
      <point x="287" y="627"/>
      <point x="219" y="670"/>
      <point x="215" y="675" type="curve"/>
      <point x="224" y="674"/>
      <point x="279" y="671"/>
      <point x="308" y="671" type="curve" smooth="yes" name="hr03"/>
      <point x="320" y="671"/>
      <point x="333" y="679"/>
      <point x="333" y="695" type="curve" smooth="yes"/>
      <point x="333" y="710"/>
      <point x="321" y="723"/>
      <point x="307" y="723" type="curve" smooth="yes"/>
      <point x="284" y="723"/>
      <point x="235" y="721"/>
      <point x="217" y="718" type="curve"/>
      <point x="218" y="730"/>
      <point x="274" y="778"/>
      <point x="274" y="800" type="curve" smooth="yes"/>
      <point x="274" y="813"/>
      <point x="268" y="828"/>
    </contour>
  </outline>
</glyph>
<glyph name="plus" format="1">
  <advance width="380"/>
  <unicode hex="002B"/>
  <outline>
    <contour>
      <point x="157" y="541" type="curve" smooth="yes"/>
      <point x="157" y="518"/>
      <point x="160" y="484"/>
      <point x="160" y="440" type="curve"/>
      <point x="56" y="440" type="line" smooth="yes"/>
      <point x="45" y="440"/>
      <point x="30" y="431"/>
      <point x="30" y="408" type="curve" smooth="yes" name="hr01"/>
      <point x="30" y="385"/>
      <point x="47" y="376"/>
      <point x="56" y="376" type="curve" smooth="yes"/>
      <point x="75" y="376"/>
      <point x="115" y="378"/>
      <point x="158" y="379" type="curve"/>
      <point x="157" y="345"/>
      <point x="155" y="297"/>
      <point x="155" y="276" type="curve" smooth="yes"/>
      <point x="155" y="265"/>
      <point x="165" y="250"/>
      <point x="188" y="250" type="curve" smooth="yes" name="hr02"/>
      <point x="212" y="250"/>
      <point x="223" y="267"/>
      <point x="223" y="276" type="curve" smooth="yes"/>
      <point x="223" y="379" type="line" name="hr03"/>
      <point x="321" y="379" type="line" smooth="yes"/>
      <point x="336" y="379"/>
      <point x="350" y="391"/>
      <point x="350" y="413" type="curve" smooth="yes" name="hr04"/>
      <point x="350" y="437"/>
      <point x="338" y="445"/>
      <point x="329" y="445" type="curve" smooth="yes"/>
      <point x="303" y="445"/>
      <point x="267" y="440"/>
      <point x="223" y="440" type="curve" name="hr05"/>
      <point x="223" y="480"/>
      <point x="224" y="518"/>
      <point x="224" y="541" type="curve" smooth="yes"/>
      <point x="224" y="555"/>
      <point x="212" y="570"/>
      <point x="189" y="570" type="curve" smooth="yes" name="hr06"/>
      <point x="170" y="570"/>
      <point x="157" y="555"/>
    </contour>
  </outline>
</glyph>
<glyph name="comma" format="1">
  <advance width="202"/>
  <unicode hex="002C"/>
  <outline>
    <contour>
      <point x="46" y="36" type="curve" smooth="yes"/>
      <point x="46" y="5"/>
      <point x="82" y="5"/>
      <point x="82" y="-12" type="curve" smooth="yes" name="hr01"/>
      <point x="82" y="-47"/>
      <point x="69" y="-60"/>
      <point x="69" y="-72" type="curve" smooth="yes" name="hr02"/>
      <point x="69" y="-89"/>
      <point x="84" y="-91"/>
      <point x="90" y="-91" type="curve" smooth="yes"/>
      <point x="111" y="-91"/>
      <point x="155" y="-47"/>
      <point x="155" y="13" type="curve" smooth="yes"/>
      <point x="155" y="66"/>
      <point x="125" y="85"/>
      <point x="98" y="85" type="curve" smooth="yes"/>
      <point x="61" y="85"/>
      <point x="46" y="60"/>
    </contour>
  </outline>
</glyph>
<glyph name="hyphen" format="1">
  <advance width="393"/>
  <unicode hex="002D"/>
  <outline>
    <contour>
      <point x="314" y="300" type="curve" smooth="yes"/>
      <point x="282" y="300"/>
      <point x="241" y="297"/>
      <point x="186" y="297" type="curve" smooth="yes" name="hr01"/>
      <point x="152" y="297"/>
      <point x="104" y="299"/>
      <point x="85" y="299" type="curve" smooth="yes" name="hr02"/>
      <point x="67" y="299"/>
      <point x="59" y="283"/>
      <point x="59" y="269" type="curve" smooth="yes"/>
      <point x="59" y="255"/>
      <point x="70" y="238"/>
      <point x="85" y="238" type="curve" smooth="yes" name="hr03"/>
      <point x="132" y="238"/>
      <point x="253" y="239"/>
      <point x="306" y="239" type="curve" smooth="yes" name="hr04"/>
      <point x="329" y="239"/>
      <point x="335" y="261"/>
      <point x="335" y="272" type="curve" smooth="yes"/>
      <point x="335" y="287"/>
      <point x="324" y="300"/>
    </contour>
  </outline>
</glyph>
<glyph name="period" format="1">
  <advance width="209"/>
  <unicode hex="002E"/>
  <outline>
    <contour>
      <point x="46" y="34" type="curve" smooth="yes"/>
      <point x="46" y="10"/>
      <point x="62" y="-19"/>
      <point x="103" y="-19" type="curve" smooth="yes"/>
      <point x="142" y="-19"/>
      <point x="163" y="8"/>
      <point x="163" y="36" type="curve" smooth="yes"/>
      <point x="163" y="61"/>
      <point x="145" y="89"/>
      <point x="105" y="89" type="curve" smooth="yes"/>
      <point x="62" y="89"/>
      <point x="46" y="57"/>
    </contour>
  </outline>
</glyph>
<glyph name="slash" format="1">
  <advance width="530"/>
  <unicode hex="002F"/>
  <outline>
    <contour>
      <point x="23" y="18" type="curve" smooth="yes"/>
      <point x="21" y="15"/>
      <point x="21" y="12"/>
      <point x="21" y="9" type="curve" smooth="yes"/>
      <point x="21" y="-6"/>
      <point x="37" y="-19"/>
      <point x="49" y="-19" type="curve" smooth="yes"/>
      <point x="68" y="-19"/>
      <point x="84" y="-9"/>
      <point x="91" y="5" type="curve" smooth="yes"/>
      <point x="496" y="768" type="line" smooth="yes"/>
      <point x="501" y="777"/>
      <point x="510" y="797"/>
      <point x="510" y="807" type="curve" smooth="yes"/>
      <point x="510" y="815"/>
      <point x="509" y="831"/>
      <point x="485" y="831" type="curve" smooth="yes"/>
      <point x="453" y="831"/>
      <point x="441" y="815"/>
      <point x="421" y="774" type="curve" smooth="yes"/>
      <point x="337" y="602"/>
      <point x="366" y="653"/>
      <point x="241" y="423" type="curve" smooth="yes"/>
      <point x="112" y="186"/>
      <point x="204" y="380"/>
    </contour>
  </outline>
</glyph>
<glyph name="zero" format="1">
  <advance width="593"/>
  <unicode hex="0030"/>
  <outline>
    <contour>
      <point x="115" y="384" type="curve" smooth="yes"/>
      <point x="115" y="567"/>
      <point x="173" y="776"/>
      <point x="301" y="776" type="curve" smooth="yes"/>
      <point x="456" y="776"/>
      <point x="477" y="538"/>
      <point x="477" y="402" type="curve" smooth="yes"/>
      <point x="477" y="140"/>
      <point x="372" y="42"/>
      <point x="288" y="42" type="curve" smooth="yes"/>
      <point x="150" y="42"/>
      <point x="115" y="237"/>
    </contour>
    <contour>
      <point x="40" y="365" type="curve" smooth="yes"/>
      <point x="40" y="72"/>
      <point x="169" y="-20"/>
      <point x="282" y="-20" type="curve" smooth="yes"/>
      <point x="397" y="-20"/>
      <point x="552" y="78"/>
      <point x="552" y="399" type="curve" smooth="yes"/>
      <point x="552" y="580"/>
      <point x="512" y="838"/>
      <point x="303" y="838" type="curve" smooth="yes"/>
      <point x="102" y="838"/>
      <point x="40" y="576"/>
    </contour>
  </outline>
</glyph>
<glyph name="one" format="1">
  <advance width="346"/>
  <unicode hex="0031"/>
  <outline>
    <contour>
      <point x="230" y="792" type="line"/>
      <point x="230" y="809"/>
      <point x="229" y="821"/>
      <point x="210" y="821" type="curve" smooth="yes"/>
      <point x="192" y="821"/>
      <point x="78" y="819"/>
      <point x="59" y="818" type="curve" smooth="yes"/>
      <point x="42" y="817"/>
      <point x="22" y="812"/>
      <point x="22" y="791" type="curve" smooth="yes"/>
      <point x="22" y="771"/>
      <point x="42" y="768"/>
      <point x="61" y="768" type="curve" smooth="yes"/>
      <point x="78" y="768"/>
      <point x="124" y="769"/>
      <point x="134" y="769" type="curve" smooth="yes"/>
      <point x="157" y="769"/>
      <point x="157" y="746"/>
      <point x="157" y="735" type="curve"/>
      <point x="155" y="665"/>
      <point x="155" y="618"/>
      <point x="152" y="457" type="curve" smooth="yes" name="hr01"/>
      <point x="147" y="250"/>
      <point x="147" y="196"/>
      <point x="140" y="94" type="curve" smooth="yes" name="hr02"/>
      <point x="137" y="50"/>
      <point x="84" y="48"/>
      <point x="61" y="48" type="curve" smooth="yes"/>
      <point x="36" y="48"/>
      <point x="22" y="43"/>
      <point x="22" y="23" type="curve" smooth="yes" name="hr03"/>
      <point x="22" y="4"/>
      <point x="47" y="0"/>
      <point x="73" y="0" type="curve" smooth="yes"/>
      <point x="290" y="0" type="line" smooth="yes"/>
      <point x="303" y="0"/>
      <point x="315" y="8"/>
      <point x="315" y="23" type="curve" smooth="yes" name="hr04"/>
      <point x="315" y="46"/>
      <point x="296" y="51"/>
      <point x="281" y="51" type="curve" smooth="yes"/>
      <point x="215" y="51" type="line"/>
    </contour>
  </outline>
</glyph>
<glyph name="two" format="1">
  <advance width="554"/>
  <unicode hex="0032"/>
  <outline>
    <contour>
      <point x="443" y="83" type="line" smooth="yes"/>
      <point x="433" y="67"/>
      <point x="426" y="63"/>
      <point x="417" y="63" type="curve" smooth="yes"/>
      <point x="399" y="63"/>
      <point x="228" y="64"/>
      <point x="146" y="68" type="curve"/>
      <point x="263" y="178"/>
      <point x="490" y="425"/>
      <point x="490" y="626" type="curve" smooth="yes"/>
      <point x="490" y="738"/>
      <point x="434" y="831"/>
      <point x="283" y="831" type="curve" smooth="yes"/>
      <point x="120" y="831"/>
      <point x="31" y="679"/>
      <point x="31" y="616" type="curve" smooth="yes"/>
      <point x="31" y="605"/>
      <point x="34" y="555"/>
      <point x="77" y="555" type="curve" smooth="yes"/>
      <point x="112" y="555"/>
      <point x="133" y="574"/>
      <point x="133" y="602" type="curve" smooth="yes"/>
      <point x="133" y="627"/>
      <point x="110" y="633"/>
      <point x="110" y="652" type="curve" smooth="yes"/>
      <point x="110" y="674"/>
      <point x="173" y="770"/>
      <point x="273" y="770" type="curve" smooth="yes"/>
      <point x="378" y="770"/>
      <point x="415" y="690"/>
      <point x="415" y="628" type="curve" smooth="yes"/>
      <point x="415" y="430"/>
      <point x="175" y="146"/>
      <point x="34" y="40" type="curve" smooth="yes"/>
      <point x="23" y="31"/>
      <point x="13" y="25"/>
      <point x="13" y="14" type="curve" smooth="yes"/>
      <point x="13" y="3"/>
      <point x="21" y="-11"/>
      <point x="42" y="-11" type="curve" smooth="yes" name="hr01"/>
      <point x="61" y="-11"/>
      <point x="79" y="-3"/>
      <point x="84" y="3" type="curve" name="hr02"/>
      <point x="193" y="3" type="line" smooth="yes"/>
      <point x="285" y="3"/>
      <point x="353" y="0"/>
      <point x="446" y="0" type="curve" smooth="yes" name="hr03"/>
      <point x="452" y="0"/>
      <point x="468" y="6"/>
      <point x="477" y="22" type="curve" smooth="yes"/>
      <point x="513" y="86"/>
      <point x="533" y="113"/>
      <point x="533" y="126" type="curve" smooth="yes"/>
      <point x="533" y="142"/>
      <point x="517" y="147"/>
      <point x="503" y="147" type="curve" smooth="yes"/>
      <point x="485" y="147"/>
      <point x="477" y="135"/>
      <point x="470" y="124" type="curve" smooth="yes"/>
    </contour>
  </outline>
</glyph>
<glyph name="three" format="1">
  <advance width="532"/>
  <unicode hex="0033"/>
  <outline>
    <contour>
      <point x="108" y="421" type="curve" smooth="yes"/>
      <point x="102" y="416"/>
      <point x="82" y="403"/>
      <point x="82" y="379" type="curve" smooth="yes"/>
      <point x="82" y="360"/>
      <point x="95" y="348"/>
      <point x="110" y="348" type="curve" smooth="yes"/>
      <point x="135" y="348"/>
      <point x="182" y="384"/>
      <point x="256" y="384" type="curve" smooth="yes"/>
      <point x="334" y="384"/>
      <point x="420" y="343"/>
      <point x="420" y="252" type="curve" smooth="yes"/>
      <point x="420" y="128"/>
      <point x="259" y="38"/>
      <point x="154" y="38" type="curve" smooth="yes"/>
      <point x="138" y="38"/>
      <point x="107" y="40"/>
      <point x="82" y="58" type="curve" smooth="yes"/>
      <point x="63" y="72"/>
      <point x="63" y="89"/>
      <point x="44" y="89" type="curve" smooth="yes" name="hr01"/>
      <point x="26" y="89"/>
      <point x="17" y="75"/>
      <point x="17" y="57" type="curve" smooth="yes"/>
      <point x="17" y="8"/>
      <point x="86" y="-18"/>
      <point x="160" y="-18" type="curve" smooth="yes"/>
      <point x="335" y="-18"/>
      <point x="495" y="128"/>
      <point x="495" y="267" type="curve" smooth="yes"/>
      <point x="495" y="372"/>
      <point x="405" y="437"/>
      <point x="297" y="437" type="curve" smooth="yes"/>
      <point x="250" y="437"/>
      <point x="205" y="425"/>
      <point x="200" y="425" type="curve"/>
      <point x="242" y="443"/>
      <point x="483" y="549"/>
      <point x="483" y="709" type="curve" smooth="yes" name="hr02"/>
      <point x="483" y="826"/>
      <point x="354" y="836"/>
      <point x="307" y="836" type="curve" smooth="yes"/>
      <point x="125" y="836"/>
      <point x="48" y="684"/>
      <point x="48" y="615" type="curve"/>
      <point x="48" y="613"/>
      <point x="48" y="586"/>
      <point x="77" y="586" type="curve" smooth="yes"/>
      <point x="109" y="586"/>
      <point x="121" y="620"/>
      <point x="128" y="642" type="curve" smooth="yes"/>
      <point x="156" y="729"/>
      <point x="230" y="774"/>
      <point x="301" y="774" type="curve" smooth="yes" name="hr03"/>
      <point x="357" y="774"/>
      <point x="408" y="744"/>
      <point x="408" y="688" type="curve" smooth="yes"/>
      <point x="408" y="566"/>
      <point x="172" y="471"/>
    </contour>
  </outline>
</glyph>
<glyph name="four" format="1">
  <advance width="569"/>
  <unicode hex="0034"/>
  <outline>
    <contour>
      <point x="511" y="244" type="line" smooth="yes"/>
      <point x="522" y="244"/>
      <point x="540" y="251"/>
      <point x="540" y="273" type="curve" smooth="yes"/>
      <point x="540" y="293"/>
      <point x="525" y="305"/>
      <point x="504" y="306" type="curve" smooth="yes"/>
      <point x="440" y="310" type="line" name="hr01"/>
      <point x="440" y="458"/>
      <point x="469" y="795"/>
      <point x="469" y="804" type="curve" smooth="yes"/>
      <point x="469" y="819"/>
      <point x="451" y="826"/>
      <point x="427" y="826" type="curve" smooth="yes" name="hr02"/>
      <point x="405" y="826"/>
      <point x="383" y="804"/>
      <point x="379" y="798" type="curve" smooth="yes"/>
      <point x="235" y="618"/>
      <point x="189" y="547"/>
      <point x="-2" y="291" type="curve" smooth="yes"/>
      <point x="-10" y="280"/>
      <point x="-12" y="272"/>
      <point x="-12" y="264" type="curve" smooth="yes"/>
      <point x="-12" y="246"/>
      <point x="7" y="234"/>
      <point x="30" y="234" type="curve" smooth="yes"/>
      <point x="60" y="234"/>
      <point x="164" y="240"/>
      <point x="368" y="244" type="curve"/>
      <point x="359" y="89" type="line" smooth="yes"/>
      <point x="358" y="63"/>
      <point x="339" y="54"/>
      <point x="310" y="51" type="curve" smooth="yes"/>
      <point x="300" y="50"/>
      <point x="248" y="46"/>
      <point x="220" y="45" type="curve"/>
      <point x="207" y="45"/>
      <point x="190" y="41"/>
      <point x="190" y="24" type="curve" smooth="yes"/>
      <point x="190" y="4"/>
      <point x="211" y="0"/>
      <point x="223" y="0" type="curve" smooth="yes"/>
      <point x="468" y="0" type="line" smooth="yes"/>
      <point x="494" y="0"/>
      <point x="512" y="6"/>
      <point x="512" y="25" type="curve" smooth="yes" name="hr03"/>
      <point x="512" y="44"/>
      <point x="497" y="49"/>
      <point x="468" y="49" type="curve" smooth="yes"/>
      <point x="451" y="49"/>
      <point x="427" y="49"/>
      <point x="427" y="65" type="curve" smooth="yes" name="hr04"/>
      <point x="427" y="81"/>
      <point x="432" y="188"/>
      <point x="437" y="244" type="curve"/>
    </contour>
    <contour>
      <point x="101" y="298" type="curve" smooth="yes"/>
      <point x="88" y="298"/>
      <point x="88" y="302"/>
      <point x="88" y="306" type="curve" smooth="yes"/>
      <point x="88" y="314"/>
      <point x="99" y="322"/>
      <point x="99" y="326" type="curve"/>
      <point x="398" y="727" type="line"/>
      <point x="370" y="310" type="line"/>
      <point x="274" y="304"/>
      <point x="112" y="298"/>
    </contour>
  </outline>
</glyph>
<glyph name="five" format="1">
  <advance width="542"/>
  <unicode hex="0035"/>
  <outline>
    <contour>
      <point x="418" y="812" type="curve" smooth="yes"/>
      <point x="362" y="812"/>
      <point x="175" y="806"/>
      <point x="106" y="794" type="curve" smooth="yes"/>
      <point x="94" y="792"/>
      <point x="88" y="784"/>
      <point x="87" y="775" type="curve" smooth="yes"/>
      <point x="78" y="647"/>
      <point x="75" y="616"/>
      <point x="60" y="505" type="curve" smooth="yes"/>
      <point x="58" y="488"/>
      <point x="56" y="468"/>
      <point x="56" y="460" type="curve" smooth="yes"/>
      <point x="56" y="422"/>
      <point x="64" y="393"/>
      <point x="92" y="393" type="curve" smooth="yes"/>
      <point x="118" y="393"/>
      <point x="201" y="424"/>
      <point x="277" y="424" type="curve" smooth="yes" name="hr01"/>
      <point x="412" y="424"/>
      <point x="447" y="344"/>
      <point x="447" y="274" type="curve" smooth="yes"/>
      <point x="447" y="166"/>
      <point x="371" y="51"/>
      <point x="194" y="51" type="curve" smooth="yes"/>
      <point x="145" y="51"/>
      <point x="93" y="68"/>
      <point x="93" y="96" type="curve" smooth="yes"/>
      <point x="93" y="133"/>
      <point x="151" y="104"/>
      <point x="151" y="156" type="curve" smooth="yes" name="hr02"/>
      <point x="151" y="184"/>
      <point x="131" y="198"/>
      <point x="105" y="198" type="curve" smooth="yes"/>
      <point x="66" y="198"/>
      <point x="30" y="156"/>
      <point x="30" y="104" type="curve" smooth="yes"/>
      <point x="30" y="-11"/>
      <point x="152" y="-12"/>
      <point x="198" y="-12" type="curve" smooth="yes"/>
      <point x="420" y="-12"/>
      <point x="522" y="138"/>
      <point x="522" y="269" type="curve" smooth="yes"/>
      <point x="522" y="369"/>
      <point x="460" y="492"/>
      <point x="287" y="492" type="curve" smooth="yes"/>
      <point x="225" y="492"/>
      <point x="142" y="468"/>
      <point x="126" y="463" type="curve"/>
      <point x="159" y="724" type="line"/>
      <point x="199" y="741"/>
      <point x="375" y="743"/>
      <point x="423" y="743" type="curve" smooth="yes"/>
      <point x="444" y="743"/>
      <point x="471" y="750"/>
      <point x="471" y="779" type="curve" smooth="yes"/>
      <point x="471" y="805"/>
      <point x="447" y="812"/>
    </contour>
  </outline>
</glyph>
<glyph name="six" format="1">
  <advance width="529"/>
  <unicode hex="0036"/>
  <outline>
    <contour>
      <point x="370" y="784" type="curve" smooth="yes"/>
      <point x="378" y="790"/>
      <point x="383" y="796"/>
      <point x="383" y="807" type="curve" smooth="yes"/>
      <point x="383" y="820"/>
      <point x="375" y="834"/>
      <point x="356" y="834" type="curve" smooth="yes"/>
      <point x="344" y="834"/>
      <point x="330" y="828"/>
      <point x="320" y="822" type="curve" smooth="yes"/>
      <point x="220" y="764"/>
      <point x="34" y="496"/>
      <point x="34" y="251" type="curve" smooth="yes"/>
      <point x="34" y="52"/>
      <point x="153" y="-18"/>
      <point x="286" y="-18" type="curve" smooth="yes"/>
      <point x="469" y="-18"/>
      <point x="520" y="115"/>
      <point x="520" y="207" type="curve" smooth="yes"/>
      <point x="520" y="287"/>
      <point x="481" y="420"/>
      <point x="311" y="420" type="curve" smooth="yes"/>
      <point x="187" y="420"/>
      <point x="109" y="351"/>
      <point x="94" y="261" type="curve"/>
      <point x="92" y="266"/>
      <point x="92" y="273"/>
      <point x="92" y="285" type="curve" smooth="yes"/>
      <point x="92" y="342"/>
      <point x="112" y="396"/>
      <point x="148" y="481" type="curve" smooth="yes"/>
      <point x="218" y="647"/>
      <point x="309" y="735"/>
    </contour>
    <contour>
      <point x="282" y="43" type="curve" smooth="yes"/>
      <point x="214" y="43"/>
      <point x="127" y="86"/>
      <point x="127" y="183" type="curve" smooth="yes" name="hr01"/>
      <point x="127" y="300"/>
      <point x="213" y="356"/>
      <point x="295" y="356" type="curve" smooth="yes"/>
      <point x="402" y="356"/>
      <point x="445" y="285"/>
      <point x="445" y="204" type="curve" smooth="yes"/>
      <point x="445" y="107"/>
      <point x="372" y="43"/>
    </contour>
  </outline>
</glyph>
<glyph name="seven" format="1">
  <advance width="467"/>
  <unicode hex="0037"/>
  <outline>
    <contour>
      <point x="7" y="18" type="curve" smooth="yes"/>
      <point x="4" y="12"/>
      <point x="2" y="7"/>
      <point x="2" y="-2" type="curve" smooth="yes"/>
      <point x="2" y="-13"/>
      <point x="20" y="-22"/>
      <point x="36" y="-22" type="curve" smooth="yes"/>
      <point x="59" y="-22"/>
      <point x="66" y="-13"/>
      <point x="75" y="5" type="curve" smooth="yes"/>
      <point x="465" y="737" type="line" smooth="yes"/>
      <point x="469" y="744"/>
      <point x="487" y="776"/>
      <point x="487" y="790" type="curve" smooth="yes"/>
      <point x="487" y="818"/>
      <point x="463" y="820"/>
      <point x="429" y="820" type="curve" smooth="yes"/>
      <point x="382" y="820"/>
      <point x="130" y="809"/>
      <point x="85" y="809" type="curve" smooth="yes"/>
      <point x="55" y="809"/>
      <point x="36" y="805"/>
      <point x="36" y="780" type="curve" smooth="yes"/>
      <point x="36" y="762"/>
      <point x="45" y="749"/>
      <point x="61" y="749" type="curve" smooth="yes"/>
      <point x="175" y="749"/>
      <point x="270" y="756"/>
      <point x="376" y="756" type="curve" smooth="yes"/>
      <point x="386" y="756"/>
      <point x="390" y="750"/>
      <point x="390" y="743" type="curve" smooth="yes"/>
      <point x="390" y="734"/>
      <point x="249" y="477"/>
    </contour>
  </outline>
</glyph>
<glyph name="eight" format="1">
  <advance width="561"/>
  <unicode hex="0038"/>
  <outline>
    <contour>
      <point x="37" y="191" type="curve" smooth="yes"/>
      <point x="37" y="49"/>
      <point x="144" y="-20"/>
      <point x="269" y="-20" type="curve" smooth="yes"/>
      <point x="422" y="-20"/>
      <point x="522" y="84"/>
      <point x="522" y="204" type="curve" smooth="yes"/>
      <point x="522" y="317"/>
      <point x="432" y="400"/>
      <point x="356" y="416" type="curve"/>
      <point x="411" y="432"/>
      <point x="509" y="510"/>
      <point x="509" y="622" type="curve" smooth="yes" name="hr01"/>
      <point x="509" y="720"/>
      <point x="433" y="832"/>
      <point x="286" y="832" type="curve" smooth="yes"/>
      <point x="144" y="832"/>
      <point x="59" y="728"/>
      <point x="59" y="615" type="curve" smooth="yes"/>
      <point x="59" y="513"/>
      <point x="129" y="442"/>
      <point x="191" y="416" type="curve"/>
      <point x="134" y="394"/>
      <point x="37" y="325"/>
    </contour>
    <contour>
      <point x="112" y="203" type="curve" smooth="yes"/>
      <point x="112" y="310"/>
      <point x="198" y="377"/>
      <point x="279" y="377" type="curve" smooth="yes"/>
      <point x="357" y="377"/>
      <point x="445" y="315"/>
      <point x="445" y="206" type="curve" smooth="yes"/>
      <point x="445" y="102"/>
      <point x="364" y="41"/>
      <point x="272" y="41" type="curve" smooth="yes"/>
      <point x="169" y="41"/>
      <point x="112" y="116"/>
    </contour>
    <contour>
      <point x="134" y="610" type="curve" smooth="yes" name="hr03"/>
      <point x="134" y="682"/>
      <point x="174" y="771"/>
      <point x="286" y="771" type="curve" smooth="yes"/>
      <point x="390" y="771"/>
      <point x="434" y="695"/>
      <point x="434" y="621" type="curve" smooth="yes"/>
      <point x="434" y="526"/>
      <point x="361" y="454"/>
      <point x="283" y="454" type="curve" smooth="yes"/>
      <point x="217" y="454"/>
      <point x="134" y="506"/>
    </contour>
  </outline>
</glyph>
<glyph name="nine" format="1">
  <advance width="541"/>
  <unicode hex="0039"/>
  <outline>
    <contour>
      <point x="223" y="-8" type="curve" smooth="yes"/>
      <point x="274" y="33"/>
      <point x="344" y="100"/>
      <point x="408" y="217" type="curve" smooth="yes"/>
      <point x="459" y="312"/>
      <point x="508" y="459"/>
      <point x="508" y="591" type="curve" smooth="yes"/>
      <point x="508" y="683"/>
      <point x="465" y="830"/>
      <point x="267" y="830" type="curve" smooth="yes"/>
      <point x="84" y="830"/>
      <point x="11" y="694"/>
      <point x="11" y="581" type="curve" smooth="yes"/>
      <point x="11" y="436"/>
      <point x="110" y="339"/>
      <point x="226" y="339" type="curve" smooth="yes"/>
      <point x="294" y="339"/>
      <point x="374" y="370"/>
      <point x="425" y="437" type="curve"/>
      <point x="395" y="293"/>
      <point x="293" y="110"/>
      <point x="168" y="28" type="curve" smooth="yes"/>
      <point x="153" y="18"/>
      <point x="145" y="12"/>
      <point x="145" y="-3" type="curve" smooth="yes"/>
      <point x="145" y="-22"/>
      <point x="165" y="-28"/>
      <point x="175" y="-28" type="curve" smooth="yes"/>
      <point x="194" y="-28"/>
      <point x="207" y="-21"/>
    </contour>
    <contour>
      <point x="276" y="769" type="curve" smooth="yes"/>
      <point x="387" y="769"/>
      <point x="434" y="670"/>
      <point x="434" y="595" type="curve" smooth="yes"/>
      <point x="434" y="527"/>
      <point x="377" y="406"/>
      <point x="247" y="406" type="curve" smooth="yes"/>
      <point x="153" y="406"/>
      <point x="86" y="481"/>
      <point x="86" y="576" type="curve" smooth="yes"/>
      <point x="86" y="712"/>
      <point x="175" y="769"/>
    </contour>
  </outline>
</glyph>
<glyph name="semicolon" format="1">
  <advance width="228"/>
  <unicode hex="003B"/>
  <outline>
    <component base="period" xOffset="9" yOffset="304"/>
    <contour>
      <point x="60" y="36" type="curve" smooth="yes"/>
      <point x="60" y="5"/>
      <point x="96" y="5"/>
      <point x="96" y="-12" type="curve" smooth="yes" name="hr01"/>
      <point x="96" y="-47"/>
      <point x="83" y="-60"/>
      <point x="83" y="-72" type="curve" smooth="yes" name="hr02"/>
      <point x="83" y="-89"/>
      <point x="98" y="-91"/>
      <point x="104" y="-91" type="curve" smooth="yes"/>
      <point x="125" y="-91"/>
      <point x="169" y="-47"/>
      <point x="169" y="13" type="curve" smooth="yes"/>
      <point x="169" y="66"/>
      <point x="139" y="85"/>
      <point x="112" y="85" type="curve" smooth="yes"/>
      <point x="75" y="85"/>
      <point x="60" y="60"/>
    </contour>
  </outline>
</glyph>
<glyph name="less" format="1">
  <advance width="285"/>
  <unicode hex="003C"/>
  <outline>
    <contour>
      <point x="236" y="496" type="curve" smooth="yes"/>
      <point x="236" y="502"/>
      <point x="234" y="505"/>
      <point x="225" y="505" type="curve" smooth="yes"/>
      <point x="196" y="505"/>
      <point x="38" y="407"/>
      <point x="38" y="378" type="curve" smooth="yes"/>
      <point x="38" y="352"/>
      <point x="196" y="252"/>
      <point x="225" y="252" type="curve" smooth="yes"/>
      <point x="234" y="252"/>
      <point x="236" y="255"/>
      <point x="236" y="261" type="curve" smooth="yes"/>
      <point x="236" y="277"/>
      <point x="164" y="325"/>
      <point x="131" y="378" type="curve"/>
      <point x="164" y="431"/>
      <point x="236" y="480"/>
    </contour>
  </outline>
</glyph>
<glyph name="equal" format="1">
  <advance width="385"/>
  <unicode hex="003D"/>
  <outline>
    <contour>
      <point x="310" y="316" type="curve" smooth="yes"/>
      <point x="278" y="316"/>
      <point x="237" y="313"/>
      <point x="182" y="313" type="curve" smooth="yes"/>
      <point x="148" y="313"/>
      <point x="100" y="315"/>
      <point x="81" y="315" type="curve" smooth="yes"/>
      <point x="63" y="315"/>
      <point x="55" y="299"/>
      <point x="55" y="285" type="curve" smooth="yes"/>
      <point x="55" y="271"/>
      <point x="66" y="254"/>
      <point x="81" y="254" type="curve" smooth="yes"/>
      <point x="128" y="254"/>
      <point x="249" y="255"/>
      <point x="302" y="255" type="curve" smooth="yes" name="hr01"/>
      <point x="325" y="255"/>
      <point x="331" y="277"/>
      <point x="331" y="288" type="curve" smooth="yes"/>
      <point x="331" y="303"/>
      <point x="320" y="316"/>
    </contour>
    <contour>
      <point x="310" y="484" type="curve" smooth="yes"/>
      <point x="278" y="484"/>
      <point x="237" y="481"/>
      <point x="182" y="481" type="curve" smooth="yes" name="hr02"/>
      <point x="148" y="481"/>
      <point x="100" y="483"/>
      <point x="81" y="483" type="curve" smooth="yes" name="hr03"/>
      <point x="63" y="483"/>
      <point x="55" y="467"/>
      <point x="55" y="453" type="curve" smooth="yes"/>
      <point x="55" y="439"/>
      <point x="66" y="422"/>
      <point x="81" y="422" type="curve" smooth="yes" name="hr04"/>
      <point x="128" y="422"/>
      <point x="249" y="423"/>
      <point x="302" y="423" type="curve" smooth="yes"/>
      <point x="325" y="423"/>
      <point x="331" y="445"/>
      <point x="331" y="456" type="curve" smooth="yes"/>
      <point x="331" y="471"/>
      <point x="320" y="484"/>
    </contour>
  </outline>
</glyph>
<glyph name="greater" format="1">
  <advance width="285"/>
  <unicode hex="003E"/>
  <outline>
    <contour>
      <point x="49" y="496" type="curve" smooth="yes"/>
      <point x="49" y="480"/>
      <point x="121" y="431"/>
      <point x="154" y="378" type="curve"/>
      <point x="121" y="325"/>
      <point x="49" y="277"/>
      <point x="49" y="261" type="curve" smooth="yes"/>
      <point x="49" y="255"/>
      <point x="51" y="252"/>
      <point x="60" y="252" type="curve" smooth="yes"/>
      <point x="89" y="252"/>
      <point x="247" y="352"/>
      <point x="247" y="378" type="curve" smooth="yes"/>
      <point x="247" y="407"/>
      <point x="89" y="505"/>
      <point x="60" y="505" type="curve" smooth="yes"/>
      <point x="51" y="505"/>
      <point x="49" y="502"/>
    </contour>
  </outline>
</glyph>
<glyph name="question" format="1">
  <advance width="578"/>
  <unicode hex="003F"/>
  <outline>
    <component base="period" xOffset="102" yOffset="-70"/>
    <contour>
      <point x="193" y="503" type="curve" smooth="yes"/>
      <point x="193" y="512"/>
      <point x="185" y="536"/>
      <point x="164" y="536" type="curve" smooth="yes"/>
      <point x="142" y="536"/>
      <point x="147" y="513"/>
      <point x="131" y="513" type="curve" smooth="yes" name="hr01"/>
      <point x="113" y="513"/>
      <point x="96" y="540"/>
      <point x="96" y="593" type="curve" smooth="yes"/>
      <point x="96" y="687"/>
      <point x="170" y="770"/>
      <point x="275" y="770" type="curve" smooth="yes"/>
      <point x="373" y="770"/>
      <point x="476" y="718"/>
      <point x="476" y="594" type="curve" smooth="yes"/>
      <point x="476" y="489"/>
      <point x="416" y="418"/>
      <point x="368" y="380" type="curve" smooth="yes"/>
      <point x="283" y="313"/>
      <point x="160" y="283"/>
      <point x="160" y="152" type="curve" smooth="yes"/>
      <point x="160" y="135"/>
      <point x="162" y="110"/>
      <point x="164" y="96" type="curve" smooth="yes"/>
      <point x="166" y="82"/>
      <point x="176" y="64"/>
      <point x="200" y="64" type="curve" smooth="yes"/>
      <point x="222" y="64"/>
      <point x="233" y="77"/>
      <point x="233" y="97" type="curve" smooth="yes"/>
      <point x="233" y="119"/>
      <point x="222" y="149"/>
      <point x="222" y="174" type="curve" smooth="yes"/>
      <point x="222" y="237"/>
      <point x="301" y="268"/>
      <point x="375" y="315" type="curve" smooth="yes"/>
      <point x="443" y="358"/>
      <point x="551" y="453"/>
      <point x="551" y="592" type="curve" smooth="yes"/>
      <point x="551" y="779"/>
      <point x="388" y="831"/>
      <point x="279" y="831" type="curve" smooth="yes"/>
      <point x="144" y="831"/>
      <point x="32" y="754"/>
      <point x="32" y="603" type="curve" smooth="yes"/>
      <point x="32" y="528"/>
      <point x="60" y="456"/>
      <point x="132" y="456" type="curve" smooth="yes"/>
      <point x="168" y="456"/>
      <point x="193" y="482"/>
    </contour>
  </outline>
</glyph>
<glyph name="at" format="1">
  <advance width="688"/>
  <unicode hex="0040"/>
  <outline>
    <contour>
      <point x="584" y="236" type="curve" smooth="yes"/>
      <point x="584" y="147"/>
      <point x="546" y="115"/>
      <point x="520" y="115" type="curve" smooth="yes"/>
      <point x="496" y="115"/>
      <point x="486" y="122"/>
      <point x="486" y="156" type="curve" smooth="yes"/>
      <point x="486" y="184"/>
      <point x="484" y="210"/>
      <point x="484" y="237" type="curve" smooth="yes"/>
      <point x="484" y="288"/>
      <point x="487" y="330"/>
      <point x="487" y="382" type="curve" smooth="yes"/>
      <point x="487" y="395"/>
      <point x="475" y="411"/>
      <point x="455" y="411" type="curve" smooth="yes"/>
      <point x="438" y="411"/>
      <point x="422" y="400"/>
      <point x="422" y="384" type="curve" smooth="yes"/>
      <point x="422" y="376"/>
      <point x="423" y="371"/>
      <point x="424" y="360" type="curve"/>
      <point x="403" y="392"/>
      <point x="366" y="399"/>
      <point x="338" y="399" type="curve" smooth="yes" name="hr01"/>
      <point x="242" y="399"/>
      <point x="171" y="318"/>
      <point x="171" y="215" type="curve" smooth="yes"/>
      <point x="171" y="123"/>
      <point x="233" y="49"/>
      <point x="324" y="49" type="curve" smooth="yes"/>
      <point x="373" y="49"/>
      <point x="407" y="71"/>
      <point x="428" y="97" type="curve"/>
      <point x="436" y="77"/>
      <point x="454" y="54"/>
      <point x="499" y="54" type="curve" smooth="yes"/>
      <point x="577" y="54"/>
      <point x="647" y="103"/>
      <point x="647" y="237" type="curve"/>
      <point x="646" y="401"/>
      <point x="540" y="541"/>
      <point x="347" y="541" type="curve" smooth="yes"/>
      <point x="171" y="541"/>
      <point x="43" y="409"/>
      <point x="43" y="227" type="curve" smooth="yes"/>
      <point x="43" y="43"/>
      <point x="174" y="-84"/>
      <point x="324" y="-84" type="curve" smooth="yes"/>
      <point x="348" y="-84"/>
      <point x="364" y="-76"/>
      <point x="364" y="-55" type="curve" smooth="yes"/>
      <point x="364" y="-34"/>
      <point x="353" y="-22"/>
      <point x="325" y="-22" type="curve" smooth="yes"/>
      <point x="204" y="-22"/>
      <point x="109" y="79"/>
      <point x="109" y="227" type="curve" smooth="yes"/>
      <point x="109" y="374"/>
      <point x="204" y="477"/>
      <point x="346" y="477" type="curve" smooth="yes"/>
      <point x="507" y="477"/>
      <point x="584" y="368"/>
    </contour>
    <contour>
      <point x="422" y="205" type="line" smooth="yes"/>
      <point x="422" y="174"/>
      <point x="402" y="109"/>
      <point x="329" y="109" type="curve" smooth="yes"/>
      <point x="276" y="109"/>
      <point x="243" y="147"/>
      <point x="243" y="216" type="curve" smooth="yes"/>
      <point x="243" y="292"/>
      <point x="285" y="339"/>
      <point x="336" y="339" type="curve" smooth="yes"/>
      <point x="394" y="339"/>
      <point x="422" y="301"/>
      <point x="422" y="243" type="curve" smooth="yes"/>
    </contour>
  </outline>
</glyph>
<glyph name="A" format="1">
  <advance width="698"/>
  <unicode hex="0041"/>
  <outline>
    <contour>
      <point x="388" y="816" type="line" smooth="yes"/>
      <point x="384" y="830"/>
      <point x="372" y="837"/>
      <point x="353" y="837" type="curve" smooth="yes"/>
      <point x="329" y="837"/>
      <point x="320" y="826"/>
      <point x="317" y="816" type="curve" smooth="yes"/>
      <point x="277" y="685"/>
      <point x="167" y="257"/>
      <point x="108" y="89" type="curve" smooth="yes"/>
      <point x="100" y="65"/>
      <point x="87" y="54"/>
      <point x="59" y="51" type="curve" smooth="yes"/>
      <point x="52" y="50"/>
      <point x="7" y="46"/>
      <point x="-12" y="45" type="curve"/>
      <point x="-25" y="45"/>
      <point x="-37" y="37"/>
      <point x="-37" y="24" type="curve" smooth="yes"/>
      <point x="-37" y="9"/>
      <point x="-26" y="0"/>
      <point x="-14" y="0" type="curve" smooth="yes"/>
      <point x="253" y="0" type="line" smooth="yes"/>
      <point x="279" y="0"/>
      <point x="287" y="12"/>
      <point x="287" y="24" type="curve" smooth="yes"/>
      <point x="287" y="44"/>
      <point x="271" y="49"/>
      <point x="258" y="49" type="curve" smooth="yes"/>
      <point x="228" y="49"/>
      <point x="182" y="49"/>
      <point x="182" y="65" type="curve" smooth="yes"/>
      <point x="182" y="90"/>
      <point x="206" y="171"/>
      <point x="225" y="223" type="curve"/>
      <point x="473" y="223" type="line"/>
      <point x="482" y="192"/>
      <point x="526" y="36"/>
      <point x="526" y="15" type="curve" smooth="yes"/>
      <point x="526" y="-36"/>
      <point x="455" y="-10"/>
      <point x="455" y="-39" type="curve" smooth="yes"/>
      <point x="455" y="-50"/>
      <point x="462" y="-55"/>
      <point x="486" y="-55" type="curve" smooth="yes"/>
      <point x="719" y="-55" type="line" smooth="yes"/>
      <point x="742" y="-55"/>
      <point x="754" y="-50"/>
      <point x="754" y="-31" type="curve" smooth="yes"/>
      <point x="754" y="-12"/>
      <point x="732" y="-9"/>
      <point x="713" y="-9" type="curve" smooth="yes"/>
      <point x="650" y="-9"/>
      <point x="608" y="-8"/>
      <point x="600" y="23" type="curve" smooth="yes"/>
    </contour>
    <contour>
      <point x="356" y="715" type="curve"/>
      <point x="386" y="580"/>
      <point x="426" y="411"/>
      <point x="458" y="289" type="curve"/>
      <point x="427" y="288"/>
      <point x="394" y="288"/>
      <point x="363" y="288" type="curve" smooth="yes"/>
      <point x="322" y="288"/>
      <point x="285" y="288"/>
      <point x="244" y="289" type="curve"/>
      <point x="272" y="402"/>
      <point x="338" y="639"/>
    </contour>
  </outline>
</glyph>
<glyph name="B" format="1">
  <advance width="689"/>
  <unicode hex="0042"/>
  <outline>
    <contour>
      <point x="67" y="48" type="curve" smooth="yes"/>
      <point x="50" y="48"/>
      <point x="38" y="43"/>
      <point x="38" y="25" type="curve" smooth="yes"/>
      <point x="38" y="6"/>
      <point x="56" y="0"/>
      <point x="89" y="0" type="curve" smooth="yes"/>
      <point x="289" y="0" type="line" smooth="yes"/>
      <point x="482" y="0"/>
      <point x="657" y="58"/>
      <point x="657" y="220" type="curve" smooth="yes"/>
      <point x="657" y="325"/>
      <point x="583" y="400"/>
      <point x="469" y="421" type="curve"/>
      <point x="559" y="445"/>
      <point x="615" y="519"/>
      <point x="615" y="612" type="curve" smooth="yes" name="hr01"/>
      <point x="615" y="750"/>
      <point x="490" y="821"/>
      <point x="348" y="821" type="curve" smooth="yes"/>
      <point x="323" y="821"/>
      <point x="167" y="819"/>
      <point x="67" y="818" type="curve"/>
      <point x="52" y="818"/>
      <point x="41" y="808"/>
      <point x="41" y="794" type="curve" smooth="yes"/>
      <point x="41" y="777"/>
      <point x="49" y="769"/>
      <point x="67" y="769" type="curve" smooth="yes"/>
      <point x="111" y="769"/>
      <point x="131" y="769"/>
      <point x="132" y="733" type="curve" smooth="yes"/>
      <point x="134" y="664"/>
      <point x="140" y="449"/>
      <point x="140" y="313" type="curve" smooth="yes"/>
      <point x="140" y="259"/>
      <point x="139" y="162"/>
      <point x="139" y="72" type="curve" smooth="yes"/>
      <point x="139" y="49"/>
      <point x="94" y="48"/>
    </contour>
    <contour>
      <point x="289" y="380" type="curve" smooth="yes"/>
      <point x="432" y="380"/>
      <point x="583" y="363"/>
      <point x="583" y="222" type="curve" smooth="yes"/>
      <point x="583" y="70"/>
      <point x="374" y="62"/>
      <point x="210" y="62" type="curve"/>
      <point x="210" y="377" type="line"/>
      <point x="237" y="378"/>
      <point x="238" y="380"/>
    </contour>
    <contour>
      <point x="291" y="757" type="curve" smooth="yes" name="hr02"/>
      <point x="412" y="757"/>
      <point x="543" y="729"/>
      <point x="543" y="605" type="curve" smooth="yes"/>
      <point x="543" y="449"/>
      <point x="366" y="445"/>
      <point x="280" y="444" type="curve"/>
      <point x="236" y="444"/>
      <point x="210" y="445"/>
      <point x="210" y="447" type="curve"/>
      <point x="210" y="753" type="line"/>
      <point x="210" y="753"/>
      <point x="245" y="757"/>
    </contour>
  </outline>
</glyph>
<glyph name="C" format="1">
  <advance width="646"/>
  <unicode hex="0043"/>
  <outline>
    <contour>
      <point x="610" y="219" type="curve" smooth="yes"/>
      <point x="610" y="238"/>
      <point x="599" y="249"/>
      <point x="581" y="249" type="curve" smooth="yes"/>
      <point x="557" y="249"/>
      <point x="554" y="230"/>
      <point x="549" y="203" type="curve" smooth="yes"/>
      <point x="533" y="116"/>
      <point x="457" y="48"/>
      <point x="340" y="48" type="curve" smooth="yes"/>
      <point x="187" y="48"/>
      <point x="112" y="209"/>
      <point x="112" y="404" type="curve" smooth="yes"/>
      <point x="112" y="597"/>
      <point x="208" y="777"/>
      <point x="346" y="777" type="curve" smooth="yes"/>
      <point x="476" y="777"/>
      <point x="525" y="658"/>
      <point x="525" y="527" type="curve" smooth="yes"/>
      <point x="525" y="478"/>
      <point x="537" y="468"/>
      <point x="561" y="468" type="curve" smooth="yes"/>
      <point x="590" y="468"/>
      <point x="595" y="490"/>
      <point x="595" y="502" type="curve" smooth="yes"/>
      <point x="595" y="544"/>
      <point x="593" y="592"/>
      <point x="593" y="634" type="curve" smooth="yes"/>
      <point x="593" y="682"/>
      <point x="597" y="743"/>
      <point x="597" y="790" type="curve" smooth="yes"/>
      <point x="597" y="799"/>
      <point x="594" y="823"/>
      <point x="561" y="823" type="curve" smooth="yes"/>
      <point x="537" y="823"/>
      <point x="528" y="804"/>
      <point x="528" y="788" type="curve"/>
      <point x="528" y="787"/>
      <point x="528" y="785"/>
      <point x="533" y="702" type="curve"/>
      <point x="513" y="758"/>
      <point x="455" y="838"/>
      <point x="345" y="838" type="curve" smooth="yes" name="hr01"/>
      <point x="177" y="838"/>
      <point x="37" y="647"/>
      <point x="37" y="405" type="curve" smooth="yes"/>
      <point x="37" y="106"/>
      <point x="187" y="-14"/>
      <point x="332" y="-14" type="curve" smooth="yes"/>
      <point x="532" y="-14"/>
      <point x="610" y="135"/>
    </contour>
  </outline>
</glyph>
<glyph name="D" format="1">
  <advance width="698"/>
  <unicode hex="0044"/>
  <outline>
    <contour>
      <point x="63" y="818" type="curve" smooth="yes"/>
      <point x="48" y="817"/>
      <point x="42" y="805"/>
      <point x="42" y="794" type="curve" smooth="yes"/>
      <point x="42" y="781"/>
      <point x="49" y="769"/>
      <point x="65" y="769" type="curve" smooth="yes"/>
      <point x="101" y="769"/>
      <point x="133" y="767"/>
      <point x="133" y="727" type="curve" smooth="yes"/>
      <point x="133" y="665"/>
      <point x="140" y="486"/>
      <point x="140" y="437" type="curve" smooth="yes"/>
      <point x="140" y="255"/>
      <point x="139" y="218"/>
      <point x="139" y="72" type="curve" smooth="yes"/>
      <point x="139" y="48"/>
      <point x="93" y="48"/>
      <point x="70" y="48" type="curve" smooth="yes"/>
      <point x="47" y="48"/>
      <point x="39" y="41"/>
      <point x="39" y="24" type="curve" smooth="yes"/>
      <point x="39" y="7"/>
      <point x="53" y="0"/>
      <point x="75" y="0" type="curve" smooth="yes"/>
      <point x="269" y="0" type="line" smooth="yes"/>
      <point x="531" y="0"/>
      <point x="662" y="199"/>
      <point x="662" y="439" type="curve" smooth="yes"/>
      <point x="662" y="723"/>
      <point x="448" y="821"/>
      <point x="279" y="821" type="curve" smooth="yes"/>
      <point x="198" y="821"/>
      <point x="129" y="820"/>
    </contour>
    <contour>
      <point x="273" y="756" type="curve" smooth="yes" name="hr01"/>
      <point x="491" y="756"/>
      <point x="587" y="613"/>
      <point x="587" y="439" type="curve" smooth="yes"/>
      <point x="587" y="226"/>
      <point x="493" y="64"/>
      <point x="273" y="64" type="curve" smooth="yes"/>
      <point x="249" y="64"/>
      <point x="211" y="64"/>
      <point x="211" y="74" type="curve" smooth="yes"/>
      <point x="211" y="752" type="line"/>
      <point x="231" y="753"/>
      <point x="253" y="756"/>
    </contour>
  </outline>
</glyph>
<glyph name="E" format="1">
  <advance width="667"/>
  <unicode hex="0045"/>
  <outline>
    <contour>
      <point x="602" y="315" type="curve" smooth="yes"/>
      <point x="585" y="315"/>
      <point x="567" y="306"/>
      <point x="566" y="278" type="curve" smooth="yes"/>
      <point x="564" y="231"/>
      <point x="556" y="134"/>
      <point x="553" y="103" type="curve" smooth="yes"/>
      <point x="550" y="69"/>
      <point x="530" y="66"/>
      <point x="510" y="66" type="curve" smooth="yes"/>
      <point x="211" y="66" type="line"/>
      <point x="211" y="386" type="line"/>
      <point x="249" y="387"/>
      <point x="272" y="388"/>
      <point x="310" y="388" type="curve" smooth="yes"/>
      <point x="341" y="388"/>
      <point x="360" y="387"/>
      <point x="374" y="387" type="curve" smooth="yes"/>
      <point x="413" y="387"/>
      <point x="422" y="336"/>
      <point x="422" y="306" type="curve" smooth="yes"/>
      <point x="422" y="289"/>
      <point x="428" y="277"/>
      <point x="453" y="277" type="curve" smooth="yes" name="hr01"/>
      <point x="470" y="277"/>
      <point x="484" y="281"/>
      <point x="484" y="304" type="curve" smooth="yes"/>
      <point x="484" y="341"/>
      <point x="482" y="382"/>
      <point x="482" y="420" type="curve" smooth="yes"/>
      <point x="482" y="458"/>
      <point x="484" y="497"/>
      <point x="484" y="535" type="curve" smooth="yes"/>
      <point x="484" y="557"/>
      <point x="471" y="566"/>
      <point x="452" y="566" type="curve" smooth="yes" name="hr02"/>
      <point x="428" y="566"/>
      <point x="420" y="546"/>
      <point x="420" y="532" type="curve" smooth="yes"/>
      <point x="420" y="511"/>
      <point x="420" y="455"/>
      <point x="403" y="455" type="curve" smooth="yes"/>
      <point x="392" y="455"/>
      <point x="342" y="452"/>
      <point x="310" y="452" type="curve" smooth="yes" name="hr03"/>
      <point x="271" y="452"/>
      <point x="249" y="454"/>
      <point x="211" y="455" type="curve"/>
      <point x="211" y="755" type="line"/>
      <point x="484" y="755" type="line" smooth="yes"/>
      <point x="497" y="755"/>
      <point x="521" y="755"/>
      <point x="521" y="727" type="curve" smooth="yes"/>
      <point x="521" y="640" type="line" smooth="yes"/>
      <point x="521" y="622"/>
      <point x="528" y="600"/>
      <point x="557" y="600" type="curve" smooth="yes" name="hr04"/>
      <point x="580" y="600"/>
      <point x="588" y="614"/>
      <point x="588" y="646" type="curve" smooth="yes"/>
      <point x="588" y="785" type="line" smooth="yes"/>
      <point x="588" y="813"/>
      <point x="578" y="821"/>
      <point x="560" y="821" type="curve" smooth="yes"/>
      <point x="442" y="821"/>
      <point x="432" y="819"/>
      <point x="333" y="819" type="curve" smooth="yes"/>
      <point x="283" y="819"/>
      <point x="171" y="821"/>
      <point x="82" y="821" type="curve" smooth="yes"/>
      <point x="62" y="821"/>
      <point x="41" y="818"/>
      <point x="41" y="794" type="curve" smooth="yes"/>
      <point x="41" y="777"/>
      <point x="58" y="769"/>
      <point x="81" y="769" type="curve" smooth="yes" name="hr05"/>
      <point x="97" y="769"/>
      <point x="134" y="769"/>
      <point x="134" y="730" type="curve" smooth="yes"/>
      <point x="134" y="645"/>
      <point x="140" y="566"/>
      <point x="140" y="425" type="curve" smooth="yes"/>
      <point x="140" y="235"/>
      <point x="138" y="217"/>
      <point x="138" y="84" type="curve" smooth="yes"/>
      <point x="138" y="56"/>
      <point x="116" y="48"/>
      <point x="77" y="48" type="curve" smooth="yes"/>
      <point x="51" y="48"/>
      <point x="38" y="42"/>
      <point x="38" y="21" type="curve" smooth="yes"/>
      <point x="38" y="3"/>
      <point x="61" y="0"/>
      <point x="84" y="0" type="curve" smooth="yes"/>
      <point x="165" y="0"/>
      <point x="256" y="2"/>
      <point x="337" y="2" type="curve" smooth="yes"/>
      <point x="418" y="2"/>
      <point x="493" y="0"/>
      <point x="574" y="0" type="curve" smooth="yes"/>
      <point x="601" y="0"/>
      <point x="613" y="0"/>
      <point x="616" y="33" type="curve" smooth="yes"/>
      <point x="623" y="114"/>
      <point x="632" y="259"/>
      <point x="632" y="282" type="curve" smooth="yes"/>
      <point x="632" y="302"/>
      <point x="620" y="315"/>
    </contour>
  </outline>
</glyph>
<glyph name="F" format="1">
  <advance width="595"/>
  <unicode hex="0046"/>
  <outline>
    <contour>
      <point x="137" y="92" type="curve" smooth="yes"/>
      <point x="136" y="51"/>
      <point x="104" y="48"/>
      <point x="66" y="48" type="curve" smooth="yes"/>
      <point x="49" y="48"/>
      <point x="38" y="44"/>
      <point x="38" y="23" type="curve" smooth="yes"/>
      <point x="38" y="0"/>
      <point x="64" y="0"/>
      <point x="81" y="0" type="curve" smooth="yes"/>
      <point x="346" y="0" type="line" smooth="yes"/>
      <point x="361" y="0"/>
      <point x="376" y="5"/>
      <point x="376" y="26" type="curve" smooth="yes" name="hr01"/>
      <point x="376" y="60"/>
      <point x="355" y="60"/>
      <point x="340" y="60" type="curve" smooth="yes"/>
      <point x="213" y="60" type="line"/>
      <point x="213" y="72"/>
      <point x="210" y="160"/>
      <point x="210" y="205" type="curve" smooth="yes" name="hr02"/>
      <point x="210" y="255"/>
      <point x="211" y="336"/>
      <point x="211" y="386" type="curve"/>
      <point x="249" y="388"/>
      <point x="273" y="389"/>
      <point x="311" y="389" type="curve" smooth="yes"/>
      <point x="333" y="389"/>
      <point x="356" y="388"/>
      <point x="378" y="387" type="curve" smooth="yes"/>
      <point x="394" y="386"/>
      <point x="422" y="365"/>
      <point x="422" y="299" type="curve" smooth="yes"/>
      <point x="422" y="281"/>
      <point x="436" y="271"/>
      <point x="454" y="271" type="curve" smooth="yes" name="hr03"/>
      <point x="474" y="271"/>
      <point x="484" y="281"/>
      <point x="484" y="309" type="curve" smooth="yes"/>
      <point x="484" y="341"/>
      <point x="482" y="382"/>
      <point x="482" y="415" type="curve" smooth="yes"/>
      <point x="482" y="448"/>
      <point x="484" y="484"/>
      <point x="484" y="517" type="curve" smooth="yes"/>
      <point x="484" y="538"/>
      <point x="484" y="564"/>
      <point x="454" y="564" type="curve" smooth="yes" name="hr04"/>
      <point x="420" y="564"/>
      <point x="420" y="543"/>
      <point x="420" y="517" type="curve" smooth="yes"/>
      <point x="420" y="507"/>
      <point x="420" y="455"/>
      <point x="406" y="455" type="curve" smooth="yes" name="hr05"/>
      <point x="397" y="455"/>
      <point x="340" y="453"/>
      <point x="308" y="453" type="curve" smooth="yes"/>
      <point x="271" y="453"/>
      <point x="250" y="453"/>
      <point x="211" y="455" type="curve"/>
      <point x="211" y="755" type="line"/>
      <point x="482" y="755" type="line" smooth="yes"/>
      <point x="509" y="755"/>
      <point x="521" y="751"/>
      <point x="521" y="714" type="curve" smooth="yes"/>
      <point x="521" y="647" type="line" smooth="yes"/>
      <point x="521" y="623"/>
      <point x="526" y="600"/>
      <point x="554" y="600" type="curve" smooth="yes" name="hr06"/>
      <point x="581" y="600"/>
      <point x="588" y="614"/>
      <point x="588" y="647" type="curve" smooth="yes"/>
      <point x="588" y="773" type="line" smooth="yes"/>
      <point x="588" y="808"/>
      <point x="582" y="821"/>
      <point x="554" y="821" type="curve" smooth="yes"/>
      <point x="484" y="821"/>
      <point x="414" y="819"/>
      <point x="344" y="819" type="curve" smooth="yes"/>
      <point x="259" y="819"/>
      <point x="164" y="821"/>
      <point x="79" y="821" type="curve" smooth="yes"/>
      <point x="50" y="821"/>
      <point x="41" y="810"/>
      <point x="41" y="796" type="curve" smooth="yes"/>
      <point x="41" y="786"/>
      <point x="47" y="771"/>
      <point x="63" y="771" type="curve" smooth="yes" name="hr07"/>
      <point x="112" y="771"/>
      <point x="135" y="759"/>
      <point x="135" y="732" type="curve" smooth="yes"/>
      <point x="135" y="640"/>
      <point x="141" y="581"/>
      <point x="141" y="489" type="curve" smooth="yes"/>
      <point x="141" y="357"/>
      <point x="140" y="224"/>
    </contour>
  </outline>
</glyph>
<glyph name="G" format="1">
  <advance width="656"/>
  <unicode hex="0047"/>
  <outline>
    <contour>
      <point x="512" y="254" type="curve" smooth="yes"/>
      <point x="537" y="254"/>
      <point x="537" y="248"/>
      <point x="537" y="225" type="curve" smooth="yes"/>
      <point x="537" y="130"/>
      <point x="444" y="49"/>
      <point x="345" y="49" type="curve" smooth="yes"/>
      <point x="175" y="49"/>
      <point x="112" y="230"/>
      <point x="112" y="404" type="curve" smooth="yes"/>
      <point x="112" y="609"/>
      <point x="216" y="777"/>
      <point x="341" y="777" type="curve" smooth="yes"/>
      <point x="475" y="777"/>
      <point x="525" y="664"/>
      <point x="525" y="517" type="curve" smooth="yes" name="hr01"/>
      <point x="525" y="485"/>
      <point x="539" y="464"/>
      <point x="561" y="464" type="curve" smooth="yes"/>
      <point x="586" y="464"/>
      <point x="595" y="486"/>
      <point x="595" y="520" type="curve" smooth="yes"/>
      <point x="595" y="554"/>
      <point x="593" y="614"/>
      <point x="593" y="648" type="curve" smooth="yes"/>
      <point x="593" y="702"/>
      <point x="597" y="733"/>
      <point x="597" y="788" type="curve" smooth="yes"/>
      <point x="597" y="804"/>
      <point x="584" y="821"/>
      <point x="560" y="821" type="curve" smooth="yes"/>
      <point x="540" y="821"/>
      <point x="528" y="806"/>
      <point x="528" y="789" type="curve"/>
      <point x="533" y="702" type="line"/>
      <point x="496" y="799"/>
      <point x="422" y="838"/>
      <point x="350" y="838" type="curve" smooth="yes" name="hr02"/>
      <point x="165" y="838"/>
      <point x="37" y="637"/>
      <point x="37" y="404" type="curve" smooth="yes"/>
      <point x="37" y="94"/>
      <point x="194" y="-14"/>
      <point x="336" y="-14" type="curve" smooth="yes"/>
      <point x="415" y="-14"/>
      <point x="500" y="21"/>
      <point x="544" y="103" type="curve"/>
      <point x="544" y="93"/>
      <point x="542" y="61"/>
      <point x="542" y="36" type="curve" smooth="yes"/>
      <point x="542" y="13"/>
      <point x="556" y="2"/>
      <point x="574" y="2" type="curve" smooth="yes" name="hr03"/>
      <point x="590" y="2"/>
      <point x="605" y="14"/>
      <point x="605" y="35" type="curve" smooth="yes"/>
      <point x="605" y="61"/>
      <point x="603" y="100"/>
      <point x="603" y="164" type="curve" smooth="yes"/>
      <point x="603" y="212"/>
      <point x="605" y="250"/>
      <point x="605" y="273" type="curve" smooth="yes"/>
      <point x="605" y="308"/>
      <point x="577" y="321"/>
      <point x="545" y="321" type="curve"/>
      <point x="473" y="320"/>
      <point x="392" y="310"/>
      <point x="310" y="310" type="curve" smooth="yes"/>
      <point x="289" y="310"/>
      <point x="259" y="302"/>
      <point x="259" y="275" type="curve" smooth="yes"/>
      <point x="259" y="261"/>
      <point x="273" y="247"/>
      <point x="301" y="247" type="curve" smooth="yes"/>
      <point x="373" y="247"/>
      <point x="446" y="254"/>
    </contour>
  </outline>
</glyph>
<glyph name="H" format="1">
  <advance width="807"/>
  <unicode hex="0048"/>
  <outline>
    <contour>
      <point x="657" y="732" type="curve" smooth="yes"/>
      <point x="657" y="757"/>
      <point x="726" y="757"/>
      <point x="738" y="757" type="curve" smooth="yes"/>
      <point x="754" y="757"/>
      <point x="780" y="759"/>
      <point x="780" y="782" type="curve" smooth="yes"/>
      <point x="780" y="802"/>
      <point x="766" y="807"/>
      <point x="724" y="807" type="curve" smooth="yes"/>
      <point x="532" y="807" type="line" smooth="yes"/>
      <point x="520" y="807"/>
      <point x="495" y="802"/>
      <point x="495" y="782" type="curve" smooth="yes" name="hr01"/>
      <point x="495" y="763"/>
      <point x="518" y="757"/>
      <point x="532" y="757" type="curve" smooth="yes"/>
      <point x="552" y="757"/>
      <point x="582" y="757"/>
      <point x="582" y="734" type="curve" smooth="yes"/>
      <point x="582" y="454" type="line"/>
      <point x="585" y="453"/>
      <point x="473" y="452"/>
      <point x="415" y="452" type="curve" smooth="yes"/>
      <point x="347" y="452"/>
      <point x="279" y="452"/>
      <point x="211" y="454" type="curve"/>
      <point x="211" y="746" type="line" smooth="yes"/>
      <point x="211" y="771"/>
      <point x="270" y="771"/>
      <point x="282" y="771" type="curve" smooth="yes" name="hr02"/>
      <point x="298" y="771"/>
      <point x="324" y="775"/>
      <point x="324" y="796" type="curve" smooth="yes"/>
      <point x="324" y="815"/>
      <point x="310" y="821"/>
      <point x="268" y="821" type="curve" smooth="yes"/>
      <point x="76" y="821" type="line" smooth="yes"/>
      <point x="64" y="821"/>
      <point x="39" y="820"/>
      <point x="39" y="796" type="curve" smooth="yes" name="hr03"/>
      <point x="39" y="776"/>
      <point x="62" y="771"/>
      <point x="76" y="771" type="curve" smooth="yes"/>
      <point x="96" y="771"/>
      <point x="136" y="771"/>
      <point x="136" y="748" type="curve" smooth="yes"/>
      <point x="136" y="639"/>
      <point x="140" y="510"/>
      <point x="140" y="401" type="curve" smooth="yes" name="hr04"/>
      <point x="140" y="292"/>
      <point x="136" y="196"/>
      <point x="136" y="94" type="curve" smooth="yes"/>
      <point x="136" y="48"/>
      <point x="103" y="48"/>
      <point x="83" y="48" type="curve" smooth="yes"/>
      <point x="71" y="48"/>
      <point x="54" y="45"/>
      <point x="54" y="27" type="curve" smooth="yes" name="hr05"/>
      <point x="54" y="4"/>
      <point x="77" y="0"/>
      <point x="95" y="0" type="curve" smooth="yes"/>
      <point x="317" y="0" type="line" smooth="yes"/>
      <point x="330" y="0"/>
      <point x="342" y="5"/>
      <point x="342" y="27" type="curve" smooth="yes" name="hr06"/>
      <point x="342" y="40"/>
      <point x="332" y="51"/>
      <point x="307" y="51" type="curve" smooth="yes"/>
      <point x="211" y="51" type="line" name="hr07"/>
      <point x="211" y="386" type="line"/>
      <point x="279" y="387"/>
      <point x="347" y="388"/>
      <point x="415" y="388" type="curve" smooth="yes"/>
      <point x="473" y="388"/>
      <point x="585" y="386"/>
      <point x="585" y="386" type="curve"/>
      <point x="585" y="39" type="line" smooth="yes"/>
      <point x="585" y="-7"/>
      <point x="559" y="-7"/>
      <point x="541" y="-7" type="curve" smooth="yes" name="hr08"/>
      <point x="529" y="-7"/>
      <point x="512" y="-12"/>
      <point x="512" y="-32" type="curve" smooth="yes"/>
      <point x="512" y="-53"/>
      <point x="535" y="-55"/>
      <point x="553" y="-55" type="curve" smooth="yes" name="hr09"/>
      <point x="771" y="-55" type="line" smooth="yes"/>
      <point x="784" y="-55"/>
      <point x="796" y="-50"/>
      <point x="796" y="-32" type="curve" smooth="yes"/>
      <point x="796" y="-9"/>
      <point x="776" y="-4"/>
      <point x="761" y="-4" type="curve" smooth="yes"/>
      <point x="665" y="-4" type="line"/>
      <point x="665" y="24"/>
      <point x="655" y="221"/>
      <point x="655" y="401" type="curve" smooth="yes" name="hr10"/>
      <point x="655" y="473"/>
      <point x="657" y="681"/>
    </contour>
  </outline>
</glyph>
<glyph name="I" format="1">
  <advance width="354"/>
  <unicode hex="0049"/>
  <outline>
    <contour>
      <point x="214" y="746" type="line" smooth="yes"/>
      <point x="214" y="771"/>
      <point x="270" y="771"/>
      <point x="280" y="771" type="curve" smooth="yes"/>
      <point x="296" y="771"/>
      <point x="317" y="778"/>
      <point x="317" y="796" type="curve" smooth="yes" name="hr01"/>
      <point x="317" y="813"/>
      <point x="308" y="821"/>
      <point x="266" y="821" type="curve" smooth="yes"/>
      <point x="64" y="821" type="line" smooth="yes"/>
      <point x="52" y="821"/>
      <point x="27" y="819"/>
      <point x="27" y="796" type="curve" smooth="yes" name="hr02"/>
      <point x="27" y="774"/>
      <point x="50" y="771"/>
      <point x="64" y="771" type="curve" smooth="yes"/>
      <point x="87" y="771"/>
      <point x="139" y="771"/>
      <point x="139" y="748" type="curve" smooth="yes"/>
      <point x="139" y="638"/>
      <point x="143" y="511"/>
      <point x="143" y="401" type="curve" smooth="yes" name="hr03"/>
      <point x="143" y="292"/>
      <point x="139" y="196"/>
      <point x="139" y="94" type="curve" smooth="yes"/>
      <point x="139" y="48"/>
      <point x="92" y="48"/>
      <point x="71" y="48" type="curve" smooth="yes"/>
      <point x="59" y="48"/>
      <point x="42" y="42"/>
      <point x="42" y="23" type="curve" smooth="yes" name="hr04"/>
      <point x="42" y="3"/>
      <point x="63" y="0"/>
      <point x="83" y="0" type="curve" smooth="yes"/>
      <point x="315" y="0" type="line" smooth="yes"/>
      <point x="332" y="0"/>
      <point x="335" y="15"/>
      <point x="335" y="23" type="curve" smooth="yes"/>
      <point x="335" y="41"/>
      <point x="320" y="51"/>
      <point x="305" y="51" type="curve" smooth="yes"/>
      <point x="214" y="51" type="line"/>
    </contour>
  </outline>
</glyph>
<glyph name="J" format="1">
  <advance width="523"/>
  <unicode hex="004A"/>
  <outline>
    <contour>
      <point x="57" y="135" type="curve" smooth="yes"/>
      <point x="57" y="155"/>
      <point x="63" y="176"/>
      <point x="74" y="182" type="curve"/>
      <point x="83" y="174"/>
      <point x="94" y="170"/>
      <point x="107" y="170" type="curve" smooth="yes"/>
      <point x="132" y="170"/>
      <point x="143" y="192"/>
      <point x="143" y="216" type="curve" smooth="yes" name="hr01"/>
      <point x="143" y="251"/>
      <point x="111" y="264"/>
      <point x="89" y="264" type="curve" smooth="yes"/>
      <point x="35" y="264"/>
      <point x="-4" y="212"/>
      <point x="-4" y="137" type="curve" smooth="yes"/>
      <point x="-4" y="50"/>
      <point x="71" y="-14"/>
      <point x="167" y="-14" type="curve" smooth="yes"/>
      <point x="333" y="-14"/>
      <point x="409" y="84"/>
      <point x="409" y="279" type="curve" smooth="yes"/>
      <point x="409" y="746" type="line" smooth="yes"/>
      <point x="409" y="771"/>
      <point x="453" y="771"/>
      <point x="460" y="771" type="curve" smooth="yes"/>
      <point x="476" y="771"/>
      <point x="497" y="777"/>
      <point x="497" y="796" type="curve" smooth="yes" name="hr02"/>
      <point x="497" y="813"/>
      <point x="488" y="821"/>
      <point x="446" y="821" type="curve" smooth="yes"/>
      <point x="249" y="821" type="line" smooth="yes"/>
      <point x="237" y="821"/>
      <point x="212" y="819"/>
      <point x="212" y="796" type="curve" smooth="yes" name="hr03"/>
      <point x="212" y="777"/>
      <point x="235" y="771"/>
      <point x="249" y="771" type="curve" smooth="yes"/>
      <point x="277" y="771"/>
      <point x="334" y="771"/>
      <point x="334" y="748" type="curve" smooth="yes"/>
      <point x="334" y="721"/>
      <point x="337" y="521"/>
      <point x="337" y="379" type="curve" smooth="yes" name="hr04"/>
      <point x="337" y="207"/>
      <point x="334" y="50"/>
      <point x="172" y="50" type="curve" smooth="yes"/>
      <point x="118" y="50"/>
      <point x="57" y="79"/>
    </contour>
  </outline>
</glyph>
<glyph name="K" format="1">
  <advance width="747"/>
  <unicode hex="004B"/>
  <outline>
    <contour>
      <point x="210" y="746" type="line" smooth="yes"/>
      <point x="210" y="771"/>
      <point x="269" y="771"/>
      <point x="281" y="771" type="curve" smooth="yes"/>
      <point x="297" y="771"/>
      <point x="323" y="774"/>
      <point x="323" y="796" type="curve" smooth="yes" name="hr01"/>
      <point x="323" y="816"/>
      <point x="309" y="821"/>
      <point x="267" y="821" type="curve" smooth="yes"/>
      <point x="79" y="821" type="line" smooth="yes"/>
      <point x="67" y="821"/>
      <point x="38" y="820"/>
      <point x="38" y="796" type="curve" smooth="yes" name="hr02"/>
      <point x="38" y="777"/>
      <point x="65" y="771"/>
      <point x="79" y="771" type="curve" smooth="yes"/>
      <point x="96" y="771"/>
      <point x="135" y="771"/>
      <point x="135" y="748" type="curve" smooth="yes"/>
      <point x="135" y="638"/>
      <point x="139" y="511"/>
      <point x="139" y="401" type="curve" smooth="yes" name="hr03"/>
      <point x="139" y="292"/>
      <point x="135" y="196"/>
      <point x="135" y="94" type="curve" smooth="yes"/>
      <point x="135" y="48"/>
      <point x="103" y="48"/>
      <point x="87" y="48" type="curve" smooth="yes"/>
      <point x="75" y="48"/>
      <point x="53" y="45"/>
      <point x="53" y="23" type="curve" smooth="yes" name="hr04"/>
      <point x="53" y="0"/>
      <point x="81" y="0"/>
      <point x="99" y="0" type="curve" smooth="yes"/>
      <point x="316" y="0" type="line" smooth="yes"/>
      <point x="329" y="0"/>
      <point x="341" y="8"/>
      <point x="341" y="27" type="curve" smooth="yes" name="hr05"/>
      <point x="341" y="44"/>
      <point x="321" y="50"/>
      <point x="306" y="50" type="curve" smooth="yes"/>
      <point x="210" y="50" type="line" name="hr06"/>
      <point x="210" y="335" type="line"/>
      <point x="228" y="353" type="line"/>
      <point x="332" y="220"/>
      <point x="511" y="-36"/>
      <point x="547" y="-36" type="curve" smooth="yes" name="hr07"/>
      <point x="720" y="-36"/>
      <point x="749" y="-27"/>
      <point x="749" y="-2" type="curve" smooth="yes"/>
      <point x="749" y="15"/>
      <point x="717" y="16"/>
      <point x="686" y="16" type="curve" smooth="yes"/>
      <point x="631" y="16"/>
      <point x="577" y="17"/>
      <point x="567" y="28" type="curve" smooth="yes"/>
      <point x="465" y="141"/>
      <point x="275" y="395"/>
      <point x="275" y="395" type="curve"/>
      <point x="381" y="511"/>
      <point x="504" y="637"/>
      <point x="600" y="729" type="curve" smooth="yes"/>
      <point x="621" y="749"/>
      <point x="691" y="748"/>
      <point x="739" y="750" type="curve"/>
      <point x="752" y="750"/>
      <point x="759" y="762"/>
      <point x="759" y="771" type="curve" smooth="yes" name="hr08"/>
      <point x="759" y="787"/>
      <point x="748" y="795"/>
      <point x="736" y="795" type="curve" smooth="yes" name="hr09"/>
      <point x="468" y="795" type="line" smooth="yes"/>
      <point x="442" y="795"/>
      <point x="434" y="783"/>
      <point x="434" y="770" type="curve" smooth="yes"/>
      <point x="434" y="752"/>
      <point x="455" y="746"/>
      <point x="468" y="746" type="curve"/>
      <point x="485" y="745"/>
      <point x="500" y="748"/>
      <point x="500" y="730" type="curve" smooth="yes"/>
      <point x="500" y="712"/>
      <point x="291" y="497"/>
      <point x="210" y="421" type="curve"/>
    </contour>
  </outline>
</glyph>
<glyph name="L" format="1">
  <advance width="565"/>
  <unicode hex="004C"/>
  <outline>
    <contour>
      <point x="67" y="48" type="curve" smooth="yes"/>
      <point x="45" y="48"/>
      <point x="32" y="44"/>
      <point x="32" y="24" type="curve" smooth="yes"/>
      <point x="32" y="17"/>
      <point x="34" y="0"/>
      <point x="56" y="0" type="curve" smooth="yes"/>
      <point x="494" y="0" type="line" smooth="yes"/>
      <point x="514" y="0"/>
      <point x="525" y="7"/>
      <point x="527" y="29" type="curve" smooth="yes"/>
      <point x="532" y="99"/>
      <point x="543" y="235"/>
      <point x="543" y="284" type="curve" smooth="yes"/>
      <point x="543" y="302"/>
      <point x="527" y="309"/>
      <point x="509" y="309" type="curve" smooth="yes"/>
      <point x="480" y="309"/>
      <point x="476" y="289"/>
      <point x="476" y="259" type="curve" smooth="yes"/>
      <point x="476" y="237"/>
      <point x="465" y="110"/>
      <point x="463" y="97" type="curve" smooth="yes"/>
      <point x="459" y="74"/>
      <point x="443" y="66"/>
      <point x="423" y="66" type="curve" name="hr01"/>
      <point x="212" y="66" type="line"/>
      <point x="212" y="746" type="line" smooth="yes"/>
      <point x="212" y="771"/>
      <point x="277" y="771"/>
      <point x="289" y="771" type="curve" smooth="yes"/>
      <point x="305" y="771"/>
      <point x="326" y="775"/>
      <point x="326" y="796" type="curve" smooth="yes" name="hr02"/>
      <point x="326" y="814"/>
      <point x="317" y="821"/>
      <point x="275" y="821" type="curve" smooth="yes"/>
      <point x="73" y="821" type="line" smooth="yes"/>
      <point x="61" y="821"/>
      <point x="36" y="819"/>
      <point x="36" y="796" type="curve" smooth="yes"/>
      <point x="36" y="773"/>
      <point x="59" y="771"/>
      <point x="73" y="771" type="curve" smooth="yes"/>
      <point x="91" y="771"/>
      <point x="135" y="769"/>
      <point x="135" y="734" type="curve" smooth="yes"/>
      <point x="135" y="658"/>
      <point x="141" y="584"/>
      <point x="141" y="416" type="curve" smooth="yes"/>
      <point x="141" y="297"/>
      <point x="139" y="109"/>
      <point x="139" y="78" type="curve" smooth="yes"/>
      <point x="139" y="48"/>
      <point x="96" y="48"/>
    </contour>
  </outline>
</glyph>
<glyph name="M" format="1">
  <advance width="1033"/>
  <unicode hex="004D"/>
  <outline>
    <contour>
      <point x="998" y="733" type="curve"/>
      <point x="1018" y="738"/>
      <point x="1036" y="735"/>
      <point x="1036" y="758" type="curve" smooth="yes"/>
      <point x="1036" y="781"/>
      <point x="1012" y="781"/>
      <point x="991" y="781" type="curve" smooth="yes"/>
      <point x="843" y="781" type="line" smooth="yes"/>
      <point x="769" y="781"/>
      <point x="777" y="776"/>
      <point x="757" y="739" type="curve"/>
      <point x="704" y="595"/>
      <point x="575" y="222"/>
      <point x="518" y="74" type="curve"/>
      <point x="470" y="223"/>
      <point x="286" y="640"/>
      <point x="251" y="761" type="curve" smooth="yes"/>
      <point x="240" y="797"/>
      <point x="233" y="801"/>
      <point x="214" y="801" type="curve" smooth="yes"/>
      <point x="89" y="801" type="line" smooth="yes"/>
      <point x="50" y="801"/>
      <point x="31" y="798"/>
      <point x="31" y="775" type="curve" smooth="yes"/>
      <point x="31" y="733"/>
      <point x="137" y="772"/>
      <point x="137" y="712" type="curve" smooth="yes"/>
      <point x="137" y="604"/>
      <point x="140" y="497"/>
      <point x="140" y="383" type="curve" smooth="yes"/>
      <point x="140" y="283"/>
      <point x="138" y="184"/>
      <point x="131" y="94" type="curve"/>
      <point x="131" y="48"/>
      <point x="98" y="48"/>
      <point x="83" y="48" type="curve" smooth="yes"/>
      <point x="71" y="48"/>
      <point x="54" y="46"/>
      <point x="54" y="23" type="curve" smooth="yes" name="hr01"/>
      <point x="54" y="3"/>
      <point x="77" y="0"/>
      <point x="95" y="0" type="curve" smooth="yes"/>
      <point x="321" y="0" type="line" smooth="yes"/>
      <point x="334" y="0"/>
      <point x="341" y="11"/>
      <point x="341" y="23" type="curve" smooth="yes" name="hr02"/>
      <point x="341" y="46"/>
      <point x="326" y="51"/>
      <point x="311" y="51" type="curve" smooth="yes"/>
      <point x="211" y="51" type="line" name="hr03"/>
      <point x="211" y="650" type="line"/>
      <point x="255" y="526"/>
      <point x="413" y="169"/>
      <point x="468" y="16" type="curve" smooth="yes"/>
      <point x="473" y="2"/>
      <point x="487" y="-28"/>
      <point x="515" y="-28" type="curve" smooth="yes"/>
      <point x="535" y="-28"/>
      <point x="547" y="-16"/>
      <point x="555" y="7" type="curve" smooth="yes"/>
      <point x="583" y="87"/>
      <point x="687" y="364"/>
      <point x="782" y="632" type="curve"/>
      <point x="782" y="53" type="line" smooth="yes"/>
      <point x="782" y="7"/>
      <point x="757" y="7"/>
      <point x="743" y="7" type="curve" smooth="yes"/>
      <point x="731" y="7"/>
      <point x="714" y="5"/>
      <point x="714" y="-15" type="curve" smooth="yes" name="hr04"/>
      <point x="714" y="-37"/>
      <point x="737" y="-41"/>
      <point x="755" y="-41" type="curve" smooth="yes"/>
      <point x="980" y="-41" type="line" smooth="yes"/>
      <point x="993" y="-41"/>
      <point x="1000" y="-31"/>
      <point x="1000" y="-15" type="curve" smooth="yes" name="hr05"/>
      <point x="1000" y="5"/>
      <point x="985" y="10"/>
      <point x="970" y="10" type="curve" smooth="yes"/>
      <point x="858" y="10" type="line"/>
      <point x="858" y="66"/>
      <point x="853" y="266"/>
      <point x="853" y="380" type="curve" smooth="yes" name="hr06"/>
      <point x="853" y="527"/>
      <point x="857" y="621"/>
      <point x="857" y="678" type="curve" smooth="yes"/>
      <point x="857" y="699"/>
      <point x="859" y="722"/>
      <point x="888" y="725" type="curve" smooth="yes"/>
      <point x="929" y="729"/>
      <point x="957" y="729"/>
    </contour>
  </outline>
</glyph>
<glyph name="N" format="1">
  <advance width="824"/>
  <unicode hex="004E"/>
  <outline>
    <contour>
      <point x="607" y="6" type="line" smooth="yes"/>
      <point x="614" y="-6"/>
      <point x="630" y="-11"/>
      <point x="648" y="-11" type="curve" smooth="yes"/>
      <point x="669" y="-11"/>
      <point x="683" y="2"/>
      <point x="683" y="21" type="curve" smooth="yes"/>
      <point x="683" y="115"/>
      <point x="681" y="281"/>
      <point x="681" y="368" type="curve" smooth="yes"/>
      <point x="681" y="522"/>
      <point x="683" y="583"/>
      <point x="685" y="729" type="curve"/>
      <point x="685" y="754"/>
      <point x="764" y="754"/>
      <point x="776" y="754" type="curve" smooth="yes"/>
      <point x="792" y="754"/>
      <point x="813" y="759"/>
      <point x="813" y="781" type="curve" smooth="yes" name="hr01"/>
      <point x="813" y="798"/>
      <point x="804" y="804"/>
      <point x="762" y="804" type="curve" smooth="yes"/>
      <point x="556" y="804" type="line" smooth="yes"/>
      <point x="532" y="804"/>
      <point x="519" y="798"/>
      <point x="519" y="781" type="curve" smooth="yes" name="hr02"/>
      <point x="519" y="759"/>
      <point x="542" y="754"/>
      <point x="556" y="754" type="curve" smooth="yes"/>
      <point x="573" y="754"/>
      <point x="611" y="754"/>
      <point x="611" y="731" type="curve" name="hr03"/>
      <point x="611" y="132" type="line"/>
      <point x="577" y="211"/>
      <point x="333" y="663"/>
      <point x="269" y="781" type="curve" smooth="yes"/>
      <point x="251" y="814"/>
      <point x="245" y="821"/>
      <point x="229" y="821" type="curve" smooth="yes"/>
      <point x="91" y="821" type="line" smooth="yes"/>
      <point x="54" y="821"/>
      <point x="33" y="816"/>
      <point x="33" y="804" type="curve" smooth="yes" name="hr04"/>
      <point x="33" y="752"/>
      <point x="139" y="778"/>
      <point x="139" y="738" type="curve" smooth="yes"/>
      <point x="139" y="630"/>
      <point x="142" y="502"/>
      <point x="142" y="388" type="curve" smooth="yes" name="hr05"/>
      <point x="142" y="288"/>
      <point x="136" y="184"/>
      <point x="133" y="94" type="curve" smooth="yes"/>
      <point x="131" y="48"/>
      <point x="100" y="48"/>
      <point x="85" y="48" type="curve" smooth="yes"/>
      <point x="73" y="48"/>
      <point x="56" y="42"/>
      <point x="56" y="25" type="curve" smooth="yes" name="hr06"/>
      <point x="56" y="4"/>
      <point x="79" y="0"/>
      <point x="97" y="0" type="curve" smooth="yes"/>
      <point x="323" y="0" type="line" smooth="yes"/>
      <point x="336" y="0"/>
      <point x="343" y="7"/>
      <point x="343" y="25" type="curve" smooth="yes" name="hr07"/>
      <point x="343" y="45"/>
      <point x="328" y="51"/>
      <point x="313" y="51" type="curve" smooth="yes"/>
      <point x="213" y="51" type="line" name="hr08"/>
      <point x="213" y="708" type="line"/>
    </contour>
  </outline>
</glyph>
<glyph name="O" format="1">
  <advance width="709"/>
  <unicode hex="004F"/>
  <outline>
    <contour>
      <point x="112" y="400" type="curve" smooth="yes"/>
      <point x="112" y="578"/>
      <point x="200" y="777"/>
      <point x="373" y="777" type="curve" smooth="yes"/>
      <point x="511" y="777"/>
      <point x="596" y="614"/>
      <point x="596" y="410" type="curve" smooth="yes"/>
      <point x="596" y="170"/>
      <point x="499" y="48"/>
      <point x="351" y="48" type="curve" smooth="yes"/>
      <point x="210" y="48"/>
      <point x="112" y="183"/>
    </contour>
    <contour>
      <point x="37" y="404" type="curve" smooth="yes"/>
      <point x="37" y="110"/>
      <point x="181" y="-16"/>
      <point x="349" y="-16" type="curve" smooth="yes"/>
      <point x="484" y="-16"/>
      <point x="671" y="82"/>
      <point x="671" y="408" type="curve" smooth="yes"/>
      <point x="671" y="639"/>
      <point x="568" y="838"/>
      <point x="367" y="838" type="curve" smooth="yes"/>
      <point x="141" y="838"/>
      <point x="37" y="608"/>
    </contour>
  </outline>
</glyph>
<glyph name="P" format="1">
  <advance width="624"/>
  <unicode hex="0050"/>
  <outline>
    <contour>
      <point x="81" y="48" type="curve" smooth="yes"/>
      <point x="42" y="48"/>
      <point x="39" y="34"/>
      <point x="39" y="23" type="curve" smooth="yes"/>
      <point x="39" y="3"/>
      <point x="67" y="0"/>
      <point x="100" y="0" type="curve" smooth="yes"/>
      <point x="316" y="0" type="line" smooth="yes"/>
      <point x="351" y="0"/>
      <point x="361" y="8"/>
      <point x="361" y="25" type="curve" smooth="yes"/>
      <point x="361" y="44"/>
      <point x="347" y="51"/>
      <point x="318" y="51" type="curve" smooth="yes"/>
      <point x="211" y="51" type="line" name="hr01"/>
      <point x="211" y="341" type="line"/>
      <point x="211" y="341"/>
      <point x="254" y="339"/>
      <point x="277" y="339" type="curve" smooth="yes"/>
      <point x="426" y="339"/>
      <point x="616" y="403"/>
      <point x="616" y="595" type="curve" smooth="yes"/>
      <point x="616" y="761"/>
      <point x="487" y="821"/>
      <point x="325" y="821" type="curve" smooth="yes"/>
      <point x="214" y="821"/>
      <point x="166" y="818"/>
      <point x="70" y="818" type="curve" smooth="yes"/>
      <point x="46" y="818"/>
      <point x="42" y="803"/>
      <point x="42" y="794" type="curve" smooth="yes"/>
      <point x="42" y="780"/>
      <point x="48" y="769"/>
      <point x="70" y="769" type="curve" smooth="yes"/>
      <point x="84" y="769" type="line" smooth="yes"/>
      <point x="127" y="769"/>
      <point x="133" y="749"/>
      <point x="133" y="729" type="curve" smooth="yes"/>
      <point x="133" y="663"/>
      <point x="139" y="556"/>
      <point x="139" y="437" type="curve" smooth="yes"/>
      <point x="139" y="283"/>
      <point x="138" y="242"/>
      <point x="138" y="92" type="curve" smooth="yes"/>
      <point x="138" y="67"/>
      <point x="128" y="48"/>
    </contour>
    <contour>
      <point x="283" y="757" type="curve" smooth="yes" name="hr02"/>
      <point x="365" y="757"/>
      <point x="541" y="752"/>
      <point x="541" y="592" type="curve" smooth="yes"/>
      <point x="541" y="417"/>
      <point x="338" y="403"/>
      <point x="276" y="403" type="curve" smooth="yes"/>
      <point x="242" y="403"/>
      <point x="211" y="405"/>
      <point x="211" y="405" type="curve"/>
      <point x="211" y="750" type="line"/>
      <point x="234" y="754"/>
      <point x="258" y="757"/>
    </contour>
  </outline>
</glyph>
<glyph name="Q" format="1">
  <advance width="708"/>
  <unicode hex="0051"/>
  <outline>
    <contour>
      <point x="188" y="-80" type="curve" smooth="yes"/>
      <point x="188" y="-94"/>
      <point x="205" y="-98"/>
      <point x="221" y="-98" type="curve" smooth="yes"/>
      <point x="240" y="-98"/>
      <point x="288" y="-71"/>
      <point x="337" y="-71" type="curve" smooth="yes" name="hr01"/>
      <point x="375" y="-71"/>
      <point x="428" y="-114"/>
      <point x="479" y="-114" type="curve" smooth="yes" name="hr02"/>
      <point x="534" y="-114"/>
      <point x="591" y="-87"/>
      <point x="591" y="-62" type="curve" smooth="yes"/>
      <point x="591" y="-47"/>
      <point x="584" y="-36"/>
      <point x="567" y="-36" type="curve" smooth="yes"/>
      <point x="539" y="-36"/>
      <point x="503" y="-52"/>
      <point x="478" y="-52" type="curve" smooth="yes" name="hr03"/>
      <point x="448" y="-52"/>
      <point x="409" y="-27"/>
      <point x="374" y="-14" type="curve"/>
      <point x="506" y="1"/>
      <point x="671" y="109"/>
      <point x="671" y="408" type="curve" smooth="yes"/>
      <point x="671" y="639"/>
      <point x="557" y="838"/>
      <point x="356" y="838" type="curve" smooth="yes"/>
      <point x="146" y="838"/>
      <point x="37" y="608"/>
      <point x="37" y="404" type="curve" smooth="yes"/>
      <point x="37" y="141"/>
      <point x="156" y="13"/>
      <point x="291" y="-11" type="curve"/>
      <point x="243" y="-23"/>
      <point x="188" y="-49"/>
    </contour>
    <contour>
      <point x="112" y="400" type="curve" smooth="yes"/>
      <point x="112" y="578"/>
      <point x="192" y="777"/>
      <point x="360" y="777" type="curve" smooth="yes"/>
      <point x="498" y="777"/>
      <point x="596" y="614"/>
      <point x="596" y="410" type="curve" smooth="yes"/>
      <point x="596" y="170"/>
      <point x="491" y="48"/>
      <point x="343" y="48" type="curve" smooth="yes" name="hr04"/>
      <point x="206" y="48"/>
      <point x="112" y="183"/>
    </contour>
  </outline>
</glyph>
<glyph name="R" format="1">
  <advance width="691"/>
  <unicode hex="0052"/>
  <outline>
    <contour>
      <point x="541" y="588" type="curve" smooth="yes"/>
      <point x="541" y="434"/>
      <point x="373" y="403"/>
      <point x="253" y="403" type="curve" smooth="yes"/>
      <point x="250" y="403"/>
      <point x="213" y="405"/>
      <point x="211" y="405" type="curve"/>
      <point x="211" y="750" type="line"/>
      <point x="211" y="750"/>
      <point x="247" y="757"/>
      <point x="283" y="757" type="curve" smooth="yes"/>
      <point x="359" y="757"/>
      <point x="541" y="733"/>
    </contour>
    <contour>
      <point x="222" y="337" type="curve"/>
      <point x="321" y="209"/>
      <point x="476" y="-44"/>
      <point x="512" y="-44" type="curve" smooth="yes"/>
      <point x="690" y="-44"/>
      <point x="714" y="-37"/>
      <point x="714" y="-18" type="curve" smooth="yes"/>
      <point x="714" y="3"/>
      <point x="699" y="6"/>
      <point x="668" y="6" type="curve" smooth="yes"/>
      <point x="545" y="6" type="line"/>
      <point x="449" y="114"/>
      <point x="308" y="338"/>
      <point x="308" y="338" type="curve"/>
      <point x="467" y="351"/>
      <point x="616" y="423"/>
      <point x="616" y="594" type="curve" smooth="yes"/>
      <point x="616" y="762"/>
      <point x="441" y="821"/>
      <point x="319" y="821" type="curve" smooth="yes"/>
      <point x="199" y="821"/>
      <point x="177" y="818"/>
      <point x="71" y="818" type="curve" smooth="yes"/>
      <point x="58" y="818"/>
      <point x="42" y="813"/>
      <point x="42" y="799" type="curve" smooth="yes"/>
      <point x="42" y="780"/>
      <point x="53" y="770"/>
      <point x="74" y="770" type="curve" smooth="yes" name="hr01"/>
      <point x="107" y="770"/>
      <point x="134" y="766"/>
      <point x="134" y="735" type="curve" smooth="yes"/>
      <point x="134" y="626"/>
      <point x="140" y="521"/>
      <point x="140" y="412" type="curve" smooth="yes"/>
      <point x="140" y="307"/>
      <point x="138" y="201"/>
      <point x="138" y="97" type="curve" smooth="yes"/>
      <point x="138" y="54"/>
      <point x="110" y="48"/>
      <point x="91" y="48" type="curve" smooth="yes"/>
      <point x="47" y="48"/>
      <point x="39" y="40"/>
      <point x="39" y="27" type="curve" smooth="yes"/>
      <point x="39" y="12"/>
      <point x="43" y="0"/>
      <point x="82" y="0" type="curve" smooth="yes"/>
      <point x="269" y="0" type="line" smooth="yes"/>
      <point x="328" y="0"/>
      <point x="338" y="10"/>
      <point x="338" y="25" type="curve" smooth="yes"/>
      <point x="338" y="48"/>
      <point x="316" y="51"/>
      <point x="291" y="51" type="curve" smooth="yes"/>
      <point x="211" y="51" type="line" name="hr02"/>
      <point x="211" y="338" type="line"/>
      <point x="211" y="338"/>
      <point x="216" y="337"/>
    </contour>
  </outline>
</glyph>
<glyph name="S" format="1">
  <advance width="613"/>
  <unicode hex="0053"/>
  <outline>
    <contour>
      <point x="110" y="85" type="curve"/>
      <point x="146" y="8"/>
      <point x="235" y="-16"/>
      <point x="308" y="-16" type="curve" smooth="yes"/>
      <point x="409" y="-16"/>
      <point x="556" y="25"/>
      <point x="556" y="145" type="curve" smooth="yes"/>
      <point x="556" y="278"/>
      <point x="344" y="341"/>
      <point x="255" y="381" type="curve" smooth="yes"/>
      <point x="190" y="410"/>
      <point x="125" y="445"/>
      <point x="125" y="565" type="curve" smooth="yes"/>
      <point x="125" y="672"/>
      <point x="212" y="777"/>
      <point x="320" y="777" type="curve" smooth="yes"/>
      <point x="402" y="777"/>
      <point x="496" y="684"/>
      <point x="506" y="557" type="curve" name="hr01"/>
      <point x="506" y="528"/>
      <point x="514" y="498"/>
      <point x="540" y="498" type="curve" smooth="yes"/>
      <point x="564" y="498"/>
      <point x="576" y="513"/>
      <point x="576" y="532" type="curve" smooth="yes"/>
      <point x="576" y="574"/>
      <point x="574" y="610"/>
      <point x="574" y="652" type="curve" smooth="yes"/>
      <point x="574" y="700"/>
      <point x="578" y="751"/>
      <point x="578" y="798" type="curve" smooth="yes"/>
      <point x="578" y="807"/>
      <point x="575" y="831"/>
      <point x="543" y="831" type="curve" smooth="yes"/>
      <point x="515" y="831"/>
      <point x="509" y="812"/>
      <point x="509" y="796" type="curve"/>
      <point x="509" y="795"/>
      <point x="512" y="754"/>
      <point x="517" y="671" type="curve"/>
      <point x="477" y="786"/>
      <point x="409" y="837"/>
      <point x="312" y="837" type="curve" smooth="yes" name="hr02"/>
      <point x="191" y="837"/>
      <point x="54" y="724"/>
      <point x="54" y="574" type="curve" smooth="yes"/>
      <point x="54" y="401"/>
      <point x="158" y="355"/>
      <point x="243" y="314" type="curve" smooth="yes"/>
      <point x="336" y="269"/>
      <point x="485" y="225"/>
      <point x="485" y="145" type="curve" smooth="yes"/>
      <point x="485" y="85"/>
      <point x="400" y="44"/>
      <point x="305" y="44" type="curve" smooth="yes"/>
      <point x="184" y="44"/>
      <point x="117" y="112"/>
      <point x="117" y="180" type="curve" smooth="yes"/>
      <point x="117" y="209"/>
      <point x="114" y="249"/>
      <point x="80" y="249" type="curve" smooth="yes"/>
      <point x="51" y="249"/>
      <point x="46" y="224"/>
      <point x="46" y="205" type="curve" smooth="yes"/>
      <point x="46" y="163"/>
      <point x="48" y="150"/>
      <point x="48" y="108" type="curve" smooth="yes"/>
      <point x="48" y="79"/>
      <point x="44" y="22"/>
      <point x="44" y="7" type="curve" smooth="yes"/>
      <point x="44" y="-2"/>
      <point x="57" y="-26"/>
      <point x="79" y="-26" type="curve" smooth="yes" name="hr03"/>
      <point x="103" y="-26"/>
      <point x="113" y="-7"/>
      <point x="113" y="9" type="curve"/>
      <point x="113" y="10"/>
    </contour>
  </outline>
</glyph>
<glyph name="T" format="1">
  <advance width="635"/>
  <unicode hex="0054"/>
  <outline>
    <contour>
      <point x="276" y="755" type="line"/>
      <point x="276" y="648"/>
      <point x="280" y="508"/>
      <point x="280" y="401" type="curve" smooth="yes"/>
      <point x="280" y="292"/>
      <point x="276" y="196"/>
      <point x="276" y="94" type="curve" smooth="yes"/>
      <point x="276" y="48"/>
      <point x="229" y="48"/>
      <point x="208" y="48" type="curve" smooth="yes"/>
      <point x="196" y="48"/>
      <point x="179" y="45"/>
      <point x="179" y="23" type="curve" smooth="yes" name="hr01"/>
      <point x="179" y="2"/>
      <point x="202" y="0"/>
      <point x="220" y="0" type="curve" smooth="yes"/>
      <point x="452" y="0" type="line" smooth="yes"/>
      <point x="465" y="0"/>
      <point x="472" y="12"/>
      <point x="472" y="24" type="curve" smooth="yes" name="hr02"/>
      <point x="472" y="47"/>
      <point x="457" y="51"/>
      <point x="442" y="51" type="curve" smooth="yes"/>
      <point x="351" y="51" type="line" name="hr03"/>
      <point x="351" y="755" type="line"/>
      <point x="516" y="755" type="line" smooth="yes"/>
      <point x="551" y="755"/>
      <point x="553" y="745"/>
      <point x="553" y="706" type="curve" smooth="yes"/>
      <point x="553" y="610" type="line" smooth="yes"/>
      <point x="553" y="568"/>
      <point x="557" y="555"/>
      <point x="587" y="555" type="curve" smooth="yes"/>
      <point x="605" y="555"/>
      <point x="620" y="559"/>
      <point x="620" y="599" type="curve" smooth="yes"/>
      <point x="620" y="620"/>
      <point x="619" y="671"/>
      <point x="619" y="693" type="curve" smooth="yes"/>
      <point x="619" y="714"/>
      <point x="620" y="756"/>
      <point x="620" y="778" type="curve" smooth="yes"/>
      <point x="620" y="817"/>
      <point x="614" y="821"/>
      <point x="582" y="821" type="curve" smooth="yes"/>
      <point x="487" y="821"/>
      <point x="412" y="819"/>
      <point x="317" y="819" type="curve" smooth="yes"/>
      <point x="222" y="819"/>
      <point x="147" y="821"/>
      <point x="52" y="821" type="curve" smooth="yes"/>
      <point x="21" y="821"/>
      <point x="14" y="817"/>
      <point x="14" y="778" type="curve" smooth="yes"/>
      <point x="14" y="756"/>
      <point x="15" y="714"/>
      <point x="15" y="693" type="curve" smooth="yes"/>
      <point x="15" y="671"/>
      <point x="14" y="620"/>
      <point x="14" y="599" type="curve" smooth="yes"/>
      <point x="14" y="559"/>
      <point x="30" y="555"/>
      <point x="47" y="555" type="curve" smooth="yes"/>
      <point x="72" y="555"/>
      <point x="81" y="568"/>
      <point x="81" y="610" type="curve" smooth="yes"/>
      <point x="81" y="706" type="line" smooth="yes"/>
      <point x="81" y="744"/>
      <point x="83" y="755"/>
      <point x="118" y="755" type="curve" smooth="yes"/>
    </contour>
  </outline>
</glyph>
<glyph name="U" format="1">
  <advance width="772"/>
  <unicode hex="0055"/>
  <outline>
    <contour>
      <point x="184" y="746" type="line" smooth="yes"/>
      <point x="184" y="771"/>
      <point x="252" y="771"/>
      <point x="264" y="771" type="curve" smooth="yes"/>
      <point x="280" y="771"/>
      <point x="301" y="777"/>
      <point x="301" y="796" type="curve" smooth="yes" name="hr01"/>
      <point x="301" y="814"/>
      <point x="292" y="821"/>
      <point x="250" y="821" type="curve" smooth="yes"/>
      <point x="53" y="821" type="line" smooth="yes"/>
      <point x="41" y="821"/>
      <point x="16" y="817"/>
      <point x="16" y="796" type="curve" smooth="yes" name="hr02"/>
      <point x="16" y="772"/>
      <point x="39" y="771"/>
      <point x="53" y="771" type="curve" smooth="yes"/>
      <point x="70" y="771"/>
      <point x="113" y="771"/>
      <point x="113" y="748" type="curve" smooth="yes"/>
      <point x="113" y="654"/>
      <point x="115" y="560"/>
      <point x="115" y="467" type="curve" smooth="yes" name="hr03"/>
      <point x="115" y="422"/>
      <point x="114" y="377"/>
      <point x="114" y="334" type="curve" smooth="yes"/>
      <point x="114" y="261"/>
      <point x="114" y="192"/>
      <point x="134" y="125" type="curve" smooth="yes"/>
      <point x="162" y="31"/>
      <point x="260" y="-14"/>
      <point x="382" y="-14" type="curve" smooth="yes"/>
      <point x="539" y="-14"/>
      <point x="648" y="74"/>
      <point x="648" y="272" type="curve" smooth="yes"/>
      <point x="648" y="345"/>
      <point x="646" y="419"/>
      <point x="646" y="492" type="curve" smooth="yes"/>
      <point x="646" y="558"/>
      <point x="648" y="625"/>
      <point x="648" y="692" type="curve" smooth="yes"/>
      <point x="648" y="717"/>
      <point x="714" y="717"/>
      <point x="728" y="717" type="curve" smooth="yes"/>
      <point x="744" y="717"/>
      <point x="765" y="719"/>
      <point x="765" y="742" type="curve" smooth="yes" name="hr04"/>
      <point x="765" y="760"/>
      <point x="756" y="767"/>
      <point x="714" y="767" type="curve" smooth="yes"/>
      <point x="518" y="767" type="line" smooth="yes"/>
      <point x="495" y="767"/>
      <point x="481" y="760"/>
      <point x="481" y="742" type="curve" smooth="yes" name="hr05"/>
      <point x="481" y="722"/>
      <point x="504" y="717"/>
      <point x="518" y="717" type="curve" smooth="yes"/>
      <point x="536" y="717"/>
      <point x="578" y="717"/>
      <point x="578" y="694" type="curve" smooth="yes" name="hr06"/>
      <point x="578" y="272" type="line" smooth="yes"/>
      <point x="578" y="163"/>
      <point x="528" y="48"/>
      <point x="383" y="48" type="curve" smooth="yes"/>
      <point x="189" y="48"/>
      <point x="184" y="180"/>
      <point x="184" y="323" type="curve" smooth="yes"/>
    </contour>
  </outline>
</glyph>
<glyph name="V" format="1">
  <advance width="687"/>
  <unicode hex="0056"/>
  <outline>
    <contour>
      <point x="347" y="99" type="curve"/>
      <point x="347" y="99"/>
      <point x="174" y="706"/>
      <point x="174" y="751" type="curve" smooth="yes"/>
      <point x="174" y="789"/>
      <point x="270" y="759"/>
      <point x="270" y="801" type="curve" smooth="yes"/>
      <point x="270" y="816"/>
      <point x="263" y="821"/>
      <point x="239" y="821" type="curve" smooth="yes"/>
      <point x="22" y="821" type="line" smooth="yes"/>
      <point x="-1" y="821"/>
      <point x="-23" y="820"/>
      <point x="-23" y="801" type="curve" smooth="yes"/>
      <point x="-23" y="779"/>
      <point x="4" y="775"/>
      <point x="23" y="775" type="curve" smooth="yes"/>
      <point x="68" y="775"/>
      <point x="91" y="770"/>
      <point x="96" y="743" type="curve"/>
      <point x="308" y="-9" type="line" smooth="yes"/>
      <point x="313" y="-26"/>
      <point x="329" y="-34"/>
      <point x="345" y="-34" type="curve" smooth="yes"/>
      <point x="366" y="-34"/>
      <point x="376" y="-19"/>
      <point x="379" y="-9" type="curve" smooth="yes"/>
      <point x="420" y="126"/>
      <point x="524" y="505"/>
      <point x="586" y="677" type="curve" smooth="yes"/>
      <point x="595" y="701"/>
      <point x="606" y="712"/>
      <point x="635" y="715" type="curve" smooth="yes"/>
      <point x="645" y="716"/>
      <point x="686" y="720"/>
      <point x="714" y="721" type="curve"/>
      <point x="727" y="721"/>
      <point x="744" y="724"/>
      <point x="744" y="742" type="curve" smooth="yes"/>
      <point x="744" y="762"/>
      <point x="734" y="766"/>
      <point x="711" y="766" type="curve" smooth="yes"/>
      <point x="468" y="766" type="line" smooth="yes"/>
      <point x="442" y="766"/>
      <point x="429" y="760"/>
      <point x="429" y="741" type="curve" smooth="yes"/>
      <point x="429" y="719"/>
      <point x="455" y="717"/>
      <point x="468" y="717" type="curve"/>
      <point x="485" y="716"/>
      <point x="509" y="719"/>
      <point x="509" y="701" type="curve" smooth="yes"/>
      <point x="509" y="648"/>
    </contour>
  </outline>
</glyph>
<glyph name="W" format="1">
  <advance width="1122"/>
  <unicode hex="0057"/>
  <outline>
    <contour>
      <point x="936" y="681" type="curve" smooth="yes"/>
      <point x="936" y="641"/>
      <point x="803" y="202"/>
      <point x="773" y="68" type="curve"/>
      <point x="737" y="213"/>
      <point x="678" y="394"/>
      <point x="611" y="690" type="curve" smooth="yes"/>
      <point x="602" y="729"/>
      <point x="594" y="747"/>
      <point x="566" y="747" type="curve" smooth="yes"/>
      <point x="535" y="747"/>
      <point x="527" y="718"/>
      <point x="519" y="690" type="curve" smooth="yes"/>
      <point x="489" y="587"/>
      <point x="361" y="115"/>
      <point x="361" y="115" type="curve"/>
      <point x="293" y="353"/>
      <point x="173" y="710"/>
      <point x="173" y="751" type="curve" smooth="yes"/>
      <point x="173" y="784"/>
      <point x="274" y="758"/>
      <point x="274" y="800" type="curve" smooth="yes"/>
      <point x="274" y="813"/>
      <point x="267" y="821"/>
      <point x="243" y="821" type="curve" smooth="yes"/>
      <point x="6" y="821" type="line" smooth="yes"/>
      <point x="-17" y="821"/>
      <point x="-31" y="816"/>
      <point x="-31" y="797" type="curve" smooth="yes"/>
      <point x="-31" y="780"/>
      <point x="-12" y="775"/>
      <point x="7" y="775" type="curve" smooth="yes"/>
      <point x="51" y="775"/>
      <point x="88" y="769"/>
      <point x="94" y="743" type="curve"/>
      <point x="187" y="470"/>
      <point x="250" y="245"/>
      <point x="323" y="13" type="curve" smooth="yes"/>
      <point x="329" y="-5"/>
      <point x="346" y="-12"/>
      <point x="364" y="-12" type="curve" smooth="yes"/>
      <point x="382" y="-12"/>
      <point x="396" y="6"/>
      <point x="399" y="16" type="curve" smooth="yes"/>
      <point x="451" y="202"/>
      <point x="565" y="595"/>
      <point x="565" y="595" type="curve"/>
      <point x="568" y="571"/>
      <point x="661" y="243"/>
      <point x="725" y="-15" type="curve" smooth="yes"/>
      <point x="733" y="-46"/>
      <point x="755" y="-51"/>
      <point x="773" y="-51" type="curve" smooth="yes"/>
      <point x="791" y="-51"/>
      <point x="808" y="-43"/>
      <point x="815" y="-17" type="curve" smooth="yes"/>
      <point x="907" y="319"/>
      <point x="941" y="435"/>
      <point x="1000" y="670" type="curve" smooth="yes"/>
      <point x="1006" y="694"/>
      <point x="1020" y="705"/>
      <point x="1049" y="708" type="curve" smooth="yes"/>
      <point x="1059" y="709"/>
      <point x="1112" y="713"/>
      <point x="1140" y="714" type="curve"/>
      <point x="1153" y="714"/>
      <point x="1170" y="719"/>
      <point x="1170" y="735" type="curve" smooth="yes"/>
      <point x="1170" y="759"/>
      <point x="1149" y="759"/>
      <point x="1137" y="759" type="curve" smooth="yes"/>
      <point x="882" y="759" type="line" smooth="yes"/>
      <point x="856" y="759"/>
      <point x="848" y="750"/>
      <point x="848" y="734" type="curve" smooth="yes"/>
      <point x="848" y="715"/>
      <point x="869" y="710"/>
      <point x="882" y="710" type="curve" smooth="yes"/>
      <point x="901" y="710"/>
      <point x="936" y="710"/>
    </contour>
  </outline>
</glyph>
<glyph name="X" format="1">
  <advance width="685"/>
  <unicode hex="0058"/>
  <outline>
    <contour>
      <point x="203" y="734" type="curve" smooth="yes"/>
      <point x="203" y="760"/>
      <point x="295" y="741"/>
      <point x="295" y="777" type="curve" smooth="yes"/>
      <point x="295" y="794"/>
      <point x="288" y="799"/>
      <point x="264" y="799" type="curve" smooth="yes"/>
      <point x="41" y="799" type="line" smooth="yes"/>
      <point x="18" y="799"/>
      <point x="6" y="792"/>
      <point x="6" y="777" type="curve" smooth="yes"/>
      <point x="6" y="757"/>
      <point x="23" y="753"/>
      <point x="42" y="753" type="curve" smooth="yes"/>
      <point x="88" y="753"/>
      <point x="119" y="745"/>
      <point x="132" y="721" type="curve" smooth="yes"/>
      <point x="289" y="414" type="line"/>
      <point x="129" y="89" type="line"/>
      <point x="116" y="66"/>
      <point x="108" y="54"/>
      <point x="80" y="51" type="curve" smooth="yes"/>
      <point x="73" y="50"/>
      <point x="33" y="46"/>
      <point x="14" y="45" type="curve"/>
      <point x="1" y="45"/>
      <point x="-16" y="39"/>
      <point x="-16" y="24" type="curve" smooth="yes" name="hr01"/>
      <point x="-16" y="6"/>
      <point x="5" y="0"/>
      <point x="17" y="0" type="curve" smooth="yes"/>
      <point x="261" y="0" type="line" smooth="yes"/>
      <point x="287" y="0"/>
      <point x="295" y="9"/>
      <point x="295" y="25" type="curve" smooth="yes"/>
      <point x="295" y="43"/>
      <point x="280" y="48"/>
      <point x="261" y="49" type="curve" smooth="yes"/>
      <point x="231" y="51"/>
      <point x="196" y="47"/>
      <point x="196" y="65" type="curve" smooth="yes"/>
      <point x="196" y="82"/>
      <point x="325" y="339"/>
      <point x="325" y="341" type="curve"/>
      <point x="325" y="341"/>
      <point x="486" y="43"/>
      <point x="486" y="22" type="curve" smooth="yes"/>
      <point x="486" y="5"/>
      <point x="419" y="20"/>
      <point x="419" y="-15" type="curve" smooth="yes"/>
      <point x="419" y="-31"/>
      <point x="426" y="-37"/>
      <point x="450" y="-37" type="curve" smooth="yes" name="hr02"/>
      <point x="677" y="-37" type="line" smooth="yes"/>
      <point x="700" y="-37"/>
      <point x="717" y="-32"/>
      <point x="717" y="-15" type="curve" smooth="yes" name="hr03"/>
      <point x="717" y="4"/>
      <point x="701" y="9"/>
      <point x="676" y="9" type="curve" smooth="yes"/>
      <point x="613" y="9"/>
      <point x="567" y="14"/>
      <point x="553" y="41" type="curve" smooth="yes"/>
      <point x="358" y="414" type="line"/>
      <point x="525" y="732" type="line" smooth="yes"/>
      <point x="537" y="755"/>
      <point x="545" y="767"/>
      <point x="574" y="770" type="curve" smooth="yes"/>
      <point x="584" y="771"/>
      <point x="619" y="772"/>
      <point x="647" y="776" type="curve" smooth="yes"/>
      <point x="661" y="778"/>
      <point x="677" y="785"/>
      <point x="677" y="799" type="curve" smooth="yes" name="hr04"/>
      <point x="677" y="817"/>
      <point x="662" y="821"/>
      <point x="644" y="821" type="curve" smooth="yes" name="hr05"/>
      <point x="421" y="821" type="line" smooth="yes"/>
      <point x="395" y="821"/>
      <point x="387" y="814"/>
      <point x="387" y="798" type="curve" smooth="yes"/>
      <point x="387" y="780"/>
      <point x="403" y="772"/>
      <point x="421" y="772" type="curve" smooth="yes"/>
      <point x="450" y="772"/>
      <point x="458" y="772"/>
      <point x="458" y="756" type="curve" smooth="yes"/>
      <point x="458" y="735"/>
      <point x="354" y="551"/>
      <point x="324" y="485" type="curve"/>
      <point x="324" y="485"/>
      <point x="203" y="714"/>
    </contour>
  </outline>
</glyph>
<glyph name="Y" format="1">
  <advance width="660"/>
  <unicode hex="0059"/>
  <outline>
    <contour>
      <point x="188" y="743" type="curve" smooth="yes"/>
      <point x="188" y="776"/>
      <point x="270" y="753"/>
      <point x="270" y="789" type="curve" smooth="yes"/>
      <point x="270" y="803"/>
      <point x="258" y="813"/>
      <point x="234" y="813" type="curve" smooth="yes"/>
      <point x="6" y="813" type="line" smooth="yes"/>
      <point x="-17" y="813"/>
      <point x="-29" y="806"/>
      <point x="-29" y="789" type="curve" smooth="yes"/>
      <point x="-29" y="771"/>
      <point x="-12" y="767"/>
      <point x="7" y="767" type="curve" smooth="yes"/>
      <point x="52" y="767"/>
      <point x="97" y="759"/>
      <point x="109" y="735" type="curve" smooth="yes"/>
      <point x="191" y="563"/>
      <point x="206" y="551"/>
      <point x="293" y="355" type="curve"/>
      <point x="293" y="94" type="line" smooth="yes"/>
      <point x="293" y="48"/>
      <point x="255" y="48"/>
      <point x="239" y="48" type="curve" smooth="yes"/>
      <point x="212" y="48"/>
      <point x="200" y="41"/>
      <point x="200" y="26" type="curve" smooth="yes" name="hr01"/>
      <point x="200" y="5"/>
      <point x="222" y="0"/>
      <point x="251" y="0" type="curve" smooth="yes"/>
      <point x="461" y="0" type="line" smooth="yes"/>
      <point x="474" y="0"/>
      <point x="486" y="6"/>
      <point x="486" y="28" type="curve" smooth="yes" name="hr02"/>
      <point x="486" y="48"/>
      <point x="466" y="51"/>
      <point x="451" y="51" type="curve" smooth="yes"/>
      <point x="365" y="51" type="line" name="hr03"/>
      <point x="365" y="164"/>
      <point x="362" y="334"/>
      <point x="362" y="334" type="curve"/>
      <point x="402" y="425"/>
      <point x="482" y="577"/>
      <point x="540" y="687" type="curve" smooth="yes"/>
      <point x="552" y="710"/>
      <point x="560" y="722"/>
      <point x="589" y="725" type="curve" smooth="yes"/>
      <point x="599" y="726"/>
      <point x="649" y="730"/>
      <point x="677" y="731" type="curve"/>
      <point x="690" y="731"/>
      <point x="707" y="736"/>
      <point x="707" y="752" type="curve" smooth="yes"/>
      <point x="707" y="776"/>
      <point x="686" y="776"/>
      <point x="674" y="776" type="curve" smooth="yes"/>
      <point x="432" y="776" type="line" smooth="yes"/>
      <point x="402" y="776"/>
      <point x="393" y="767"/>
      <point x="393" y="751" type="curve" smooth="yes"/>
      <point x="393" y="732"/>
      <point x="411" y="727"/>
      <point x="432" y="727" type="curve" smooth="yes"/>
      <point x="449" y="727"/>
      <point x="473" y="727"/>
      <point x="473" y="711" type="curve" smooth="yes"/>
      <point x="473" y="677"/>
      <point x="356" y="482"/>
      <point x="336" y="423" type="curve"/>
      <point x="308" y="486"/>
      <point x="188" y="720"/>
    </contour>
  </outline>
</glyph>
<glyph name="Z" format="1">
  <advance width="642"/>
  <unicode hex="005A"/>
  <outline>
    <contour>
      <point x="605" y="281" type="curve" smooth="yes"/>
      <point x="605" y="304"/>
      <point x="595" y="319"/>
      <point x="574" y="319" type="curve" smooth="yes"/>
      <point x="546" y="319"/>
      <point x="539" y="296"/>
      <point x="539" y="276" type="curve" smooth="yes"/>
      <point x="539" y="242"/>
      <point x="531" y="144"/>
      <point x="526" y="99" type="curve" smooth="yes"/>
      <point x="522" y="65"/>
      <point x="496" y="65"/>
      <point x="466" y="65" type="curve" smooth="yes"/>
      <point x="154" y="65" type="line" smooth="yes"/>
      <point x="138" y="65"/>
      <point x="134" y="67"/>
      <point x="134" y="75" type="curve" smooth="yes"/>
      <point x="134" y="85"/>
      <point x="448" y="553"/>
      <point x="558" y="738" type="curve" smooth="yes"/>
      <point x="562" y="745"/>
      <point x="594" y="795"/>
      <point x="594" y="802" type="curve" smooth="yes"/>
      <point x="594" y="821"/>
      <point x="569" y="821"/>
      <point x="542" y="821" type="curve" smooth="yes"/>
      <point x="474" y="821"/>
      <point x="406" y="819"/>
      <point x="338" y="819" type="curve" smooth="yes" name="hr01"/>
      <point x="270" y="819"/>
      <point x="203" y="821"/>
      <point x="135" y="821" type="curve" smooth="yes" name="hr02"/>
      <point x="67" y="821"/>
      <point x="51" y="821"/>
      <point x="51" y="780" type="curve" smooth="yes"/>
      <point x="51" y="750"/>
      <point x="52" y="720"/>
      <point x="52" y="690" type="curve" smooth="yes"/>
      <point x="52" y="660"/>
      <point x="51" y="631"/>
      <point x="51" y="601" type="curve" smooth="yes"/>
      <point x="51" y="581"/>
      <point x="57" y="555"/>
      <point x="87" y="555" type="curve" smooth="yes"/>
      <point x="110" y="555"/>
      <point x="118" y="571"/>
      <point x="118" y="620" type="curve" smooth="yes"/>
      <point x="118" y="643"/>
      <point x="119" y="695"/>
      <point x="119" y="712" type="curve" smooth="yes"/>
      <point x="119" y="744"/>
      <point x="122" y="755"/>
      <point x="161" y="755" type="curve" smooth="yes" name="hr03"/>
      <point x="423" y="755" type="line" smooth="yes"/>
      <point x="470" y="755"/>
      <point x="471" y="752"/>
      <point x="471" y="739" type="curve" smooth="yes"/>
      <point x="471" y="706"/>
      <point x="79" y="118"/>
      <point x="40" y="61" type="curve" smooth="yes"/>
      <point x="21" y="33"/>
      <point x="19" y="33"/>
      <point x="19" y="19" type="curve" smooth="yes"/>
      <point x="19" y="3"/>
      <point x="44" y="0"/>
      <point x="93" y="0" type="curve" smooth="yes"/>
      <point x="170" y="0"/>
      <point x="247" y="1"/>
      <point x="324" y="1" type="curve" smooth="yes" name="hr04"/>
      <point x="401" y="1"/>
      <point x="479" y="0"/>
      <point x="556" y="0" type="curve" smooth="yes" name="hr05"/>
      <point x="582" y="0"/>
      <point x="592" y="0"/>
      <point x="592" y="31" type="curve" smooth="yes"/>
      <point x="592" y="63"/>
      <point x="605" y="277"/>
    </contour>
  </outline>
</glyph>
<glyph name="bracketleft" format="1">
  <advance width="319"/>
  <unicode hex="005B"/>
  <outline>
    <contour>
      <point x="106" y="835" type="curve" smooth="yes"/>
      <point x="95" y="834"/>
      <point x="85" y="816"/>
      <point x="85" y="800" type="curve"/>
      <point x="89" y="591"/>
      <point x="89" y="575"/>
      <point x="89" y="366" type="curve" smooth="yes"/>
      <point x="89" y="301"/>
      <point x="89" y="42"/>
      <point x="88" y="-23" type="curve"/>
      <point x="88" y="-51"/>
      <point x="95" y="-58"/>
      <point x="107" y="-58" type="curve" smooth="yes"/>
      <point x="222" y="-58" type="line" smooth="yes"/>
      <point x="255" y="-58"/>
      <point x="308" y="-56"/>
      <point x="308" y="-33" type="curve" smooth="yes"/>
      <point x="308" y="-13"/>
      <point x="268" y="-7"/>
      <point x="234" y="-7" type="curve" smooth="yes"/>
      <point x="185" y="-7"/>
      <point x="158" y="-7"/>
      <point x="158" y="10" type="curve" smooth="yes" name="hr01"/>
      <point x="158" y="756" type="line" smooth="yes"/>
      <point x="158" y="765"/>
      <point x="161" y="785"/>
      <point x="179" y="786" type="curve" smooth="yes"/>
      <point x="282" y="794" type="line" smooth="yes"/>
      <point x="297" y="795"/>
      <point x="310" y="798"/>
      <point x="310" y="816" type="curve" smooth="yes"/>
      <point x="310" y="836"/>
      <point x="292" y="838"/>
      <point x="281" y="838" type="curve" smooth="yes"/>
      <point x="259" y="838"/>
      <point x="166" y="838"/>
    </contour>
  </outline>
</glyph>
<glyph name="bracketright" format="1">
  <advance width="319"/>
  <unicode hex="005D"/>
  <outline>
    <contour>
      <point x="213" y="835" type="curve" smooth="yes"/>
      <point x="153" y="838"/>
      <point x="60" y="838"/>
      <point x="38" y="838" type="curve" smooth="yes" name="hr01"/>
      <point x="27" y="838"/>
      <point x="9" y="836"/>
      <point x="9" y="816" type="curve" smooth="yes"/>
      <point x="9" y="798"/>
      <point x="22" y="795"/>
      <point x="37" y="794" type="curve" smooth="yes"/>
      <point x="140" y="786" type="line" smooth="yes"/>
      <point x="158" y="785"/>
      <point x="161" y="765"/>
      <point x="161" y="756" type="curve" smooth="yes" name="hr02"/>
      <point x="161" y="10" type="line" smooth="yes"/>
      <point x="161" y="-7"/>
      <point x="134" y="-7"/>
      <point x="85" y="-7" type="curve" smooth="yes"/>
      <point x="51" y="-7"/>
      <point x="11" y="-13"/>
      <point x="11" y="-33" type="curve" smooth="yes"/>
      <point x="11" y="-56"/>
      <point x="64" y="-58"/>
      <point x="97" y="-58" type="curve" smooth="yes"/>
      <point x="212" y="-58" type="line" smooth="yes"/>
      <point x="224" y="-58"/>
      <point x="231" y="-51"/>
      <point x="231" y="-23" type="curve"/>
      <point x="230" y="42"/>
      <point x="230" y="301"/>
      <point x="230" y="366" type="curve" smooth="yes"/>
      <point x="230" y="575"/>
      <point x="230" y="591"/>
      <point x="234" y="800" type="curve"/>
      <point x="234" y="816"/>
      <point x="224" y="834"/>
    </contour>
  </outline>
</glyph>
<glyph name="underscore" format="1">
  <advance width="357"/>
  <unicode hex="005F"/>
  <outline>
    <contour>
      <point x="342" y="-25" type="curve" smooth="yes"/>
      <point x="297" y="-25"/>
      <point x="239" y="-28"/>
      <point x="162" y="-28" type="curve" smooth="yes" name="hr01"/>
      <point x="114" y="-28"/>
      <point x="47" y="-26"/>
      <point x="20" y="-26" type="curve" smooth="yes"/>
      <point x="-2" y="-26"/>
      <point x="-12" y="-42"/>
      <point x="-12" y="-56" type="curve" smooth="yes"/>
      <point x="-12" y="-70"/>
      <point x="3" y="-87"/>
      <point x="20" y="-87" type="curve" smooth="yes"/>
      <point x="86" y="-87"/>
      <point x="256" y="-86"/>
      <point x="330" y="-86" type="curve" smooth="yes" name="hr02"/>
      <point x="359" y="-86"/>
      <point x="367" y="-64"/>
      <point x="367" y="-53" type="curve" smooth="yes"/>
      <point x="367" y="-38"/>
      <point x="354" y="-25"/>
    </contour>
  </outline>
</glyph>
<glyph name="grave" format="1">
  <advance width="154"/>
  <unicode hex="0060"/>
  <outline>
    <contour>
      <point x="10" y="656" type="curve" smooth="yes"/>
      <point x="10" y="626"/>
      <point x="84" y="520"/>
      <point x="118" y="505" type="curve" smooth="yes"/>
      <point x="121" y="504"/>
      <point x="125" y="503"/>
      <point x="128" y="503" type="curve" smooth="yes"/>
      <point x="138" y="503"/>
      <point x="145" y="510"/>
      <point x="145" y="523" type="curve" smooth="yes"/>
      <point x="145" y="548"/>
      <point x="94" y="676"/>
      <point x="65" y="684" type="curve" smooth="yes"/>
      <point x="58" y="686"/>
      <point x="55" y="686"/>
      <point x="50" y="686" type="curve" smooth="yes"/>
      <point x="29" y="686"/>
      <point x="10" y="675"/>
    </contour>
    <contour>
      <point x="77" y="510" type="move" name="_top"/>
    </contour>
  </outline>
</glyph>
<glyph name="a" format="1">
  <advance width="468"/>
  <unicode hex="0061"/>
  <outline>
    <contour>
      <point x="332" y="197" type="curve"/>
      <point x="291" y="227"/>
      <point x="244" y="243"/>
      <point x="192" y="243" type="curve" smooth="yes"/>
      <point x="92" y="243"/>
      <point x="25" y="184"/>
      <point x="25" y="107" type="curve" smooth="yes"/>
      <point x="25" y="35"/>
      <point x="85" y="-11"/>
      <point x="178" y="-11" type="curve" smooth="yes"/>
      <point x="240" y="-11"/>
      <point x="292" y="10"/>
      <point x="334" y="48" type="curve"/>
      <point x="346" y="5"/>
      <point x="377" y="-11"/>
      <point x="413" y="-11" type="curve" smooth="yes"/>
      <point x="452" y="-11"/>
      <point x="490" y="8"/>
      <point x="490" y="65" type="curve" smooth="yes"/>
      <point x="490" y="82"/>
      <point x="486" y="98"/>
      <point x="469" y="98" type="curve" smooth="yes" name="hr01"/>
      <point x="450" y="98"/>
      <point x="443" y="84"/>
      <point x="442" y="76" type="curve" smooth="yes"/>
      <point x="439" y="59"/>
      <point x="437" y="49"/>
      <point x="422" y="49" type="curve" smooth="yes" name="hr02"/>
      <point x="404" y="49"/>
      <point x="400" y="62"/>
      <point x="400" y="123" type="curve" smooth="yes"/>
      <point x="400" y="163"/>
      <point x="403" y="238"/>
      <point x="403" y="267" type="curve" smooth="yes"/>
      <point x="403" y="396"/>
      <point x="344" y="462"/>
      <point x="226" y="462" type="curve" smooth="yes"/>
      <point x="121" y="462"/>
      <point x="55" y="410"/>
      <point x="55" y="339" type="curve" smooth="yes"/>
      <point x="55" y="304"/>
      <point x="71" y="269"/>
      <point x="112" y="269" type="curve" smooth="yes"/>
      <point x="138" y="269"/>
      <point x="156" y="283"/>
      <point x="156" y="305" type="curve" smooth="yes"/>
      <point x="156" y="326"/>
      <point x="140" y="335"/>
      <point x="131" y="336" type="curve" smooth="yes"/>
      <point x="118" y="338"/>
      <point x="111" y="340"/>
      <point x="111" y="351" type="curve" smooth="yes" name="hr03"/>
      <point x="111" y="384"/>
      <point x="173" y="402"/>
      <point x="218" y="402" type="curve" smooth="yes"/>
      <point x="297" y="402"/>
      <point x="333" y="348"/>
      <point x="333" y="261" type="curve" smooth="yes"/>
      <point x="333" y="247"/>
    </contour>
    <contour>
      <point x="96" y="108" type="curve" smooth="yes" name="hr04"/>
      <point x="96" y="151"/>
      <point x="149" y="183"/>
      <point x="217" y="183" type="curve" smooth="yes"/>
      <point x="280" y="183"/>
      <point x="332" y="155"/>
      <point x="332" y="118" type="curve" smooth="yes"/>
      <point x="332" y="79"/>
      <point x="272" y="49"/>
      <point x="201" y="49" type="curve" smooth="yes"/>
      <point x="144" y="49"/>
      <point x="96" y="68"/>
    </contour>
  </outline>
</glyph>
<glyph name="b" format="1">
  <advance width="517"/>
  <unicode hex="0062"/>
  <outline>
    <contour>
      <point x="136" y="782" type="line" smooth="yes"/>
      <point x="136" y="816"/>
      <point x="122" y="818"/>
      <point x="110" y="818" type="curve" smooth="yes"/>
      <point x="20" y="818" type="line" smooth="yes"/>
      <point x="-32" y="818"/>
      <point x="-64" y="808"/>
      <point x="-64" y="789" type="curve" smooth="yes"/>
      <point x="-64" y="773"/>
      <point x="-40" y="767"/>
      <point x="-18" y="767" type="curve" smooth="yes"/>
      <point x="20" y="767" type="line" smooth="yes"/>
      <point x="49" y="767"/>
      <point x="65" y="759"/>
      <point x="65" y="740" type="curve" smooth="yes"/>
      <point x="65" y="703"/>
      <point x="66" y="596"/>
      <point x="66" y="498" type="curve" smooth="yes" name="hr01"/>
      <point x="66" y="197"/>
      <point x="58" y="155"/>
      <point x="57" y="24" type="curve"/>
      <point x="57" y="0"/>
      <point x="71" y="-12"/>
      <point x="90" y="-12" type="curve" smooth="yes"/>
      <point x="123" y="-12"/>
      <point x="124" y="4"/>
      <point x="128" y="68" type="curve"/>
      <point x="150" y="32"/>
      <point x="185" y="-9"/>
      <point x="265" y="-9" type="curve" smooth="yes" name="hr02"/>
      <point x="359" y="-9"/>
      <point x="486" y="47"/>
      <point x="486" y="220" type="curve" smooth="yes"/>
      <point x="486" y="321"/>
      <point x="443" y="458"/>
      <point x="311" y="458" type="curve" smooth="yes"/>
      <point x="235" y="458"/>
      <point x="173" y="413"/>
      <point x="136" y="334" type="curve"/>
    </contour>
    <contour>
      <point x="139" y="205" type="curve" smooth="yes"/>
      <point x="139" y="252"/>
      <point x="185" y="397"/>
      <point x="294" y="397" type="curve" smooth="yes"/>
      <point x="337" y="397"/>
      <point x="413" y="356"/>
      <point x="413" y="225" type="curve" smooth="yes"/>
      <point x="413" y="86"/>
      <point x="320" y="52"/>
      <point x="263" y="52" type="curve" smooth="yes"/>
      <point x="182" y="52"/>
      <point x="139" y="106"/>
    </contour>
  </outline>
</glyph>
<glyph name="c" format="1">
  <advance width="488"/>
  <unicode hex="0063"/>
  <outline>
    <contour>
      <point x="382" y="428" type="curve"/>
      <point x="353" y="472"/>
      <point x="312" y="482"/>
      <point x="262" y="482" type="curve" smooth="yes"/>
      <point x="128" y="482"/>
      <point x="29" y="369"/>
      <point x="29" y="225" type="curve" smooth="yes"/>
      <point x="29" y="97"/>
      <point x="113" y="-6"/>
      <point x="253" y="-6" type="curve" smooth="yes"/>
      <point x="342" y="-6"/>
      <point x="411" y="31"/>
      <point x="457" y="101" type="curve" smooth="yes"/>
      <point x="463" y="111"/>
      <point x="467" y="118"/>
      <point x="467" y="128" type="curve" smooth="yes"/>
      <point x="467" y="146"/>
      <point x="451" y="154"/>
      <point x="437" y="154" type="curve" smooth="yes"/>
      <point x="428" y="154"/>
      <point x="416" y="149"/>
      <point x="403" y="128" type="curve" smooth="yes"/>
      <point x="379" y="88"/>
      <point x="326" y="56"/>
      <point x="249" y="56" type="curve" smooth="yes"/>
      <point x="159" y="56"/>
      <point x="106" y="122"/>
      <point x="106" y="227" type="curve" smooth="yes"/>
      <point x="106" y="341"/>
      <point x="170" y="422"/>
      <point x="259" y="422" type="curve" smooth="yes"/>
      <point x="348" y="422"/>
      <point x="380" y="378"/>
      <point x="380" y="309" type="curve" smooth="yes"/>
      <point x="380" y="294"/>
      <point x="397" y="288"/>
      <point x="407" y="288" type="curve" smooth="yes" name="hr01"/>
      <point x="427" y="288"/>
      <point x="443" y="299"/>
      <point x="443" y="310" type="curve" smooth="yes"/>
      <point x="443" y="346"/>
      <point x="444" y="440"/>
      <point x="444" y="478" type="curve" smooth="yes"/>
      <point x="444" y="498"/>
      <point x="433" y="511"/>
      <point x="411" y="511" type="curve" smooth="yes"/>
      <point x="389" y="511"/>
      <point x="380" y="498"/>
      <point x="380" y="483" type="curve" smooth="yes"/>
      <point x="380" y="465"/>
      <point x="381" y="443"/>
    </contour>
  </outline>
</glyph>
<glyph name="d" format="1">
  <advance width="548"/>
  <unicode hex="0064"/>
  <outline>
    <contour>
      <point x="465" y="57" type="curve"/>
      <point x="463" y="204"/>
      <point x="462" y="304"/>
      <point x="462" y="325" type="curve" smooth="yes"/>
      <point x="462" y="365"/>
      <point x="465" y="697"/>
      <point x="465" y="771" type="curve" smooth="yes"/>
      <point x="465" y="808"/>
      <point x="439" y="809"/>
      <point x="388" y="809" type="curve" smooth="yes"/>
      <point x="270" y="809"/>
      <point x="215" y="801"/>
      <point x="215" y="766" type="curve" smooth="yes"/>
      <point x="215" y="757"/>
      <point x="232" y="752"/>
      <point x="245" y="752" type="curve" smooth="yes"/>
      <point x="295" y="752"/>
      <point x="319" y="754"/>
      <point x="352" y="754" type="curve" smooth="yes"/>
      <point x="374" y="754"/>
      <point x="392" y="751"/>
      <point x="392" y="726" type="curve" smooth="yes" name="hr01"/>
      <point x="392" y="416" type="line"/>
      <point x="371" y="443"/>
      <point x="323" y="477"/>
      <point x="244" y="477" type="curve" smooth="yes"/>
      <point x="59" y="477"/>
      <point x="30" y="292"/>
      <point x="30" y="218" type="curve" smooth="yes"/>
      <point x="30" y="121"/>
      <point x="81" y="-9"/>
      <point x="220" y="-9" type="curve" smooth="yes"/>
      <point x="292" y="-9"/>
      <point x="359" y="24"/>
      <point x="389" y="83" type="curve"/>
      <point x="391" y="29" type="line" smooth="yes"/>
      <point x="392" y="-4"/>
      <point x="400" y="-25"/>
      <point x="428" y="-28" type="curve" smooth="yes"/>
      <point x="441" y="-29"/>
      <point x="463" y="-30"/>
      <point x="536" y="-30" type="curve" smooth="yes" name="hr02"/>
      <point x="560" y="-30"/>
      <point x="575" y="-18"/>
      <point x="575" y="-2" type="curve" smooth="yes"/>
      <point x="575" y="23"/>
      <point x="559" y="31"/>
      <point x="502" y="31" type="curve" smooth="yes"/>
      <point x="470" y="31"/>
      <point x="465" y="31"/>
    </contour>
    <contour>
      <point x="250" y="51" type="curve" smooth="yes"/>
      <point x="177" y="51"/>
      <point x="103" y="104"/>
      <point x="103" y="222" type="curve" smooth="yes"/>
      <point x="103" y="323"/>
      <point x="159" y="418"/>
      <point x="258" y="418" type="curve" smooth="yes"/>
      <point x="339" y="418"/>
      <point x="369" y="372"/>
      <point x="384" y="334" type="curve"/>
      <point x="393" y="301"/>
      <point x="395" y="274"/>
      <point x="395" y="248" type="curve" smooth="yes"/>
      <point x="395" y="184"/>
      <point x="353" y="51"/>
    </contour>
  </outline>
</glyph>
<glyph name="e" format="1">
  <advance width="491"/>
  <unicode hex="0065"/>
  <outline>
    <contour>
      <point x="111" y="299" type="line"/>
      <point x="122" y="354"/>
      <point x="171" y="415"/>
      <point x="254" y="415" type="curve" smooth="yes"/>
      <point x="340" y="415"/>
      <point x="381" y="352"/>
      <point x="381" y="311" type="curve" smooth="yes"/>
      <point x="381" y="306"/>
      <point x="377" y="303"/>
      <point x="364" y="303" type="curve"/>
    </contour>
    <contour>
      <point x="107" y="239" type="curve"/>
      <point x="138" y="239"/>
      <point x="222" y="240"/>
      <point x="248" y="240" type="curve" smooth="yes"/>
      <point x="312" y="240"/>
      <point x="371" y="241"/>
      <point x="412" y="241" type="curve" smooth="yes"/>
      <point x="439" y="241"/>
      <point x="454" y="273"/>
      <point x="454" y="304" type="curve" smooth="yes"/>
      <point x="454" y="358"/>
      <point x="405" y="477"/>
      <point x="257" y="477" type="curve" smooth="yes"/>
      <point x="120" y="477"/>
      <point x="30" y="382"/>
      <point x="30" y="226" type="curve" smooth="yes"/>
      <point x="30" y="86"/>
      <point x="104" y="-13"/>
      <point x="242" y="-13" type="curve" smooth="yes"/>
      <point x="414" y="-13"/>
      <point x="463" y="79"/>
      <point x="463" y="173" type="curve" smooth="yes"/>
      <point x="463" y="193"/>
      <point x="449" y="205"/>
      <point x="433" y="205" type="curve" smooth="yes"/>
      <point x="405" y="205"/>
      <point x="399" y="184"/>
      <point x="399" y="173" type="curve" smooth="yes" name="hr01"/>
      <point x="399" y="124"/>
      <point x="363" y="51"/>
      <point x="258" y="51" type="curve" smooth="yes"/>
      <point x="159" y="51"/>
      <point x="105" y="137"/>
      <point x="105" y="218" type="curve" smooth="yes"/>
      <point x="105" y="224"/>
      <point x="106" y="232"/>
    </contour>
  </outline>
</glyph>
<glyph name="f" format="1">
  <advance width="318"/>
  <unicode hex="0066"/>
  <outline>
    <contour>
      <point x="94" y="75" type="curve" smooth="yes"/>
      <point x="93" y="60"/>
      <point x="82" y="56"/>
      <point x="50" y="54" type="curve" smooth="yes"/>
      <point x="36" y="53"/>
      <point x="8" y="49"/>
      <point x="8" y="26" type="curve" smooth="yes"/>
      <point x="8" y="0"/>
      <point x="34" y="0"/>
      <point x="52" y="0" type="curve" smooth="yes"/>
      <point x="67" y="0"/>
      <point x="120" y="3"/>
      <point x="156" y="3" type="curve" smooth="yes" name="hr01"/>
      <point x="186" y="3"/>
      <point x="242" y="1"/>
      <point x="266" y="1" type="curve" smooth="yes" name="hr02"/>
      <point x="300" y="1"/>
      <point x="318" y="7"/>
      <point x="318" y="30" type="curve" smooth="yes"/>
      <point x="318" y="58"/>
      <point x="299" y="60"/>
      <point x="279" y="60" type="curve" smooth="yes" name="hr03"/>
      <point x="170" y="60" type="line"/>
      <point x="170" y="404" type="line"/>
      <point x="170" y="411"/>
      <point x="172" y="415"/>
      <point x="188" y="415" type="curve" smooth="yes"/>
      <point x="200" y="415"/>
      <point x="242" y="413"/>
      <point x="254" y="413" type="curve" smooth="yes"/>
      <point x="269" y="413"/>
      <point x="293" y="414"/>
      <point x="293" y="445" type="curve" smooth="yes" name="hr04"/>
      <point x="293" y="470"/>
      <point x="269" y="473"/>
      <point x="256" y="473" type="curve" smooth="yes"/>
      <point x="178" y="473" type="line" smooth="yes"/>
      <point x="173" y="473"/>
      <point x="170" y="475"/>
      <point x="170" y="484" type="curve" smooth="yes" name="hr05"/>
      <point x="170" y="578"/>
      <point x="170" y="769"/>
      <point x="323" y="769" type="curve" smooth="yes"/>
      <point x="356" y="769"/>
      <point x="378" y="750"/>
      <point x="378" y="742" type="curve" smooth="yes"/>
      <point x="378" y="733"/>
      <point x="371" y="729"/>
      <point x="363" y="721" type="curve" smooth="yes"/>
      <point x="353" y="712"/>
      <point x="348" y="697"/>
      <point x="348" y="686" type="curve" smooth="yes"/>
      <point x="348" y="665"/>
      <point x="364" y="642"/>
      <point x="396" y="642" type="curve" smooth="yes" name="hr06"/>
      <point x="420" y="642"/>
      <point x="450" y="662"/>
      <point x="450" y="718" type="curve" smooth="yes"/>
      <point x="450" y="756"/>
      <point x="423" y="825"/>
      <point x="323" y="825" type="curve" smooth="yes"/>
      <point x="113" y="825"/>
      <point x="100" y="595"/>
      <point x="97" y="491" type="curve"/>
      <point x="97" y="482"/>
      <point x="96" y="473"/>
      <point x="85" y="473" type="curve" smooth="yes"/>
      <point x="51" y="473" type="line" smooth="yes"/>
      <point x="27" y="473"/>
      <point x="9" y="472"/>
      <point x="9" y="445" type="curve" smooth="yes"/>
      <point x="9" y="423"/>
      <point x="26" y="415"/>
      <point x="48" y="415" type="curve" smooth="yes"/>
      <point x="85" y="415" type="line" smooth="yes"/>
      <point x="96" y="415"/>
      <point x="98" y="413"/>
      <point x="98" y="409" type="curve" smooth="yes"/>
      <point x="98" y="345"/>
      <point x="100" y="281"/>
      <point x="100" y="217" type="curve" smooth="yes"/>
      <point x="100" y="169"/>
      <point x="98" y="122"/>
    </contour>
  </outline>
</glyph>
<glyph name="g" format="1">
  <advance width="495"/>
  <unicode hex="0067"/>
  <outline>
    <contour>
      <point x="240" y="460" type="curve" smooth="yes"/>
      <point x="129" y="460"/>
      <point x="58" y="389"/>
      <point x="58" y="294" type="curve" smooth="yes"/>
      <point x="58" y="243"/>
      <point x="78" y="193"/>
      <point x="121" y="165" type="curve"/>
      <point x="80" y="147"/>
      <point x="59" y="128"/>
      <point x="59" y="89" type="curve" smooth="yes"/>
      <point x="59" y="37"/>
      <point x="95" y="16"/>
      <point x="147" y="7" type="curve"/>
      <point x="70" y="-8"/>
      <point x="31" y="-44"/>
      <point x="31" y="-102" type="curve" smooth="yes" name="hr01"/>
      <point x="31" y="-201"/>
      <point x="142" y="-250"/>
      <point x="273" y="-250" type="curve" smooth="yes"/>
      <point x="439" y="-250"/>
      <point x="553" y="-187"/>
      <point x="553" y="-91" type="curve" smooth="yes"/>
      <point x="553" y="48"/>
      <point x="399" y="56"/>
      <point x="285" y="57" type="curve" smooth="yes"/>
      <point x="182" y="58"/>
      <point x="131" y="68"/>
      <point x="131" y="95" type="curve" smooth="yes" name="hr02"/>
      <point x="131" y="119"/>
      <point x="152" y="132"/>
      <point x="181" y="143" type="curve"/>
      <point x="198" y="138"/>
      <point x="213" y="137"/>
      <point x="231" y="137" type="curve" smooth="yes"/>
      <point x="356" y="137"/>
      <point x="428" y="208"/>
      <point x="428" y="301" type="curve" smooth="yes"/>
      <point x="428" y="353"/>
      <point x="405" y="400"/>
      <point x="359" y="429" type="curve"/>
      <point x="385" y="455"/>
      <point x="420" y="466"/>
      <point x="449" y="469" type="curve" smooth="yes"/>
      <point x="463" y="471"/>
      <point x="473" y="483"/>
      <point x="473" y="498" type="curve" smooth="yes"/>
      <point x="473" y="521"/>
      <point x="452" y="530"/>
      <point x="435" y="530" type="curve" smooth="yes"/>
      <point x="398" y="530"/>
      <point x="347" y="493"/>
      <point x="316" y="449" type="curve"/>
      <point x="294" y="456"/>
      <point x="269" y="460"/>
    </contour>
    <contour>
      <point x="299" y="-1" type="curve" smooth="yes"/>
      <point x="320" y="-1"/>
      <point x="480" y="-2"/>
      <point x="480" y="-99" type="curve" smooth="yes"/>
      <point x="480" y="-149"/>
      <point x="413" y="-189"/>
      <point x="290" y="-189" type="curve" smooth="yes"/>
      <point x="202" y="-189"/>
      <point x="104" y="-162"/>
      <point x="104" y="-106" type="curve" smooth="yes" name="hr03"/>
      <point x="104" y="-32"/>
      <point x="215" y="-1"/>
    </contour>
    <contour>
      <point x="247" y="400" type="curve" smooth="yes"/>
      <point x="315" y="400"/>
      <point x="355" y="360"/>
      <point x="355" y="301" type="curve" smooth="yes"/>
      <point x="355" y="239"/>
      <point x="312" y="197"/>
      <point x="240" y="197" type="curve" smooth="yes"/>
      <point x="171" y="197"/>
      <point x="131" y="240"/>
      <point x="131" y="292" type="curve" smooth="yes" name="hr04"/>
      <point x="131" y="355"/>
      <point x="176" y="400"/>
    </contour>
  </outline>
</glyph>
<glyph name="h" format="1">
  <advance width="551"/>
  <unicode hex="0068"/>
  <outline>
    <contour>
      <point x="459" y="233" type="line" smooth="yes"/>
      <point x="459" y="395"/>
      <point x="390" y="428"/>
      <point x="318" y="428" type="curve" smooth="yes"/>
      <point x="252" y="428"/>
      <point x="182" y="392"/>
      <point x="153" y="330" type="curve"/>
      <point x="153" y="789" type="line"/>
      <point x="150" y="816"/>
      <point x="146" y="821"/>
      <point x="111" y="821" type="curve" smooth="yes"/>
      <point x="-17" y="821"/>
      <point x="-48" y="808"/>
      <point x="-48" y="787" type="curve" smooth="yes"/>
      <point x="-48" y="771"/>
      <point x="-9" y="770"/>
      <point x="17" y="770" type="curve" smooth="yes"/>
      <point x="64" y="770" type="line" smooth="yes"/>
      <point x="77" y="770"/>
      <point x="81" y="759"/>
      <point x="81" y="737" type="curve" smooth="yes"/>
      <point x="81" y="721"/>
      <point x="77" y="156"/>
      <point x="76" y="111" type="curve" name="hr01"/>
      <point x="76" y="91"/>
      <point x="73" y="57"/>
      <point x="48" y="57" type="curve" smooth="yes"/>
      <point x="32" y="57" type="line" smooth="yes"/>
      <point x="16" y="57"/>
      <point x="-5" y="51"/>
      <point x="-5" y="27" type="curve" smooth="yes" name="hr02"/>
      <point x="-5" y="2"/>
      <point x="18" y="0"/>
      <point x="39" y="0" type="curve" smooth="yes"/>
      <point x="53" y="0"/>
      <point x="218" y="1"/>
      <point x="228" y="1" type="curve" smooth="yes"/>
      <point x="254" y="1"/>
      <point x="267" y="5"/>
      <point x="267" y="28" type="curve" smooth="yes"/>
      <point x="267" y="54"/>
      <point x="250" y="60"/>
      <point x="228" y="60" type="curve" smooth="yes"/>
      <point x="148" y="60" type="line"/>
      <point x="148" y="186" type="line" smooth="yes"/>
      <point x="148" y="217"/>
      <point x="157" y="250"/>
      <point x="173" y="280" type="curve" smooth="yes"/>
      <point x="199" y="329"/>
      <point x="244" y="368"/>
      <point x="299" y="368" type="curve" smooth="yes"/>
      <point x="387" y="368"/>
      <point x="389" y="287"/>
      <point x="389" y="163" type="curve"/>
      <point x="389" y="161"/>
      <point x="389" y="89"/>
      <point x="386" y="36" type="curve" smooth="yes"/>
      <point x="384" y="4"/>
      <point x="376" y="1"/>
      <point x="343" y="-3" type="curve" smooth="yes"/>
      <point x="331" y="-5"/>
      <point x="315" y="-14"/>
      <point x="315" y="-32" type="curve" smooth="yes" name="hr03"/>
      <point x="315" y="-54"/>
      <point x="331" y="-60"/>
      <point x="348" y="-60" type="curve" smooth="yes"/>
      <point x="359" y="-60"/>
      <point x="520" y="-58"/>
      <point x="532" y="-58" type="curve" smooth="yes"/>
      <point x="552" y="-58"/>
      <point x="569" y="-53"/>
      <point x="569" y="-33" type="curve" smooth="yes" name="hr04"/>
      <point x="569" y="-3"/>
      <point x="532" y="0"/>
      <point x="513" y="0" type="curve" smooth="yes"/>
      <point x="459" y="0" type="line" name="hr05"/>
    </contour>
  </outline>
</glyph>
<glyph name="k" format="1">
  <advance width="483"/>
  <unicode hex="006B"/>
  <outline>
    <contour>
      <point x="144" y="788" type="line" smooth="yes"/>
      <point x="144" y="809"/>
      <point x="137" y="817"/>
      <point x="119" y="817" type="curve" smooth="yes"/>
      <point x="9" y="817"/>
      <point x="-38" y="799"/>
      <point x="-38" y="781" type="curve" smooth="yes"/>
      <point x="-38" y="765"/>
      <point x="-16" y="761"/>
      <point x="0" y="761" type="curve" smooth="yes"/>
      <point x="50" y="761" type="line" smooth="yes"/>
      <point x="66" y="761"/>
      <point x="72" y="753"/>
      <point x="72" y="738" type="curve" smooth="yes"/>
      <point x="72" y="666"/>
      <point x="76" y="563"/>
      <point x="76" y="370" type="curve" smooth="yes" name="hr01"/>
      <point x="76" y="198"/>
      <point x="71" y="228"/>
      <point x="71" y="105" type="curve" smooth="yes"/>
      <point x="71" y="67"/>
      <point x="69" y="56"/>
      <point x="57" y="53" type="curve" smooth="yes"/>
      <point x="11" y="43"/>
      <point x="-7" y="39"/>
      <point x="-7" y="20" type="curve" smooth="yes" name="hr02"/>
      <point x="-7" y="-1"/>
      <point x="14" y="-6"/>
      <point x="36" y="-6" type="curve" smooth="yes"/>
      <point x="54" y="-6"/>
      <point x="88" y="-4"/>
      <point x="109" y="-4" type="curve" smooth="yes" name="hr03"/>
      <point x="159" y="-4"/>
      <point x="189" y="-6"/>
      <point x="218" y="-6" type="curve" smooth="yes" name="hr04"/>
      <point x="234" y="-6"/>
      <point x="250" y="-2"/>
      <point x="250" y="15" type="curve" smooth="yes"/>
      <point x="250" y="36"/>
      <point x="236" y="51"/>
      <point x="205" y="51" type="curve" smooth="yes"/>
      <point x="144" y="51" type="line" name="hr05"/>
      <point x="144" y="185" type="line"/>
      <point x="186" y="220" type="line"/>
      <point x="266" y="220"/>
      <point x="290" y="201"/>
      <point x="290" y="116" type="curve" smooth="yes"/>
      <point x="290" y="50" type="line" smooth="yes"/>
      <point x="290" y="-38"/>
      <point x="325" y="-71"/>
      <point x="380" y="-71" type="curve" smooth="yes"/>
      <point x="431" y="-71"/>
      <point x="468" y="-35"/>
      <point x="468" y="9" type="curve" smooth="yes"/>
      <point x="468" y="27"/>
      <point x="463" y="46"/>
      <point x="440" y="46" type="curve" smooth="yes"/>
      <point x="419" y="46"/>
      <point x="407" y="34"/>
      <point x="407" y="12" type="curve" smooth="yes"/>
      <point x="407" y="-2"/>
      <point x="397" y="-7"/>
      <point x="389" y="-7" type="curve" smooth="yes" name="hr06"/>
      <point x="378" y="-7"/>
      <point x="360" y="0"/>
      <point x="360" y="68" type="curve" smooth="yes"/>
      <point x="360" y="116" type="line" smooth="yes"/>
      <point x="360" y="234"/>
      <point x="322" y="268"/>
      <point x="234" y="268" type="curve"/>
      <point x="348" y="376" type="line" smooth="yes"/>
      <point x="355" y="383"/>
      <point x="366" y="388"/>
      <point x="379" y="389" type="curve" smooth="yes"/>
      <point x="457" y="395"/>
      <point x="480" y="397"/>
      <point x="480" y="419" type="curve" smooth="yes"/>
      <point x="480" y="432"/>
      <point x="439" y="441"/>
      <point x="316" y="441" type="curve" smooth="yes"/>
      <point x="267" y="441"/>
      <point x="231" y="432"/>
      <point x="231" y="412" type="curve" smooth="yes"/>
      <point x="231" y="398"/>
      <point x="247" y="394"/>
      <point x="252" y="394" type="curve" smooth="yes"/>
      <point x="259" y="394" type="line" smooth="yes"/>
      <point x="262" y="394"/>
      <point x="267" y="393"/>
      <point x="267" y="387" type="curve" smooth="yes"/>
      <point x="267" y="377"/>
      <point x="216" y="331"/>
      <point x="144" y="264" type="curve"/>
    </contour>
  </outline>
</glyph>
<glyph name="l" format="1">
  <advance width="256"/>
  <unicode hex="006C"/>
  <outline>
    <contour>
      <point x="167" y="785" type="curve"/>
      <point x="167" y="819"/>
      <point x="147" y="820"/>
      <point x="110" y="820" type="curve" smooth="yes"/>
      <point x="58" y="820"/>
      <point x="-30" y="817"/>
      <point x="-30" y="791" type="curve" smooth="yes"/>
      <point x="-30" y="775"/>
      <point x="-12" y="770"/>
      <point x="16" y="770" type="curve" smooth="yes"/>
      <point x="78" y="770" type="line" smooth="yes"/>
      <point x="95" y="770"/>
      <point x="97" y="763"/>
      <point x="97" y="742" type="curve" smooth="yes"/>
      <point x="97" y="665"/>
      <point x="98" y="583"/>
      <point x="98" y="413" type="curve" smooth="yes" name="hr01"/>
      <point x="98" y="247"/>
      <point x="97" y="159"/>
      <point x="93" y="85" type="curve" smooth="yes"/>
      <point x="92" y="68"/>
      <point x="77" y="56"/>
      <point x="46" y="54" type="curve" smooth="yes"/>
      <point x="13" y="52" type="line"/>
      <point x="7" y="52"/>
      <point x="-8" y="46"/>
      <point x="-8" y="26" type="curve" smooth="yes" name="hr02"/>
      <point x="-8" y="14"/>
      <point x="3" y="0"/>
      <point x="35" y="0" type="curve" smooth="yes"/>
      <point x="56" y="0"/>
      <point x="99" y="2"/>
      <point x="126" y="2" type="curve" smooth="yes"/>
      <point x="160" y="2"/>
      <point x="207" y="-1"/>
      <point x="226" y="-1" type="curve" smooth="yes" name="hr03"/>
      <point x="254" y="-1"/>
      <point x="264" y="15"/>
      <point x="264" y="25" type="curve" smooth="yes"/>
      <point x="264" y="41"/>
      <point x="255" y="57"/>
      <point x="214" y="57" type="curve" smooth="yes" name="hr04"/>
      <point x="168" y="57" type="line"/>
      <point x="168" y="146"/>
      <point x="166" y="325"/>
      <point x="166" y="626" type="curve"/>
      <point x="166" y="628"/>
      <point x="166" y="719"/>
    </contour>
  </outline>
</glyph>
<glyph name="m" format="1">
  <advance width="825"/>
  <unicode hex="006D"/>
  <outline>
    <contour>
      <point x="733" y="282" type="line" smooth="yes"/>
      <point x="733" y="396"/>
      <point x="676" y="444"/>
      <point x="600" y="444" type="curve" smooth="yes"/>
      <point x="538" y="444"/>
      <point x="483" y="412"/>
      <point x="445" y="347" type="curve"/>
      <point x="425" y="404"/>
      <point x="382" y="434"/>
      <point x="322" y="434" type="curve" smooth="yes"/>
      <point x="257" y="434"/>
      <point x="203" y="399"/>
      <point x="179" y="341" type="curve"/>
      <point x="176" y="406" type="line" smooth="yes"/>
      <point x="175" y="423"/>
      <point x="170" y="428"/>
      <point x="159" y="428" type="curve" smooth="yes" name="hr01"/>
      <point x="70" y="428"/>
      <point x="2" y="421"/>
      <point x="2" y="397" type="curve" smooth="yes"/>
      <point x="2" y="382"/>
      <point x="26" y="375"/>
      <point x="75" y="375" type="curve" smooth="yes"/>
      <point x="88" y="375" type="line" smooth="yes"/>
      <point x="102" y="375"/>
      <point x="114" y="365"/>
      <point x="114" y="264" type="curve" smooth="yes" name="hr02"/>
      <point x="114" y="180"/>
      <point x="106" y="112"/>
      <point x="103" y="90" type="curve" smooth="yes"/>
      <point x="98" y="56"/>
      <point x="90" y="56"/>
      <point x="55" y="56" type="curve" smooth="yes"/>
      <point x="37" y="56"/>
      <point x="29" y="41"/>
      <point x="29" y="31" type="curve" smooth="yes"/>
      <point x="29" y="18"/>
      <point x="37" y="2"/>
      <point x="56" y="2" type="curve" smooth="yes"/>
      <point x="234" y="2"/>
      <point x="239" y="1"/>
      <point x="250" y="1" type="curve" smooth="yes"/>
      <point x="274" y="1"/>
      <point x="281" y="14"/>
      <point x="281" y="24" type="curve" smooth="yes"/>
      <point x="281" y="40"/>
      <point x="268" y="59"/>
      <point x="225" y="59" type="curve" smooth="yes"/>
      <point x="182" y="59" type="line"/>
      <point x="182" y="215" type="line" smooth="yes"/>
      <point x="182" y="320"/>
      <point x="242" y="374"/>
      <point x="316" y="374" type="curve" smooth="yes"/>
      <point x="363" y="374"/>
      <point x="381" y="337"/>
      <point x="384" y="265" type="curve" smooth="yes"/>
      <point x="385" y="235"/>
      <point x="385" y="204"/>
      <point x="385" y="202" type="curve"/>
      <point x="385" y="152"/>
      <point x="386" y="131"/>
      <point x="386" y="109" type="curve" smooth="yes"/>
      <point x="386" y="86"/>
      <point x="380" y="70"/>
      <point x="349" y="67" type="curve" smooth="yes"/>
      <point x="339" y="66" type="line" smooth="yes"/>
      <point x="325" y="65"/>
      <point x="315" y="53"/>
      <point x="315" y="37" type="curve" smooth="yes" name="hr03"/>
      <point x="315" y="14"/>
      <point x="329" y="9"/>
      <point x="362" y="9" type="curve" smooth="yes"/>
      <point x="380" y="9"/>
      <point x="512" y="10"/>
      <point x="523" y="10" type="curve" smooth="yes"/>
      <point x="535" y="10"/>
      <point x="545" y="19"/>
      <point x="545" y="36" type="curve" smooth="yes" name="hr04"/>
      <point x="545" y="48"/>
      <point x="539" y="65"/>
      <point x="508" y="65" type="curve" smooth="yes"/>
      <point x="454" y="65" type="line" name="hr05"/>
      <point x="454" y="280" type="line"/>
      <point x="479" y="333"/>
      <point x="523" y="384"/>
      <point x="588" y="384" type="curve" smooth="yes"/>
      <point x="643" y="384"/>
      <point x="665" y="338"/>
      <point x="665" y="220" type="curve" smooth="yes"/>
      <point x="665" y="158"/>
      <point x="660" y="91"/>
      <point x="658" y="71" type="curve" smooth="yes"/>
      <point x="655" y="43"/>
      <point x="648" y="41"/>
      <point x="635" y="40" type="curve" smooth="yes"/>
      <point x="605" y="38" type="line" smooth="yes"/>
      <point x="587" y="37"/>
      <point x="577" y="26"/>
      <point x="577" y="10" type="curve" smooth="yes" name="hr06"/>
      <point x="577" y="-13"/>
      <point x="590" y="-21"/>
      <point x="646" y="-21" type="curve" smooth="yes"/>
      <point x="678" y="-21"/>
      <point x="779" y="-20"/>
      <point x="801" y="-19" type="curve" smooth="yes"/>
      <point x="828" y="-18"/>
      <point x="841" y="-6"/>
      <point x="841" y="8" type="curve" smooth="yes"/>
      <point x="841" y="19"/>
      <point x="834" y="36"/>
      <point x="790" y="36" type="curve" smooth="yes"/>
      <point x="733" y="36" type="line"/>
    </contour>
  </outline>
</glyph>
<glyph name="n" format="1">
  <advance width="603"/>
  <unicode hex="006E"/>
  <outline>
    <contour>
      <point x="511" y="260" type="line" smooth="yes"/>
      <point x="511" y="422"/>
      <point x="420" y="455"/>
      <point x="360" y="455" type="curve" smooth="yes"/>
      <point x="294" y="455"/>
      <point x="229" y="419"/>
      <point x="200" y="357" type="curve"/>
      <point x="197" y="419" type="line" smooth="yes"/>
      <point x="196" y="446"/>
      <point x="193" y="451"/>
      <point x="158" y="451" type="curve" smooth="yes"/>
      <point x="30" y="451"/>
      <point x="-6" y="443"/>
      <point x="-6" y="417" type="curve" smooth="yes"/>
      <point x="-6" y="401"/>
      <point x="33" y="400"/>
      <point x="59" y="400" type="curve" smooth="yes"/>
      <point x="111" y="400" type="line" smooth="yes"/>
      <point x="124" y="400"/>
      <point x="128" y="389"/>
      <point x="128" y="367" type="curve" smooth="yes"/>
      <point x="128" y="351"/>
      <point x="124" y="170"/>
      <point x="123" y="125" type="curve" name="hr01"/>
      <point x="123" y="105"/>
      <point x="120" y="71"/>
      <point x="95" y="71" type="curve" smooth="yes"/>
      <point x="75" y="71" type="line" smooth="yes"/>
      <point x="59" y="71"/>
      <point x="38" y="65"/>
      <point x="38" y="41" type="curve" smooth="yes" name="hr02"/>
      <point x="38" y="16"/>
      <point x="60" y="14"/>
      <point x="81" y="14" type="curve" smooth="yes"/>
      <point x="95" y="14"/>
      <point x="252" y="15"/>
      <point x="262" y="15" type="curve" smooth="yes"/>
      <point x="288" y="15"/>
      <point x="301" y="19"/>
      <point x="301" y="42" type="curve" smooth="yes" name="hr03"/>
      <point x="301" y="68"/>
      <point x="284" y="74"/>
      <point x="262" y="74" type="curve" smooth="yes"/>
      <point x="195" y="74" type="line" name="hr04"/>
      <point x="195" y="186" type="line" smooth="yes"/>
      <point x="195" y="226"/>
      <point x="203" y="269"/>
      <point x="217" y="300" type="curve" smooth="yes"/>
      <point x="239" y="351"/>
      <point x="285" y="395"/>
      <point x="341" y="395" type="curve" smooth="yes"/>
      <point x="429" y="395"/>
      <point x="441" y="287"/>
      <point x="441" y="163" type="curve"/>
      <point x="441" y="161"/>
      <point x="441" y="118"/>
      <point x="438" y="65" type="curve" smooth="yes"/>
      <point x="436" y="33"/>
      <point x="428" y="30"/>
      <point x="395" y="26" type="curve" smooth="yes"/>
      <point x="383" y="24"/>
      <point x="367" y="15"/>
      <point x="367" y="-3" type="curve" smooth="yes" name="hr05"/>
      <point x="367" y="-25"/>
      <point x="383" y="-31"/>
      <point x="400" y="-31" type="curve" smooth="yes"/>
      <point x="411" y="-31"/>
      <point x="572" y="-29"/>
      <point x="584" y="-29" type="curve" smooth="yes"/>
      <point x="604" y="-29"/>
      <point x="621" y="-24"/>
      <point x="621" y="-4" type="curve" smooth="yes" name="hr06"/>
      <point x="621" y="26"/>
      <point x="584" y="29"/>
      <point x="565" y="29" type="curve" smooth="yes"/>
      <point x="511" y="29" type="line" name="hr07"/>
    </contour>
  </outline>
</glyph>
<glyph name="o" format="1">
  <advance width="529"/>
  <unicode hex="006F"/>
  <outline>
    <contour>
      <point x="500" y="233" type="curve" smooth="yes"/>
      <point x="500" y="360"/>
      <point x="420" y="472"/>
      <point x="271" y="472" type="curve" smooth="yes"/>
      <point x="123" y="472"/>
      <point x="29" y="369"/>
      <point x="29" y="230" type="curve" smooth="yes"/>
      <point x="29" y="88"/>
      <point x="124" y="-11"/>
      <point x="259" y="-11" type="curve" smooth="yes"/>
      <point x="372" y="-11"/>
      <point x="500" y="70"/>
    </contour>
    <contour>
      <point x="270" y="412" type="curve" smooth="yes"/>
      <point x="363" y="412"/>
      <point x="427" y="338"/>
      <point x="427" y="235" type="curve" smooth="yes"/>
      <point x="427" y="107"/>
      <point x="330" y="50"/>
      <point x="261" y="50" type="curve" smooth="yes"/>
      <point x="191" y="50"/>
      <point x="104" y="109"/>
      <point x="104" y="231" type="curve" smooth="yes"/>
      <point x="104" y="347"/>
      <point x="183" y="412"/>
    </contour>
  </outline>
</glyph>
<glyph name="p" format="1">
  <advance width="562"/>
  <unicode hex="0070"/>
  <outline>
    <contour>
      <point x="177" y="413" type="line" smooth="yes"/>
      <point x="177" y="444"/>
      <point x="171" y="449"/>
      <point x="152" y="449" type="curve" smooth="yes"/>
      <point x="19" y="449"/>
      <point x="-20" y="439"/>
      <point x="-20" y="418" type="curve" smooth="yes"/>
      <point x="-20" y="399"/>
      <point x="14" y="397"/>
      <point x="30" y="397" type="curve" smooth="yes"/>
      <point x="72" y="397" type="line" smooth="yes"/>
      <point x="100" y="397"/>
      <point x="106" y="396"/>
      <point x="106" y="375" type="curve" smooth="yes"/>
      <point x="106" y="320"/>
      <point x="110" y="259"/>
      <point x="110" y="124" type="curve" smooth="yes" name="hr01"/>
      <point x="110" y="7"/>
      <point x="107" y="-33"/>
      <point x="107" y="-86" type="curve" smooth="yes"/>
      <point x="107" y="-142"/>
      <point x="106" y="-141"/>
      <point x="75" y="-145" type="curve" smooth="yes"/>
      <point x="40" y="-149"/>
      <point x="19" y="-160"/>
      <point x="19" y="-180" type="curve" smooth="yes" name="hr02"/>
      <point x="19" y="-201"/>
      <point x="39" y="-202"/>
      <point x="47" y="-202" type="curve" smooth="yes"/>
      <point x="272" y="-202" type="line" smooth="yes"/>
      <point x="283" y="-202"/>
      <point x="302" y="-198"/>
      <point x="302" y="-179" type="curve" smooth="yes" name="hr03"/>
      <point x="302" y="-157"/>
      <point x="277" y="-144"/>
      <point x="242" y="-144" type="curve" smooth="yes"/>
      <point x="177" y="-144" type="line" name="hr04"/>
      <point x="177" y="68" type="line"/>
      <point x="195" y="34"/>
      <point x="237" y="-11"/>
      <point x="325" y="-11" type="curve" smooth="yes"/>
      <point x="394" y="-11"/>
      <point x="531" y="47"/>
      <point x="531" y="238" type="curve" smooth="yes"/>
      <point x="531" y="334"/>
      <point x="499" y="471"/>
      <point x="347" y="471" type="curve" smooth="yes"/>
      <point x="280" y="471"/>
      <point x="212" y="427"/>
      <point x="177" y="346" type="curve"/>
    </contour>
    <contour>
      <point x="176" y="219" type="curve" smooth="yes"/>
      <point x="176" y="347"/>
      <point x="271" y="410"/>
      <point x="343" y="410" type="curve" smooth="yes"/>
      <point x="441" y="410"/>
      <point x="457" y="305"/>
      <point x="457" y="240" type="curve" smooth="yes"/>
      <point x="457" y="87"/>
      <point x="372" y="49"/>
      <point x="322" y="49" type="curve" smooth="yes"/>
      <point x="205" y="49"/>
      <point x="176" y="129"/>
    </contour>
  </outline>
</glyph>
<glyph name="q" format="1">
  <advance width="524"/>
  <unicode hex="0071"/>
  <outline>
    <contour>
      <point x="406" y="371" type="curve"/>
      <point x="375" y="413"/>
      <point x="320" y="453"/>
      <point x="241" y="453" type="curve" smooth="yes"/>
      <point x="146" y="453"/>
      <point x="31" y="380"/>
      <point x="31" y="216" type="curve" smooth="yes"/>
      <point x="31" y="86"/>
      <point x="104" y="-11"/>
      <point x="222" y="-11" type="curve" smooth="yes"/>
      <point x="300" y="-11"/>
      <point x="354" y="31"/>
      <point x="373" y="80" type="curve"/>
      <point x="373" y="-68" type="line" smooth="yes"/>
      <point x="373" y="-115"/>
      <point x="371" y="-128"/>
      <point x="362" y="-134" type="curve" smooth="yes"/>
      <point x="353" y="-140"/>
      <point x="337" y="-143"/>
      <point x="292" y="-145" type="curve" smooth="yes"/>
      <point x="265" y="-146"/>
      <point x="248" y="-153"/>
      <point x="248" y="-174" type="curve" smooth="yes" name="hr01"/>
      <point x="248" y="-191"/>
      <point x="261" y="-203"/>
      <point x="281" y="-203" type="curve" smooth="yes"/>
      <point x="496" y="-203" type="line" smooth="yes"/>
      <point x="520" y="-203"/>
      <point x="529" y="-187"/>
      <point x="529" y="-173" type="curve" smooth="yes" name="hr02"/>
      <point x="529" y="-160"/>
      <point x="516" y="-144"/>
      <point x="477" y="-144" type="curve" smooth="yes"/>
      <point x="444" y="-144" type="line"/>
      <point x="444" y="-120"/>
      <point x="442" y="5"/>
      <point x="442" y="36" type="curve" smooth="yes" name="hr03"/>
      <point x="442" y="88"/>
      <point x="443" y="219"/>
      <point x="444" y="281" type="curve"/>
      <point x="444" y="299"/>
      <point x="444" y="325"/>
      <point x="450" y="337" type="curve" smooth="yes"/>
      <point x="458" y="354"/>
      <point x="475" y="355"/>
      <point x="505" y="357" type="curve" smooth="yes"/>
      <point x="522" y="358"/>
      <point x="532" y="371"/>
      <point x="532" y="385" type="curve" smooth="yes"/>
      <point x="532" y="397"/>
      <point x="523" y="411"/>
      <point x="501" y="411" type="curve" smooth="yes"/>
      <point x="466" y="411"/>
      <point x="436" y="400"/>
    </contour>
    <contour>
      <point x="240" y="49" type="curve" smooth="yes"/>
      <point x="145" y="49"/>
      <point x="104" y="134"/>
      <point x="104" y="213" type="curve" smooth="yes"/>
      <point x="104" y="287"/>
      <point x="139" y="393"/>
      <point x="244" y="393" type="curve" smooth="yes" name="hr04"/>
      <point x="352" y="393"/>
      <point x="383" y="312"/>
      <point x="383" y="241" type="curve" smooth="yes"/>
      <point x="383" y="149"/>
      <point x="338" y="49"/>
    </contour>
  </outline>
</glyph>
<glyph name="r" format="1">
  <advance width="429"/>
  <unicode hex="0072"/>
  <outline>
    <contour>
      <point x="414" y="336" type="curve" smooth="yes"/>
      <point x="414" y="386"/>
      <point x="369" y="434"/>
      <point x="302" y="434" type="curve" smooth="yes"/>
      <point x="256" y="434"/>
      <point x="213" y="411"/>
      <point x="181" y="364" type="curve"/>
      <point x="181" y="413" type="line" smooth="yes"/>
      <point x="181" y="448"/>
      <point x="172" y="451"/>
      <point x="137" y="451" type="curve" smooth="yes" name="hr01"/>
      <point x="88" y="451"/>
      <point x="-6" y="448"/>
      <point x="-6" y="423" type="curve" smooth="yes"/>
      <point x="-6" y="413"/>
      <point x="11" y="400"/>
      <point x="44" y="400" type="curve" smooth="yes"/>
      <point x="93" y="400" type="line" smooth="yes"/>
      <point x="103" y="400"/>
      <point x="108" y="395"/>
      <point x="108" y="386" type="curve" smooth="yes" name="hr02"/>
      <point x="108" y="195"/>
      <point x="105" y="131"/>
      <point x="103" y="95" type="curve" smooth="yes"/>
      <point x="102" y="76"/>
      <point x="95" y="65"/>
      <point x="63" y="61" type="curve" smooth="yes"/>
      <point x="40" y="58"/>
      <point x="31" y="43"/>
      <point x="31" y="28" type="curve" smooth="yes"/>
      <point x="31" y="13"/>
      <point x="42" y="0"/>
      <point x="63" y="0" type="curve" smooth="yes"/>
      <point x="100" y="0"/>
      <point x="117" y="3"/>
      <point x="156" y="3" type="curve" smooth="yes"/>
      <point x="194" y="3"/>
      <point x="254" y="0"/>
      <point x="294" y="0" type="curve" smooth="yes"/>
      <point x="313" y="0"/>
      <point x="324" y="10"/>
      <point x="324" y="27" type="curve" smooth="yes"/>
      <point x="324" y="50"/>
      <point x="299" y="61"/>
      <point x="230" y="61" type="curve" smooth="yes"/>
      <point x="176" y="61" type="line" name="hr03"/>
      <point x="176" y="213" type="line" smooth="yes"/>
      <point x="176" y="333"/>
      <point x="248" y="373"/>
      <point x="296" y="373" type="curve" smooth="yes"/>
      <point x="322" y="373"/>
      <point x="342" y="364"/>
      <point x="342" y="339" type="curve" smooth="yes"/>
      <point x="342" y="309"/>
      <point x="299" y="326"/>
      <point x="299" y="285" type="curve" smooth="yes" name="hr04"/>
      <point x="299" y="258"/>
      <point x="322" y="246"/>
      <point x="345" y="246" type="curve" smooth="yes"/>
      <point x="398" y="246"/>
      <point x="414" y="292"/>
    </contour>
  </outline>
</glyph>
<glyph name="s" format="1">
  <advance width="435"/>
  <unicode hex="0073"/>
  <outline>
    <contour>
      <point x="101" y="33" type="curve"/>
      <point x="125" y="-13"/>
      <point x="185" y="-24"/>
      <point x="234" y="-24" type="curve" smooth="yes"/>
      <point x="298" y="-24"/>
      <point x="399" y="-5"/>
      <point x="399" y="99" type="curve" smooth="yes"/>
      <point x="399" y="188"/>
      <point x="324" y="209"/>
      <point x="225" y="235" type="curve" smooth="yes"/>
      <point x="164" y="251"/>
      <point x="114" y="268"/>
      <point x="114" y="322" type="curve" smooth="yes"/>
      <point x="114" y="366"/>
      <point x="147" y="396"/>
      <point x="209" y="396" type="curve" smooth="yes"/>
      <point x="271" y="396"/>
      <point x="302" y="366"/>
      <point x="318" y="336" type="curve" smooth="yes"/>
      <point x="325" y="323"/>
      <point x="329" y="288"/>
      <point x="330" y="284" type="curve" smooth="yes"/>
      <point x="332" y="275"/>
      <point x="340" y="259"/>
      <point x="357" y="259" type="curve" smooth="yes" name="hr01"/>
      <point x="369" y="259"/>
      <point x="388" y="266"/>
      <point x="389" y="285" type="curve" smooth="yes"/>
      <point x="390" y="302"/>
      <point x="394" y="375"/>
      <point x="394" y="432" type="curve" smooth="yes"/>
      <point x="394" y="467"/>
      <point x="376" y="475"/>
      <point x="362" y="475" type="curve" smooth="yes" name="hr02"/>
      <point x="350" y="475"/>
      <point x="330" y="469"/>
      <point x="330" y="438" type="curve" smooth="yes"/>
      <point x="330" y="431"/>
      <point x="331" y="409"/>
      <point x="332" y="392" type="curve"/>
      <point x="317" y="420"/>
      <point x="284" y="457"/>
      <point x="206" y="457" type="curve" smooth="yes" name="hr03"/>
      <point x="126" y="457"/>
      <point x="48" y="419"/>
      <point x="48" y="320" type="curve" smooth="yes"/>
      <point x="48" y="215"/>
      <point x="135" y="192"/>
      <point x="203" y="175" type="curve" smooth="yes"/>
      <point x="282" y="155"/>
      <point x="331" y="140"/>
      <point x="331" y="95" type="curve" smooth="yes"/>
      <point x="331" y="47"/>
      <point x="273" y="33"/>
      <point x="231" y="33" type="curve" smooth="yes"/>
      <point x="162" y="33"/>
      <point x="120" y="71"/>
      <point x="107" y="100" type="curve" smooth="yes"/>
      <point x="101" y="113"/>
      <point x="101" y="123"/>
      <point x="99" y="141" type="curve" smooth="yes"/>
      <point x="96" y="165"/>
      <point x="90" y="181"/>
      <point x="64" y="181" type="curve" smooth="yes" name="hr04"/>
      <point x="39" y="181"/>
      <point x="37" y="167"/>
      <point x="37" y="146" type="curve" smooth="yes"/>
      <point x="37" y="117"/>
      <point x="41" y="80"/>
      <point x="41" y="54" type="curve" smooth="yes"/>
      <point x="41" y="36"/>
      <point x="39" y="2"/>
      <point x="39" y="-4" type="curve" smooth="yes"/>
      <point x="39" y="-26"/>
      <point x="62" y="-30"/>
      <point x="72" y="-30" type="curve" smooth="yes" name="hr05"/>
      <point x="92" y="-30"/>
      <point x="102" y="-15"/>
      <point x="102" y="5" type="curve" smooth="yes"/>
      <point x="102" y="13"/>
      <point x="102" y="23"/>
    </contour>
  </outline>
</glyph>
<glyph name="t" format="1">
  <advance width="359"/>
  <unicode hex="0074"/>
  <outline>
    <contour>
      <point x="95" y="165" type="line"/>
      <point x="95" y="129"/>
      <point x="97" y="69"/>
      <point x="123" y="30" type="curve" smooth="yes"/>
      <point x="141" y="3"/>
      <point x="168" y="-11"/>
      <point x="207" y="-11" type="curve" smooth="yes"/>
      <point x="307" y="-11"/>
      <point x="349" y="79"/>
      <point x="349" y="117" type="curve" smooth="yes"/>
      <point x="349" y="123"/>
      <point x="345" y="147"/>
      <point x="324" y="147" type="curve" smooth="yes"/>
      <point x="291" y="147"/>
      <point x="290" y="123"/>
      <point x="282" y="102" type="curve" smooth="yes"/>
      <point x="274" y="81"/>
      <point x="263" y="49"/>
      <point x="221" y="49" type="curve" smooth="yes" name="hr01"/>
      <point x="174" y="49"/>
      <point x="167" y="109"/>
      <point x="167" y="152" type="curve" smooth="yes"/>
      <point x="167" y="406" type="line"/>
      <point x="212" y="409"/>
      <point x="264" y="409"/>
      <point x="312" y="414" type="curve"/>
      <point x="324" y="416"/>
      <point x="339" y="425"/>
      <point x="339" y="443" type="curve" smooth="yes"/>
      <point x="339" y="464"/>
      <point x="319" y="472"/>
      <point x="303" y="472" type="curve" smooth="yes"/>
      <point x="287" y="472"/>
      <point x="187" y="468"/>
      <point x="167" y="468" type="curve" name="hr02"/>
      <point x="167" y="575" type="line" smooth="yes"/>
      <point x="167" y="615"/>
      <point x="151" y="618"/>
      <point x="134" y="618" type="curve" smooth="yes"/>
      <point x="128" y="618"/>
      <point x="108" y="617"/>
      <point x="102" y="590" type="curve" smooth="yes"/>
      <point x="96" y="563"/>
      <point x="96" y="528"/>
      <point x="96" y="500" type="curve" smooth="yes" name="hr03"/>
      <point x="96" y="478"/>
      <point x="95" y="469"/>
      <point x="68" y="466" type="curve" smooth="yes"/>
      <point x="17" y="461" type="line" smooth="yes"/>
      <point x="-2" y="459"/>
      <point x="-17" y="451"/>
      <point x="-17" y="432" type="curve" smooth="yes" name="hr04"/>
      <point x="-17" y="408"/>
      <point x="4" y="402"/>
      <point x="12" y="402" type="curve" smooth="yes"/>
      <point x="36" y="402"/>
      <point x="72" y="404"/>
      <point x="97" y="404" type="curve"/>
    </contour>
  </outline>
</glyph>
<glyph name="u" format="1">
  <advance width="585"/>
  <unicode hex="0075"/>
  <outline>
    <contour>
      <point x="429" y="180" type="line" smooth="yes"/>
      <point x="428" y="106"/>
      <point x="361" y="40"/>
      <point x="281" y="40" type="curve" smooth="yes"/>
      <point x="175" y="40"/>
      <point x="175" y="158"/>
      <point x="175" y="243" type="curve" smooth="yes"/>
      <point x="175" y="302"/>
      <point x="179" y="392"/>
      <point x="179" y="427" type="curve" smooth="yes"/>
      <point x="179" y="469"/>
      <point x="168" y="472"/>
      <point x="115" y="472" type="curve" smooth="yes"/>
      <point x="32" y="472"/>
      <point x="-21" y="463"/>
      <point x="-21" y="442" type="curve" smooth="yes"/>
      <point x="-21" y="424"/>
      <point x="0" y="420"/>
      <point x="20" y="420" type="curve" smooth="yes"/>
      <point x="73" y="420" type="line" smooth="yes"/>
      <point x="104" y="420"/>
      <point x="105" y="412"/>
      <point x="105" y="382" type="curve" smooth="yes" name="hr01"/>
      <point x="105" y="187" type="line" smooth="yes"/>
      <point x="105" y="82"/>
      <point x="145" y="-20"/>
      <point x="269" y="-20" type="curve" smooth="yes"/>
      <point x="362" y="-20"/>
      <point x="411" y="38"/>
      <point x="430" y="81" type="curve"/>
      <point x="431" y="3"/>
      <point x="435" y="-22"/>
      <point x="450" y="-22" type="curve" smooth="yes" name="hr02"/>
      <point x="561" y="-22"/>
      <point x="596" y="-11"/>
      <point x="596" y="15" type="curve" smooth="yes"/>
      <point x="596" y="30"/>
      <point x="585" y="39"/>
      <point x="560" y="39" type="curve" smooth="yes"/>
      <point x="539" y="39"/>
      <point x="534" y="38"/>
      <point x="529" y="38" type="curve" smooth="yes"/>
      <point x="506" y="38"/>
      <point x="501" y="46"/>
      <point x="501" y="60" type="curve" smooth="yes"/>
      <point x="501" y="65"/>
      <point x="500" y="90"/>
      <point x="500" y="156" type="curve" smooth="yes" name="hr03"/>
      <point x="500" y="308"/>
      <point x="503" y="355"/>
      <point x="503" y="383" type="curve" smooth="yes"/>
      <point x="503" y="431"/>
      <point x="488" y="432"/>
      <point x="430" y="432" type="curve" smooth="yes"/>
      <point x="335" y="432"/>
      <point x="295" y="423"/>
      <point x="295" y="398" type="curve" smooth="yes" name="hr04"/>
      <point x="295" y="386"/>
      <point x="308" y="380"/>
      <point x="329" y="380" type="curve" smooth="yes"/>
      <point x="405" y="380" type="line" smooth="yes"/>
      <point x="424" y="380"/>
      <point x="432" y="365"/>
      <point x="432" y="339" type="curve"/>
    </contour>
  </outline>
</glyph>
<glyph name="v" format="1">
  <advance width="510"/>
  <unicode hex="0076"/>
  <outline>
    <contour>
      <point x="415" y="349" type="curve" smooth="yes"/>
      <point x="423" y="367"/>
      <point x="434" y="373"/>
      <point x="460" y="375" type="curve" smooth="yes"/>
      <point x="496" y="379"/>
      <point x="529" y="378"/>
      <point x="529" y="402" type="curve" smooth="yes"/>
      <point x="529" y="421"/>
      <point x="520" y="423"/>
      <point x="395" y="423" type="curve" smooth="yes"/>
      <point x="306" y="423"/>
      <point x="294" y="421"/>
      <point x="294" y="400" type="curve" smooth="yes"/>
      <point x="294" y="388"/>
      <point x="301" y="378"/>
      <point x="311" y="378" type="curve" smooth="yes"/>
      <point x="333" y="378"/>
      <point x="339" y="375"/>
      <point x="339" y="362" type="curve" smooth="yes" name="hr01"/>
      <point x="339" y="347"/>
      <point x="300" y="250"/>
      <point x="255" y="105" type="curve"/>
      <point x="171" y="353"/>
      <point x="161" y="388"/>
      <point x="161" y="395" type="curve" smooth="yes"/>
      <point x="161" y="408"/>
      <point x="183" y="408"/>
      <point x="189" y="408" type="curve" smooth="yes"/>
      <point x="209" y="408"/>
      <point x="224" y="418"/>
      <point x="224" y="433" type="curve" smooth="yes"/>
      <point x="224" y="452"/>
      <point x="207" y="454"/>
      <point x="186" y="454" type="curve" smooth="yes" name="hr02"/>
      <point x="176" y="454"/>
      <point x="42" y="453"/>
      <point x="30" y="453" type="curve" smooth="yes" name="hr03"/>
      <point x="12" y="453"/>
      <point x="-6" y="450"/>
      <point x="-6" y="434" type="curve" smooth="yes" name="hr04"/>
      <point x="-6" y="418"/>
      <point x="18" y="413"/>
      <point x="38" y="411" type="curve" smooth="yes"/>
      <point x="63" y="408"/>
      <point x="80" y="407"/>
      <point x="94" y="370" type="curve" smooth="yes"/>
      <point x="146" y="231"/>
      <point x="157" y="197"/>
      <point x="216" y="9" type="curve" smooth="yes"/>
      <point x="222" y="-10"/>
      <point x="243" y="-14"/>
      <point x="253" y="-14" type="curve" smooth="yes"/>
      <point x="270" y="-14"/>
      <point x="285" y="-4"/>
      <point x="291" y="12" type="curve" smooth="yes"/>
      <point x="300" y="36"/>
      <point x="388" y="290"/>
    </contour>
  </outline>
</glyph>
<glyph name="w" format="1">
  <advance width="770"/>
  <unicode hex="0077"/>
  <outline>
    <contour>
      <point x="512" y="95" type="curve"/>
      <point x="434" y="418"/>
      <point x="441" y="399"/>
      <point x="436" y="413" type="curve"/>
      <point x="424" y="429"/>
      <point x="413" y="433"/>
      <point x="398" y="433" type="curve" smooth="yes"/>
      <point x="381" y="433"/>
      <point x="367" y="428"/>
      <point x="356" y="413" type="curve"/>
      <point x="347" y="390"/>
      <point x="316" y="284"/>
      <point x="258" y="111" type="curve"/>
      <point x="168" y="361"/>
      <point x="156" y="399"/>
      <point x="156" y="408" type="curve" smooth="yes"/>
      <point x="156" y="414"/>
      <point x="161" y="418"/>
      <point x="170" y="418" type="curve" smooth="yes"/>
      <point x="208" y="418" type="line" smooth="yes"/>
      <point x="232" y="418"/>
      <point x="246" y="424"/>
      <point x="246" y="441" type="curve" smooth="yes"/>
      <point x="246" y="463"/>
      <point x="228" y="465"/>
      <point x="189" y="465" type="curve" smooth="yes"/>
      <point x="65" y="465" type="line" smooth="yes"/>
      <point x="23" y="465"/>
      <point x="0" y="462"/>
      <point x="0" y="440" type="curve" smooth="yes"/>
      <point x="0" y="418"/>
      <point x="28" y="418"/>
      <point x="65" y="418" type="curve" smooth="yes"/>
      <point x="77" y="418"/>
      <point x="80" y="416"/>
      <point x="83" y="408" type="curve" smooth="yes"/>
      <point x="216" y="32" type="line"/>
      <point x="229" y="15"/>
      <point x="237" y="8"/>
      <point x="255" y="8" type="curve" smooth="yes"/>
      <point x="274" y="8"/>
      <point x="285" y="12"/>
      <point x="291" y="29" type="curve" smooth="yes"/>
      <point x="394" y="345" type="line"/>
      <point x="469" y="28" type="line" smooth="yes"/>
      <point x="478" y="-9"/>
      <point x="489" y="-17"/>
      <point x="511" y="-17" type="curve" smooth="yes"/>
      <point x="522" y="-17"/>
      <point x="541" y="-9"/>
      <point x="551" y="15" type="curve" smooth="yes"/>
      <point x="656" y="270"/>
      <point x="683" y="353"/>
      <point x="694" y="361" type="curve" smooth="yes"/>
      <point x="702" y="367"/>
      <point x="707" y="370"/>
      <point x="737" y="370" type="curve" smooth="yes"/>
      <point x="763" y="370"/>
      <point x="793" y="370"/>
      <point x="793" y="394" type="curve" smooth="yes"/>
      <point x="793" y="412"/>
      <point x="779" y="417"/>
      <point x="674" y="417" type="curve" smooth="yes"/>
      <point x="562" y="417"/>
      <point x="551" y="405"/>
      <point x="551" y="388" type="curve" smooth="yes"/>
      <point x="551" y="378"/>
      <point x="557" y="370"/>
      <point x="574" y="370" type="curve" smooth="yes"/>
      <point x="584" y="370" type="line" smooth="yes"/>
      <point x="595" y="370"/>
      <point x="601" y="364"/>
      <point x="601" y="353" type="curve" smooth="yes" name="hr01"/>
      <point x="601" y="334"/>
      <point x="555" y="194"/>
    </contour>
  </outline>
</glyph>
